<svg id="Calque_1" data-name="Calque 1" xmlns="http://www.w3.org/2000/svg" xmlns:xlink="http://www.w3.org/1999/xlink" viewBox="0 0 147.4 146.95"><defs><style>.cls-1{fill:#f9ecd8;}.cls-2{fill:url(#Dégradé_sans_nom_29);}.cls-3{fill:url(#Dégradé_sans_nom_29-2);}.cls-4{fill:url(#Dégradé_sans_nom_29-3);}.cls-5{fill:url(#Dégradé_sans_nom_29-4);}.cls-6{fill:url(#Dégradé_sans_nom_14);}.cls-7{fill:url(#Dégradé_sans_nom_26);}.cls-8{fill:url(#Dégradé_sans_nom_29-5);}.cls-9{fill:url(#Dégradé_sans_nom_29-6);}.cls-10{fill:url(#Dégradé_sans_nom_29-7);}.cls-11{fill:url(#Dégradé_sans_nom_29-8);}.cls-12{fill:url(#Dégradé_sans_nom_24);}.cls-13{fill:#1d1d1b;}.cls-14{fill:url(#Dégradé_sans_nom_17);}.cls-15{fill:url(#Dégradé_sans_nom_29-9);}.cls-16{fill:url(#Dégradé_sans_nom_29-10);}.cls-17{fill:url(#Dégradé_sans_nom_29-11);}.cls-18{fill:url(#Dégradé_sans_nom_29-12);}.cls-19{fill:url(#Dégradé_sans_nom_29-13);}.cls-20{fill:url(#Dégradé_sans_nom_29-14);}.cls-21{fill:url(#Dégradé_sans_nom_29-15);}.cls-22{fill:url(#Dégradé_sans_nom_29-16);}.cls-23{fill:url(#Dégradé_sans_nom_29-17);}.cls-24{fill:url(#Dégradé_sans_nom_29-18);}.cls-25{fill:url(#Dégradé_sans_nom_29-19);}.cls-26{fill:url(#Dégradé_sans_nom_55);}.cls-27{fill:url(#Dégradé_sans_nom_55-2);}.cls-28{fill:url(#Dégradé_sans_nom_55-3);}.cls-29{fill:url(#Dégradé_sans_nom_29-20);}.cls-30{fill:url(#Dégradé_sans_nom_55-4);}.cls-31{fill:url(#Dégradé_sans_nom_55-5);}.cls-32{fill:url(#Dégradé_sans_nom_55-6);}.cls-33{fill:url(#Dégradé_sans_nom_55-7);}.cls-34{fill:url(#Dégradé_sans_nom_55-8);}.cls-35{fill:url(#Dégradé_sans_nom_80);}.cls-36{fill:url(#Dégradé_sans_nom_55-9);}.cls-37{fill:url(#Dégradé_sans_nom_55-10);}.cls-38{fill:url(#Dégradé_sans_nom_55-11);}.cls-39{fill:url(#Dégradé_sans_nom_55-12);}.cls-40{fill:url(#Dégradé_sans_nom_55-13);}.cls-41{fill:url(#Dégradé_sans_nom_55-14);}.cls-42{fill:url(#Dégradé_sans_nom_55-15);}.cls-43{fill:url(#Dégradé_sans_nom_55-16);}.cls-44{fill:url(#Dégradé_sans_nom_55-17);}.cls-45{fill:url(#Dégradé_sans_nom_55-18);}.cls-46{fill:url(#Dégradé_sans_nom_55-19);}.cls-47{fill:url(#Dégradé_sans_nom_55-20);}.cls-48{fill:url(#Dégradé_sans_nom_55-21);}.cls-49{fill:url(#Dégradé_sans_nom_55-22);}.cls-50{fill:url(#Dégradé_sans_nom_55-23);}.cls-51{fill:url(#Dégradé_sans_nom_55-24);}.cls-52{fill:#fff;}</style><linearGradient id="Dégradé_sans_nom_29" x1="95.49" y1="77.08" x2="101.5" y2="77.08" gradientTransform="matrix(-1, 0, 0, 1, 151.52, 0)" gradientUnits="userSpaceOnUse"><stop offset="0" stop-color="#f7dcb4"/><stop offset="0.36" stop-color="#fab743"/><stop offset="0.7" stop-color="#7f5e19"/></linearGradient><linearGradient id="Dégradé_sans_nom_29-2" x1="88.31" y1="74.89" x2="107" y2="74.89" xlink:href="#Dégradé_sans_nom_29"/><linearGradient id="Dégradé_sans_nom_29-3" x1="84.58" y1="70.83" x2="110.73" y2="70.83" xlink:href="#Dégradé_sans_nom_29"/><linearGradient id="Dégradé_sans_nom_29-4" x1="82.74" y1="65.29" x2="112.43" y2="65.29" xlink:href="#Dégradé_sans_nom_29"/><linearGradient id="Dégradé_sans_nom_14" x1="82.18" y1="58.27" x2="88.16" y2="58.27" gradientTransform="matrix(-1, 0, 0, 1, 151.52, 0)" gradientUnits="userSpaceOnUse"><stop offset="0" stop-color="#f7dcb4"/><stop offset="1" stop-color="#f7dcb4"/></linearGradient><linearGradient id="Dégradé_sans_nom_26" x1="95.34" y1="59.07" x2="112.69" y2="59.07" gradientTransform="matrix(-1, 0, 0, 1, 151.52, 0)" gradientUnits="userSpaceOnUse"><stop offset="0" stop-color="#efaf3f"/><stop offset="0.53" stop-color="#7f5e19"/></linearGradient><linearGradient id="Dégradé_sans_nom_29-5" x1="83.51" y1="52.84" x2="111.46" y2="52.84" xlink:href="#Dégradé_sans_nom_29"/><linearGradient id="Dégradé_sans_nom_29-6" x1="85.77" y1="48.72" x2="109.5" y2="48.72" xlink:href="#Dégradé_sans_nom_29"/><linearGradient id="Dégradé_sans_nom_29-7" x1="88.47" y1="45.23" x2="106.46" y2="45.23" xlink:href="#Dégradé_sans_nom_29"/><linearGradient id="Dégradé_sans_nom_29-8" x1="91.7" y1="42.56" x2="103.7" y2="42.56" xlink:href="#Dégradé_sans_nom_29"/><linearGradient id="Dégradé_sans_nom_24" x1="85.42" y1="60.99" x2="97.22" y2="60.99" gradientTransform="matrix(-1, 0, 0, 1, 151.52, 0)" gradientUnits="userSpaceOnUse"><stop offset="0" stop-color="#7f5e19"/><stop offset="0.47" stop-color="#fab743"/><stop offset="1" stop-color="#f7dcb4"/></linearGradient><linearGradient id="Dégradé_sans_nom_17" x1="92.49" y1="16.62" x2="92.49" y2="42.78" gradientTransform="matrix(-1, 0, 0, 1, 151.52, 0)" gradientUnits="userSpaceOnUse"><stop offset="0" stop-color="#bf8f34"/><stop offset="0.49" stop-color="#7f5e19"/><stop offset="1" stop-color="#251900"/></linearGradient><linearGradient id="Dégradé_sans_nom_29-9" x1="64.34" y1="17.57" x2="72.07" y2="17.57" xlink:href="#Dégradé_sans_nom_29"/><linearGradient id="Dégradé_sans_nom_29-10" x1="55.27" y1="16.9" x2="64.27" y2="16.9" xlink:href="#Dégradé_sans_nom_29"/><linearGradient id="Dégradé_sans_nom_29-11" x1="55.3" y1="22.44" x2="64.71" y2="22.44" xlink:href="#Dégradé_sans_nom_29"/><linearGradient id="Dégradé_sans_nom_29-12" x1="63.72" y1="14" x2="66.04" y2="14" xlink:href="#Dégradé_sans_nom_29"/><linearGradient id="Dégradé_sans_nom_29-13" x1="46.43" y1="21.25" x2="53.01" y2="21.25" xlink:href="#Dégradé_sans_nom_29"/><linearGradient id="Dégradé_sans_nom_29-14" x1="42.55" y1="28.25" x2="46.75" y2="28.25" xlink:href="#Dégradé_sans_nom_29"/><linearGradient id="Dégradé_sans_nom_29-15" x1="114.16" y1="28.21" x2="123.56" y2="28.21" gradientTransform="matrix(-0.79, 0.61, 0.61, 0.79, 188.45, -72.95)" xlink:href="#Dégradé_sans_nom_29"/><linearGradient id="Dégradé_sans_nom_29-16" x1="124.19" y1="33.97" x2="126.51" y2="33.97" gradientTransform="matrix(-0.74, 0.67, 0.67, 0.74, 184.5, -79.96)" xlink:href="#Dégradé_sans_nom_29"/><linearGradient id="Dégradé_sans_nom_29-17" x1="216.19" y1="-191.97" x2="225.19" y2="-191.97" gradientTransform="matrix(1, 0, 0, -1, -102.63, -166.25)" xlink:href="#Dégradé_sans_nom_29"/><linearGradient id="Dégradé_sans_nom_29-18" x1="42.62" y1="22.81" x2="46.68" y2="22.81" xlink:href="#Dégradé_sans_nom_29"/><linearGradient id="Dégradé_sans_nom_29-19" x1="115.13" y1="31.8" x2="120.92" y2="31.8" gradientTransform="matrix(-0.79, 0.61, 0.61, 0.79, 188.45, -72.95)" xlink:href="#Dégradé_sans_nom_29"/><linearGradient id="Dégradé_sans_nom_55" x1="32.98" y1="130.91" x2="43.82" y2="130.91" gradientTransform="matrix(-1.11, 0, 0, 0.81, 170.21, -2.58)" gradientUnits="userSpaceOnUse"><stop offset="0" stop-color="#7f5e19"/><stop offset="0.23"/><stop offset="1"/></linearGradient><linearGradient id="Dégradé_sans_nom_55-2" x1="42.41" y1="125.7" x2="54.29" y2="125.7" gradientTransform="matrix(-1, 0, 0, 1, 151.52, 0)" xlink:href="#Dégradé_sans_nom_55"/><linearGradient id="Dégradé_sans_nom_55-3" x1="31.15" y1="115.1" x2="39.93" y2="115.1" gradientTransform="matrix(-1, 0, 0, 1, 151.52, 0)" xlink:href="#Dégradé_sans_nom_55"/><linearGradient id="Dégradé_sans_nom_29-20" x1="54.22" y1="125.44" x2="72.08" y2="109.12" xlink:href="#Dégradé_sans_nom_29"/><linearGradient id="Dégradé_sans_nom_55-4" x1="47.77" y1="116.34" x2="61.82" y2="103.49" gradientTransform="matrix(-1, 0, 0, 1, 151.52, 0)" xlink:href="#Dégradé_sans_nom_55"/><linearGradient id="Dégradé_sans_nom_55-5" x1="52.45" y1="123.29" x2="67.97" y2="109.1" gradientTransform="matrix(-1, 0, 0, 1, 151.52, 0)" xlink:href="#Dégradé_sans_nom_55"/><linearGradient id="Dégradé_sans_nom_55-6" x1="59.8" y1="131.16" x2="73.82" y2="118.35" gradientTransform="matrix(-1, 0, 0, 1, 151.52, 0)" xlink:href="#Dégradé_sans_nom_55"/><linearGradient id="Dégradé_sans_nom_55-7" x1="66.53" y1="135.36" x2="73.21" y2="129.26" gradientTransform="matrix(-1, 0, 0, 1, 151.52, 0)" xlink:href="#Dégradé_sans_nom_55"/><linearGradient id="Dégradé_sans_nom_55-8" x1="40.35" y1="111.72" x2="51.87" y2="101.19" gradientTransform="matrix(-1, 0, 0, 1, 151.52, 0)" xlink:href="#Dégradé_sans_nom_55"/><radialGradient id="Dégradé_sans_nom_80" cx="30.17" cy="105.41" r="11.84" gradientTransform="matrix(-0.89, -0.45, -0.45, 0.89, 196.12, 25.21)" gradientUnits="userSpaceOnUse"><stop offset="0" stop-color="#f4bc5d"/><stop offset="0.42" stop-color="#e5a93d"/><stop offset="0.99" stop-color="#7f5e19"/></radialGradient><linearGradient id="Dégradé_sans_nom_55-9" x1="42.79" y1="61.2" x2="53.62" y2="61.2" gradientTransform="matrix(-1.34, 0, 0, 0.98, 184.81, 44.02)" xlink:href="#Dégradé_sans_nom_55"/><linearGradient id="Dégradé_sans_nom_55-10" x1="34.52" y1="119.69" x2="50.75" y2="119.69" gradientTransform="matrix(-1, 0, 0, 1, 151.52, 0)" xlink:href="#Dégradé_sans_nom_55"/><linearGradient id="Dégradé_sans_nom_55-11" x1="48.94" y1="121.85" x2="62.65" y2="121.85" gradientTransform="matrix(-1, 0, 0, 1, 151.52, 0)" xlink:href="#Dégradé_sans_nom_55"/><linearGradient id="Dégradé_sans_nom_55-12" x1="33.2" y1="114.12" x2="44.12" y2="114.12" gradientTransform="matrix(-1, 0, 0, 1, 151.52, 0)" xlink:href="#Dégradé_sans_nom_55"/><linearGradient id="Dégradé_sans_nom_55-13" x1="99.21" y1="104.09" x2="70.02" y2="77.41" gradientTransform="matrix(1, 0, 0, 1, 0, 0)" xlink:href="#Dégradé_sans_nom_55"/><linearGradient id="Dégradé_sans_nom_55-14" x1="107.72" y1="102.67" x2="77.08" y2="74.67" gradientTransform="matrix(1, 0, 0, 1, 0, 0)" xlink:href="#Dégradé_sans_nom_55"/><linearGradient id="Dégradé_sans_nom_55-15" x1="108.55" y1="88.97" x2="93.67" y2="75.37" gradientTransform="matrix(1, 0, 0, 1, 0, 0)" xlink:href="#Dégradé_sans_nom_55"/><linearGradient id="Dégradé_sans_nom_55-16" x1="111.09" y1="86.69" x2="103.23" y2="79.5" gradientTransform="matrix(1, 0, 0, 1, 0, 0)" xlink:href="#Dégradé_sans_nom_55"/><linearGradient id="Dégradé_sans_nom_55-17" x1="115.74" y1="84.65" x2="107.67" y2="77.27" gradientTransform="matrix(1, 0, 0, 1, 0, 0)" xlink:href="#Dégradé_sans_nom_55"/><linearGradient id="Dégradé_sans_nom_55-18" x1="89.11" y1="105.48" x2="71.56" y2="89.44" gradientTransform="matrix(1, 0, 0, 1, 0, 0)" xlink:href="#Dégradé_sans_nom_55"/><linearGradient id="Dégradé_sans_nom_55-19" x1="76.14" y1="103.57" x2="70.17" y2="98.12" gradientTransform="matrix(1, 0, 0, 1, 0, 0)" xlink:href="#Dégradé_sans_nom_55"/><linearGradient id="Dégradé_sans_nom_55-20" x1="84.47" y1="128.95" x2="73.21" y2="118.66" gradientTransform="matrix(1, 0, 0, 1, 0, 0)" xlink:href="#Dégradé_sans_nom_55"/><linearGradient id="Dégradé_sans_nom_55-21" x1="77.34" y1="134.5" x2="72.18" y2="129.78" gradientTransform="matrix(1, 0, 0, 1, 0, 0)" xlink:href="#Dégradé_sans_nom_55"/><linearGradient id="Dégradé_sans_nom_55-22" x1="75.89" y1="139.58" x2="71.77" y2="135.81" gradientTransform="matrix(1, 0, 0, 1, 0, 0)" xlink:href="#Dégradé_sans_nom_55"/><linearGradient id="Dégradé_sans_nom_55-23" x1="130.26" y1="123.99" x2="125.56" y2="119.7" gradientTransform="matrix(1, 0, 0, 1, 0, 0)" xlink:href="#Dégradé_sans_nom_55"/><linearGradient id="Dégradé_sans_nom_55-24" x1="140.76" y1="105.82" x2="138.42" y2="103.69" gradientTransform="matrix(1, 0, 0, 1, 0, 0)" xlink:href="#Dégradé_sans_nom_55"/></defs><rect class="cls-1" x="0.45" width="146.95" height="146.95"/><path class="cls-2" d="M56,76.91a5.4,5.4,0,0,1-6-.39,19.73,19.73,0,0,0,2.52.39A19.29,19.29,0,0,0,56,76.91Z"/><path class="cls-3" d="M63.22,73a13,13,0,0,1-3.07,2.4,12.76,12.76,0,0,1-5.79,1.64,13.83,13.83,0,0,1-5.23-.91c-2.72-.9-3.6-1.91-3.91-2.31a5.42,5.42,0,0,1-.7-1.15,31.41,31.41,0,0,0,18.7.33Z"/><path class="cls-4" d="M67,67.51a7,7,0,0,1-1,3.07,7.3,7.3,0,0,1-2.74,2.51,11.81,11.81,0,0,1-4.83,1.26,30.18,30.18,0,0,1-8,.13c-2.48-.31-4.13-.54-5.88-1.73A8.83,8.83,0,0,1,41.85,70a8.24,8.24,0,0,1-1.06-3,31.59,31.59,0,0,0,6.38,2.16,32.67,32.67,0,0,0,11.66.36A37.71,37.71,0,0,0,67,67.51Z"/><path class="cls-5" d="M68.65,61.5a6.85,6.85,0,0,1-1.7,6A30.19,30.19,0,0,1,40.79,67a6.63,6.63,0,0,1-1.33-2.2,6.85,6.85,0,0,1,0-4.41A16.56,16.56,0,0,0,43.59,63a20.46,20.46,0,0,0,7.21,1.46,32.94,32.94,0,0,0,4.77,0,6.19,6.19,0,0,0,5.92,1.82,6.36,6.36,0,0,0,4-3.3Z"/><path class="cls-6" d="M67.91,53.57a8.08,8.08,0,0,1,1.26,2.91,8.44,8.44,0,0,1-.52,5,7.9,7.9,0,0,1-1.33.85,7.36,7.36,0,0,1-1.79.62A4.65,4.65,0,0,0,66,61.58a5.43,5.43,0,0,0-1.15-4.08,5.77,5.77,0,0,0-1.48-1.33,6.93,6.93,0,0,0,2.37-.77A7,7,0,0,0,67.91,53.57Z"/><path class="cls-7" d="M56.18,57a5.69,5.69,0,0,0-.61,7.45,21.63,21.63,0,0,1-7.66-.13,19.82,19.82,0,0,1-5.28-1.81,18,18,0,0,1-3.17-2.16,6.55,6.55,0,0,1-.6-2.19,7.07,7.07,0,0,1,1.4-4.75,7.68,7.68,0,0,0,.82.94c.84.82,2.53,2.08,7.84,2.6A39.56,39.56,0,0,0,56.18,57Z"/><path class="cls-8" d="M65.75,48.37a5,5,0,0,1,2.16,5.2,6.86,6.86,0,0,1-1.71,1.55,7.09,7.09,0,0,1-2.84,1.05,5.29,5.29,0,0,0-3.29-.77,5.38,5.38,0,0,0-3.45,1.82,52.18,52.18,0,0,1-6.72,0c-5.16-.36-6.8-1.25-7.76-1.95a9.12,9.12,0,0,1-1.88-1.83,4,4,0,0,1-.11-2A4.16,4.16,0,0,1,42,48.78a14.49,14.49,0,0,0,4.45,2.29,19.52,19.52,0,0,0,6.74.59,27,27,0,0,0,5.86-.61A23.07,23.07,0,0,0,65.75,48.37Z"/><path class="cls-9" d="M63.06,45.15a3.69,3.69,0,0,1,2,1.41,3.61,3.61,0,0,1,.64,1.81,25.55,25.55,0,0,1-6.33,2.82,20.41,20.41,0,0,1-12.36.23,17.56,17.56,0,0,1-5-2.64,4.69,4.69,0,0,1,3-3.45,1.92,1.92,0,0,0,.21.59c.55,1,1.92,1.3,5.47,1.45a35.22,35.22,0,0,0,6.52-.09,11,11,0,0,0,5-1.56A8.08,8.08,0,0,0,63.06,45.15Z"/><path class="cls-10" d="M59.78,42.9a4.56,4.56,0,0,1,1.84.71,4.7,4.7,0,0,1,1.44,1.54A9.19,9.19,0,0,1,60,47c-1,.34-1.61.34-5.64.49-2.32.08-2.88.11-4,.08-3.32-.08-4.39-.48-4.92-1.26a2.26,2.26,0,0,1-.36-1,3.58,3.58,0,0,1,1.07-1.49,3.52,3.52,0,0,1,1.68-.73,2,2,0,0,0,.3.4,2.44,2.44,0,0,0,1.86.54c2.51-.09,3.76-.13,4.25-.18,3.32-.33,5.4,0,5.58-.68A.45.45,0,0,0,59.78,42.9Z"/><path class="cls-11" d="M56.85,41.09a7.11,7.11,0,0,1,1.6.71,6.45,6.45,0,0,1,1.33,1.1.43.43,0,0,1,0,.29.49.49,0,0,1-.24.29,2.79,2.79,0,0,1-1.29.46c-2.66.13-4.64-.11-6.58.14a18.48,18.48,0,0,1-2.06,0,2,2,0,0,1-1.47-.4,1.41,1.41,0,0,1-.35-.6,3.77,3.77,0,0,1,.68-1A4.18,4.18,0,0,1,50.9,41Z"/><ellipse class="cls-12" cx="60.2" cy="60.99" rx="5.9" ry="5.66"/><ellipse class="cls-13" cx="59.81" cy="60.62" rx="5.51" ry="5.28"/><path class="cls-14" d="M0,36v-18H0c10.46-.3,12.65-.13,12.65-.13a41.12,41.12,0,0,1,11.86,2.59c5,2,5.58,3.58,13.27,8.68,6.68,4.43,10,6.65,14.29,7.83a29.7,29.7,0,0,0,17-.17,28.89,28.89,0,0,0,10.55-6.13c2.7-2.37,7-6.11,7.49-11.74a13.27,13.27,0,0,0,0-2.38,16,16,0,0,1-1.5,9.25,15.73,15.73,0,0,1-4,5,38,38,0,0,1,6-3.17c5.88-2.43,14.44-4.18,20.49-2.61a25.82,25.82,0,0,0,6.17,1,25.24,25.24,0,0,0,3.72-.16,19.42,19.42,0,0,1-9.25.24c-.75-.18-1-.29-1.9-.47a22.2,22.2,0,0,0-7.76,0,34,34,0,0,0-7.35,2.13,49.56,49.56,0,0,0-7.61,3.81c-8.69,5.24-13,7.86-14.9,8.66-.82.35-10.62,4.41-21.24,1.48-7.34-2-7.34-5.25-17.22-8-4.63-1.3-8.09-2.27-12.47-1.37-3.75.77-5.48,2.36-10.46,3.27A31.48,31.48,0,0,1,0,36Z"/><path class="cls-15" d="M87.18,18.19A4.77,4.77,0,0,0,84.8,16a5.89,5.89,0,0,0-4.42.47,6.9,6.9,0,0,0-.93.49,3.6,3.6,0,0,1,.68.23c1,.45,1.28,1.14,1.87,1.61a4.49,4.49,0,0,0,4.5.07A3.31,3.31,0,0,0,87.18,18.19Z"/><path class="cls-16" d="M87.25,17.91a5.3,5.3,0,0,1,1.42-1.8A5.92,5.92,0,0,1,95,15.52a5.08,5.08,0,0,1,1.26.94A1.89,1.89,0,0,0,95,16.33c-.69.21-.81.83-1.35,1.42-1.37,1.49-3.89,1.15-4.07,1.13A5.08,5.08,0,0,1,87.25,17.91Z"/><path class="cls-17" d="M86.81,22.65a6.41,6.41,0,0,1,2.77-2,6.5,6.5,0,0,1,5,.36,3.87,3.87,0,0,0,.68.35c.57.22,1,.19,1,.29s-.43.15-.87.45a2.43,2.43,0,0,0-.74.91c-.55.94-2.31,1.43-3.49,1.48A5.69,5.69,0,0,1,86.81,22.65Z"/><path class="cls-18" d="M87.15,16.85A2.77,2.77,0,0,0,87.8,15c0-1.1-.92-1.56-.78-2.63.09-.72.57-1.12.45-1.23s-.85.3-1.32.92a3.26,3.26,0,0,0-.59,2.66,3.32,3.32,0,0,0,1.25,1.88Z"/><path class="cls-19" d="M99,24.74a17.83,17.83,0,0,0,2.57-1.43c1.63-1.09,2.65-1.77,2.72-2.78,0-.57-.25-1,0-1.58a2,2,0,0,1,.82-.95,5.24,5.24,0,0,0-3.86.32,5,5,0,0,0-2.72,4.17A4.91,4.91,0,0,0,99,24.74Z"/><path class="cls-20" d="M105.85,25A4.26,4.26,0,0,1,108.57,27a4.68,4.68,0,0,1,0,3.8c-.14.32-.37.73-.51.69s0-.5-.25-.88-.94-.33-1.58-.63a3,3,0,0,1-1.45-2.6A3.35,3.35,0,0,1,105.85,25Z"/><path class="cls-21" d="M107.78,24.87a6.3,6.3,0,0,1,1-3.25,6.52,6.52,0,0,1,4.16-2.74,3.16,3.16,0,0,0,.75-.13c.59-.18.9-.46,1-.38s-.25.38-.42.89a2.44,2.44,0,0,0,0,1.17c.14,1.08-1,2.53-1.86,3.29A5.73,5.73,0,0,1,107.78,24.87Z"/><path class="cls-22" d="M116.15,30.81a2.81,2.81,0,0,0-.73-1.79c-.78-.79-1.73-.55-2.34-1.44-.41-.59-.33-1.22-.49-1.21s-.43.79-.37,1.56a3.29,3.29,0,0,0,1.34,2.38,3.32,3.32,0,0,0,2.19.56A2.87,2.87,0,0,0,116.15,30.81Z"/><path class="cls-23" d="M122.56,24.71a5.47,5.47,0,0,1-1.42,1.81,5.94,5.94,0,0,1-6.32.58,5.28,5.28,0,0,1-1.26-.94,1.89,1.89,0,0,0,1.29.13c.69-.21.82-.83,1.36-1.42,1.37-1.49,3.89-1.15,4.06-1.13A5.26,5.26,0,0,1,122.56,24.71Z"/><path class="cls-24" d="M105.14,25a12.14,12.14,0,0,0,1.58-.88c1-.67,1.63-1.09,1.67-1.72,0-.35-.15-.58,0-1a1.38,1.38,0,0,1,.51-.59,3.27,3.27,0,0,0-2.38.2,3.09,3.09,0,0,0-1.67,2.57A2.83,2.83,0,0,0,105.14,25Z"/><path class="cls-25" d="M112,26a4,4,0,0,1,.61-2,4.08,4.08,0,0,1,2.56-1.69,2.1,2.1,0,0,0,.47-.08c.36-.11.55-.28.6-.23s-.16.23-.26.54a1.46,1.46,0,0,0,0,.72,2.91,2.91,0,0,1-1.15,2A3.52,3.52,0,0,1,112,26Z"/><ellipse class="cls-26" cx="127.49" cy="103.25" rx="6.03" ry="10.18" transform="translate(-16.39 24.44) rotate(-10.29)"/><path class="cls-27" d="M103.93,129.27a10.19,10.19,0,0,0-.48-4.38,10.75,10.75,0,0,0-4.94-5.74l-1.27,6a16.6,16.6,0,0,0,3.34,3.82,14,14,0,0,0,5.9,3c.88.19,2.49.44,2.62.08s-1.78-1.48-2-1.6A12.2,12.2,0,0,0,103.93,129.27Z"/><path class="cls-28" d="M120.36,120.46c-.19.31-2-.27-3.38-1.12a11.09,11.09,0,0,1-4-4.36,12.1,12.1,0,0,1-1.38-5.32l4.12,2.71-1.69,3a28.08,28.08,0,0,1,3.24,2.11C117.69,117.83,120.62,120,120.36,120.46Z"/><path class="cls-29" d="M99.06,102.41a14.7,14.7,0,0,0-6.3.14c-5.86,1.46-8.94,6.29-10.28,8.38-6.48,10.15-1.73,22.86-1,24.67a34.54,34.54,0,0,0,10.69-5.51,35.35,35.35,0,0,0,11.17-14.62Z"/><path class="cls-30" d="M103.31,115.47a71.59,71.59,0,0,1-5.15-5.35,21.16,21.16,0,0,1-3.5-4.92,18.09,18.09,0,0,1-1.1-2.82,14.46,14.46,0,0,0-2.37.66,14.22,14.22,0,0,0-1.9.89A27.58,27.58,0,0,0,102,118.22Z"/><path class="cls-31" d="M100.74,120.53A28.41,28.41,0,0,1,95.3,117a29.48,29.48,0,0,1-8.42-11.41,24.84,24.84,0,0,0-3,3.23,23.76,23.76,0,0,0-2.16,3.34,30.64,30.64,0,0,0,6.32,7.53,27.58,27.58,0,0,0,3.74,2.71A26,26,0,0,0,97.54,125c.43-.51.87-1,1.31-1.63C99.57,122.36,100.2,121.42,100.74,120.53Z"/><path class="cls-32" d="M80.31,115.5A35.58,35.58,0,0,0,94.5,128.12a29.58,29.58,0,0,1-2.36,2A30.73,30.73,0,0,1,89.4,132a16.74,16.74,0,0,1-10.27-7.74,25.67,25.67,0,0,1,.12-3.63A25.24,25.24,0,0,1,80.31,115.5Z"/><path class="cls-33" d="M86.72,133.47A24.29,24.29,0,0,1,79.47,128a38.19,38.19,0,0,0,.75,3.75,35.3,35.3,0,0,0,1.23,3.86c.78-.25,1.61-.53,2.47-.88C84.94,134.32,85.87,133.9,86.72,133.47Z"/><ellipse class="cls-34" cx="105.41" cy="106.46" rx="7.34" ry="8.32"/><ellipse class="cls-35" cx="121.35" cy="105.41" rx="10.64" ry="12.93" transform="translate(-34.64 66.64) rotate(-27.02)"/><ellipse class="cls-36" cx="120.12" cy="103.87" rx="7.27" ry="12.31" transform="translate(-29.7 51.21) rotate(-21.48)"/><path class="cls-37" d="M105.92,119a18.49,18.49,0,0,0-.88-5.65c-1-3-2.89-6.39-3.74-6.13s-.58,4.44.32,7.64a19.72,19.72,0,0,0,1.75,4.3,25.94,25.94,0,0,0,2.71,5.26c1.21,1.8,3.91,5.73,8.36,7.25.29.1,2.34.8,2.55.4s-1-1.3-2.15-1.91-2-.52-2.54-1.23a3.48,3.48,0,0,1-.57-1.88c-.27-1.52-1-2.51-2.15-4.22A17.4,17.4,0,0,0,105.92,119Z"/><path class="cls-38" d="M97.63,131.74a12.41,12.41,0,0,1,2.79,1.11c.23.13,2.31,1.26,2.15,1.68s-1.82.14-3.18-.4a7.74,7.74,0,0,1-2.63-1.75,10.24,10.24,0,0,1-3.83-1.92,11.29,11.29,0,0,1-3.9-7.72c-.1-2.52-.14-5-.16-7.65a9.38,9.38,0,0,1,1.12-4.7,2.64,2.64,0,0,1,1-1c1.58-1,3.87.24,6.14,1.43a25.18,25.18,0,0,1,4.3,2.87l.24,1.19a34,34,0,0,1-4.5-1.45,36.93,36.93,0,0,1-4.25-2.05,26.77,26.77,0,0,1-.55,10.3c1.26.92,4.49,3.53,5.2,7.78A10.26,10.26,0,0,1,97.63,131.74Z"/><path class="cls-39" d="M111.77,117.79a19.88,19.88,0,0,0,0-2.81,14.47,14.47,0,0,0-2.25-7.46c-.51-.74-1-1.52-1.48-1.41-.75.2-.8,3.1-.35,5.35a14.16,14.16,0,0,0,4.58,7.67c2.62,2.23,5.85,3.27,6,3s-1.63-1.62-2.33-2.11A16.85,16.85,0,0,0,111.77,117.79Z"/><path class="cls-40" d="M104.59,98.19l-4.16-3.4-4.29-3.24L87.59,85c-1.44-1.08-2.87-2.16-4.32-3.19A44,44,0,0,0,78.73,79a17.37,17.37,0,0,0-4.84-2,4.12,4.12,0,0,0-4.23,2A5.4,5.4,0,0,0,69,83.83a13.32,13.32,0,0,0,2.58,4.51,31.78,31.78,0,0,0,3.73,3.79,36.65,36.65,0,0,0,4.23,3.23,33,33,0,0,0,4.71,2.48,37.55,37.55,0,0,0,5.06,1.69,43.64,43.64,0,0,0,10.62,1.39,44.42,44.42,0,0,1-10.71-1,37.58,37.58,0,0,1-5.16-1.61,35.83,35.83,0,0,1-4.84-2.42,34.52,34.52,0,0,1-4.35-3.23A33.16,33.16,0,0,1,71,88.79,13.92,13.92,0,0,1,68.29,84,6.14,6.14,0,0,1,69,78.59a5.5,5.5,0,0,1,2.14-1.89A4.53,4.53,0,0,1,74,76.34a17.93,17.93,0,0,1,5.06,2.08A60.76,60.76,0,0,1,88,84.57l8.42,6.69,4.18,3.38Z"/><path class="cls-41" d="M110.05,100l-6.9-7.6q-3.42-3.82-6.9-7.59c-2.34-2.49-4.64-5-7-7.46A23.56,23.56,0,0,0,85.5,74a6.69,6.69,0,0,0-2.17-.93,5.36,5.36,0,0,0-2.29,0,4,4,0,0,0-2,1,4,4,0,0,0-.92,2A10.89,10.89,0,0,0,78.63,81a20.64,20.64,0,0,0,5.05,8.53,23.06,23.06,0,0,0,4,3c1.45.88,2.94,1.74,4.42,2.58a77.47,77.47,0,0,0,9.23,4.43,66,66,0,0,1-9.5-3.93c-1.52-.8-3-1.6-4.52-2.45a23.89,23.89,0,0,1-4.27-3,18.47,18.47,0,0,1-3.29-4.09,21,21,0,0,1-2.16-4.78A11.84,11.84,0,0,1,77.08,76a4.93,4.93,0,0,1,1.19-2.59A5,5,0,0,1,80.78,72a6.3,6.3,0,0,1,2.8,0,7.8,7.8,0,0,1,2.52,1.1A24.31,24.31,0,0,1,90,76.63c2.37,2.49,4.69,5,6.93,7.6s4.47,5.18,6.67,7.8S107.94,97.31,110.05,100Z"/><path class="cls-42" d="M106.92,90.76A31.69,31.69,0,0,1,103,87.23a33.25,33.25,0,0,1-3.26-4.13,34.9,34.9,0,0,1-2.56-4.59,32.27,32.27,0,0,1-1.76-4.94,44.11,44.11,0,0,0,2,4.81,38.85,38.85,0,0,0,2.61,4.51A38.36,38.36,0,0,0,103.26,87,42.93,42.93,0,0,0,106.92,90.76Z"/><path class="cls-43" d="M109.7,88.15a22.66,22.66,0,0,1-3.12-4.73,23.18,23.18,0,0,1-1.92-5.34c.7,1.76,1.4,3.5,2.26,5.17S108.71,86.54,109.7,88.15Z"/><path class="cls-44" d="M115.08,85.37a18.58,18.58,0,0,1-6.6-8.85,35.87,35.87,0,0,0,2.94,4.69A35.26,35.26,0,0,0,115.08,85.37Z"/><path class="cls-45" d="M91.19,103a31.88,31.88,0,0,1-6.11-1.26,34.32,34.32,0,0,1-5.78-2.39A34.9,34.9,0,0,1,74.07,96a33.36,33.36,0,0,1-4.48-4.33,41.09,41.09,0,0,0,4.66,4.09,37.27,37.27,0,0,0,5.23,3.33,37.68,37.68,0,0,0,5.69,2.45A41.19,41.19,0,0,0,91.19,103Z"/><path class="cls-46" d="M76.36,103.26a13.09,13.09,0,0,1-6.08-5.21,38,38,0,0,0,2.89,2.79A35.14,35.14,0,0,0,76.36,103.26Z"/><path class="cls-47" d="M79,112.64a38.12,38.12,0,0,0-1.39,5.52,32.71,32.71,0,0,0-.5,5.66A36,36,0,0,0,78.79,135a28.41,28.41,0,0,1-1.6-5.5,29.7,29.7,0,0,1,.09-11.43A28.84,28.84,0,0,1,79,112.64Z"/><path class="cls-48" d="M73.93,128.09a20,20,0,0,0,.42,4.18,20.38,20.38,0,0,0,1.31,4,10.84,10.84,0,0,1-1.73-8.16Z"/><path class="cls-49" d="M74.8,140.65a17.62,17.62,0,0,1-1.21-2.87,26.13,26.13,0,0,1-.71-3A22.69,22.69,0,0,1,74,137.66C74.23,138.66,74.61,139.62,74.8,140.65Z"/><path class="cls-50" d="M134,115.07a17.7,17.7,0,0,1-10,7.82l0-.37a20.78,20.78,0,0,1,3.77.25,3,3,0,0,1,1.8.81,1,1,0,0,1,0,1.06,3.32,3.32,0,0,1-.62.76,17.63,17.63,0,0,1-3.15,2.1c-1.11.59-2.24,1.12-3.38,1.63,1.11-.57,2.21-1.17,3.28-1.81a16.37,16.37,0,0,0,3-2.14c.4-.41.88-1,.54-1.4a2.81,2.81,0,0,0-1.58-.66,22.9,22.9,0,0,0-3.71-.22l-1.24,0,1.18-.35A19,19,0,0,0,134,115.07Z"/><path class="cls-51" d="M140.26,101.87a6.34,6.34,0,0,1,0,3,6.45,6.45,0,0,1-1.39,2.7,14.59,14.59,0,0,0,1-2.79A13.6,13.6,0,0,0,140.26,101.87Z"/><ellipse class="cls-52" cx="119.16" cy="100.43" rx="2.73" ry="6.52" transform="translate(-34.25 73.03) rotate(-30)"/><path class="cls-13" d="M132.77,78.93a17.37,17.37,0,0,0,.88,3.62A5,5,0,0,0,135,84.9c.44.38,1.44,1.06,1.91.75.65-.44-.09-2.61-.52-3.88-.84-2.46-2-5.73-3.31-5.69-.85,0-1.52,1.37-3,5.81-.91,2.81-2,6.66-3.07,11.36l.44.11.37.14A68.23,68.23,0,0,1,130,85.71,70.65,70.65,0,0,1,132.77,78.93Z"/><path class="cls-13" d="M124.83,77.43c.37,1.09.75,2,1,2.61,1,2.08,1.53,2.52,2,2.72.19.07.85.34,1.16,0s-.14-1.71-1-3.7a16.14,16.14,0,0,0-1.87-3.18c-1-1.33-1.4-1.35-1.55-1.33-.48.05-.95.67-1.39,2.37a21.1,21.1,0,0,0-.06,8.85q.67,4.26,1.38,7.83l.46-.22c-.34-2.42-.53-4.47-.65-6a34.89,34.89,0,0,1-.1-6.53A26.61,26.61,0,0,1,124.83,77.43Z"/></svg>