<svg id="Calque_1" data-name="Calque 1" xmlns="http://www.w3.org/2000/svg" xmlns:xlink="http://www.w3.org/1999/xlink" viewBox="0 0 146.95 146.97"><defs><style>.cls-1{fill:#f9ecd8;}.cls-2{fill:url(#Dégradé_sans_nom_41);}.cls-3{fill:url(#Dégradé_sans_nom_21);}.cls-4{fill:url(#Dégradé_sans_nom_21-2);}.cls-5{fill:url(#Dégradé_sans_nom_21-3);}.cls-6{fill:url(#Dégradé_sans_nom_21-4);}.cls-7{fill:url(#Dégradé_sans_nom_21-5);}.cls-8{fill:url(#Dégradé_sans_nom_21-6);}.cls-9{fill:url(#Dégradé_sans_nom_21-7);}.cls-10{fill:#1d1d1b;}.cls-11{fill:none;stroke:#1d1d1b;stroke-miterlimit:10;stroke-width:0.15px;}.cls-12{fill:url(#Dégradé_sans_nom_21-8);}.cls-13{fill:url(#Dégradé_sans_nom_21-9);}.cls-14{fill:url(#Dégradé_sans_nom_21-10);}.cls-15{fill:url(#Dégradé_sans_nom_21-11);}.cls-16{fill:url(#Dégradé_sans_nom_55);}.cls-17{fill:url(#Dégradé_sans_nom_55-2);}.cls-18{fill:url(#Dégradé_sans_nom_55-3);}.cls-19{fill:url(#Dégradé_sans_nom_29);}.cls-20{fill:url(#Dégradé_sans_nom_55-4);}.cls-21{fill:url(#Dégradé_sans_nom_55-5);}.cls-22{fill:url(#Dégradé_sans_nom_55-6);}.cls-23{fill:url(#Dégradé_sans_nom_55-7);}.cls-24{fill:url(#Dégradé_sans_nom_55-8);}.cls-25{fill:url(#Dégradé_sans_nom_80);}.cls-26{fill:url(#Dégradé_sans_nom_55-9);}.cls-27{fill:url(#Dégradé_sans_nom_55-10);}.cls-28{fill:url(#Dégradé_sans_nom_55-11);}.cls-29{fill:url(#Dégradé_sans_nom_55-12);}.cls-30{fill:url(#Dégradé_sans_nom_55-13);}.cls-31{fill:url(#Dégradé_sans_nom_55-14);}.cls-32{fill:url(#Dégradé_sans_nom_55-15);}.cls-33{fill:url(#Dégradé_sans_nom_55-16);}.cls-34{fill:url(#Dégradé_sans_nom_55-17);}.cls-35{fill:url(#Dégradé_sans_nom_55-18);}.cls-36{fill:url(#Dégradé_sans_nom_55-19);}.cls-37{fill:url(#Dégradé_sans_nom_55-20);}.cls-38{fill:url(#Dégradé_sans_nom_55-21);}.cls-39{fill:url(#Dégradé_sans_nom_55-22);}.cls-40{fill:url(#Dégradé_sans_nom_55-23);}.cls-41{fill:url(#Dégradé_sans_nom_55-24);}.cls-42{fill:#fff;}</style><linearGradient id="Dégradé_sans_nom_41" x1="43.04" y1="-125.73" x2="23.08" y2="-91.16" gradientTransform="matrix(-0.68, -0.08, -0.04, 0.32, 110.32, 177.09)" gradientUnits="userSpaceOnUse"><stop offset="0" stop-color="#5d4229"/><stop offset="1" stop-color="#7b5a2f"/></linearGradient><linearGradient id="Dégradé_sans_nom_21" x1="45.58" y1="141.45" x2="16.29" y2="90.71" gradientTransform="matrix(-0.99, -0.12, -0.12, 0.99, 140.36, -0.35)" gradientUnits="userSpaceOnUse"><stop offset="0.14" stop-color="#72c6ce"/><stop offset="0.5" stop-color="#2773ba"/><stop offset="1" stop-color="#2b2b6a"/></linearGradient><linearGradient id="Dégradé_sans_nom_21-2" x1="-9.38" y1="140.3" x2="-16.14" y2="128.59" xlink:href="#Dégradé_sans_nom_21"/><linearGradient id="Dégradé_sans_nom_21-3" x1="-5.87" y1="138.27" x2="-15.08" y2="122.32" xlink:href="#Dégradé_sans_nom_21"/><linearGradient id="Dégradé_sans_nom_21-4" x1="44.88" y1="107.55" x2="44.88" y2="150.7" xlink:href="#Dégradé_sans_nom_21"/><linearGradient id="Dégradé_sans_nom_21-5" x1="-1.88" y1="109.75" x2="43.8" y2="64.07" xlink:href="#Dégradé_sans_nom_21"/><linearGradient id="Dégradé_sans_nom_21-6" x1="30.09" y1="113.4" x2="30.09" y2="65.46" xlink:href="#Dégradé_sans_nom_21"/><linearGradient id="Dégradé_sans_nom_21-7" x1="43.61" y1="119.53" x2="39.96" y2="113.2" xlink:href="#Dégradé_sans_nom_21"/><linearGradient id="Dégradé_sans_nom_21-8" x1="53.64" y1="95.81" x2="72.89" y2="115.06" xlink:href="#Dégradé_sans_nom_21"/><linearGradient id="Dégradé_sans_nom_21-9" x1="20.38" y1="117.16" x2="20.38" y2="128.88" xlink:href="#Dégradé_sans_nom_21"/><linearGradient id="Dégradé_sans_nom_21-10" x1="59.47" y1="120.03" x2="59.47" y2="108.69" xlink:href="#Dégradé_sans_nom_21"/><linearGradient id="Dégradé_sans_nom_21-11" x1="52.29" y1="148.44" x2="52.29" y2="120.58" xlink:href="#Dégradé_sans_nom_21"/><linearGradient id="Dégradé_sans_nom_55" x1="-119.65" y1="59.91" x2="-113.41" y2="59.91" gradientTransform="matrix(0, -1.11, -0.81, 0, 98.18, -94.13)" gradientUnits="userSpaceOnUse"><stop offset="0" stop-color="#7f5e19"/><stop offset="0.23"/><stop offset="1"/></linearGradient><linearGradient id="Dégradé_sans_nom_55-2" x1="-124.68" y1="28.92" x2="-117.84" y2="28.92" gradientTransform="matrix(-0.96, -0.27, -0.27, 0.96, -76.36, -16.01)" xlink:href="#Dégradé_sans_nom_55"/><linearGradient id="Dégradé_sans_nom_55-3" x1="-131.17" y1="22.82" x2="-126.11" y2="22.82" gradientTransform="matrix(-0.96, -0.27, -0.27, 0.96, -76.36, -16.01)" xlink:href="#Dégradé_sans_nom_55"/><linearGradient id="Dégradé_sans_nom_29" x1="-117.87" y1="28.78" x2="-107.58" y2="19.37" gradientTransform="matrix(-0.96, -0.27, -0.27, 0.96, -76.36, -16.01)" gradientUnits="userSpaceOnUse"><stop offset="0" stop-color="#f7dcb4"/><stop offset="0.36" stop-color="#fab743"/><stop offset="0.7" stop-color="#7f5e19"/></linearGradient><linearGradient id="Dégradé_sans_nom_55-4" x1="-121.6" y1="23.53" x2="-113.49" y2="16.12" gradientTransform="matrix(-0.96, -0.27, -0.27, 0.96, -76.36, -16.01)" xlink:href="#Dégradé_sans_nom_55"/><linearGradient id="Dégradé_sans_nom_55-5" x1="-118.89" y1="27.54" x2="-109.95" y2="19.36" gradientTransform="matrix(-0.96, -0.27, -0.27, 0.96, -76.36, -16.01)" xlink:href="#Dégradé_sans_nom_55"/><linearGradient id="Dégradé_sans_nom_55-6" x1="-114.66" y1="32.07" x2="-106.58" y2="24.69" gradientTransform="matrix(-0.96, -0.27, -0.27, 0.96, -76.36, -16.01)" xlink:href="#Dégradé_sans_nom_55"/><linearGradient id="Dégradé_sans_nom_55-7" x1="-110.78" y1="34.49" x2="-106.93" y2="30.98" gradientTransform="matrix(-0.96, -0.27, -0.27, 0.96, -76.36, -16.01)" xlink:href="#Dégradé_sans_nom_55"/><linearGradient id="Dégradé_sans_nom_55-8" x1="-125.87" y1="20.87" x2="-119.23" y2="14.8" gradientTransform="matrix(0, -1, -1, 0, 54.82, -88.68)" xlink:href="#Dégradé_sans_nom_55"/><radialGradient id="Dégradé_sans_nom_80" cx="-131.73" cy="17.23" r="6.82" gradientTransform="matrix(-0.89, -0.45, -0.45, 0.89, -63.52, -39.46)" gradientUnits="userSpaceOnUse"><stop offset="0" stop-color="#f4bc5d"/><stop offset="0.42" stop-color="#e5a93d"/><stop offset="0.99" stop-color="#7f5e19"/></radialGradient><linearGradient id="Dégradé_sans_nom_55-9" x1="-91.43" y1="38.75" x2="-85.18" y2="38.75" gradientTransform="matrix(-1.34, 0, 0, 0.98, -72.95, -3.2)" xlink:href="#Dégradé_sans_nom_55"/><linearGradient id="Dégradé_sans_nom_55-10" x1="-129.23" y1="25.46" x2="-119.87" y2="25.46" gradientTransform="matrix(-0.96, -0.27, -0.27, 0.96, -76.36, -16.01)" xlink:href="#Dégradé_sans_nom_55"/><linearGradient id="Dégradé_sans_nom_55-11" x1="-120.92" y1="26.71" x2="-113.02" y2="26.71" gradientTransform="matrix(-0.96, -0.27, -0.27, 0.96, -76.36, -16.01)" xlink:href="#Dégradé_sans_nom_55"/><linearGradient id="Dégradé_sans_nom_55-12" x1="-129.99" y1="22.25" x2="-123.7" y2="22.25" gradientTransform="matrix(-0.96, -0.27, -0.27, 0.96, -76.36, -16.01)" xlink:href="#Dégradé_sans_nom_55"/><linearGradient id="Dégradé_sans_nom_55-13" x1="33.9" y1="31.6" x2="21.8" y2="12.3" gradientTransform="matrix(1, 0, 0, 1, 0, 0)" xlink:href="#Dégradé_sans_nom_55"/><linearGradient id="Dégradé_sans_nom_55-14" x1="38.85" y1="32.12" x2="26.14" y2="11.86" gradientTransform="matrix(1, 0, 0, 1, 0, 0)" xlink:href="#Dégradé_sans_nom_55"/><linearGradient id="Dégradé_sans_nom_55-15" x1="41.42" y1="24.64" x2="35.25" y2="14.8" gradientTransform="matrix(1, 0, 0, 1, 0, 0)" xlink:href="#Dégradé_sans_nom_55"/><linearGradient id="Dégradé_sans_nom_55-16" x1="43.18" y1="23.76" x2="39.92" y2="18.57" gradientTransform="matrix(1, 0, 0, 1, 0, 0)" xlink:href="#Dégradé_sans_nom_55"/><linearGradient id="Dégradé_sans_nom_55-17" x1="46.08" y1="23.35" x2="42.73" y2="18.01" gradientTransform="matrix(1, 0, 0, 1, 0, 0)" xlink:href="#Dégradé_sans_nom_55"/><linearGradient id="Dégradé_sans_nom_55-18" x1="28.08" y1="30.82" x2="20.8" y2="19.22" gradientTransform="matrix(1, 0, 0, 1, 0, 0)" xlink:href="#Dégradé_sans_nom_55"/><linearGradient id="Dégradé_sans_nom_55-19" x1="21.17" y1="27.77" x2="18.7" y2="23.82" gradientTransform="matrix(1, 0, 0, 1, 0, 0)" xlink:href="#Dégradé_sans_nom_55"/><linearGradient id="Dégradé_sans_nom_55-20" x1="21.9" y1="43.15" x2="17.23" y2="35.7" gradientTransform="matrix(1, 0, 0, 1, 0, 0)" xlink:href="#Dégradé_sans_nom_55"/><linearGradient id="Dégradé_sans_nom_55-21" x1="17.09" y1="45.13" x2="14.94" y2="41.72" gradientTransform="matrix(1, 0, 0, 1, 0, 0)" xlink:href="#Dégradé_sans_nom_55"/><linearGradient id="Dégradé_sans_nom_55-22" x1="15.5" y1="47.73" x2="13.79" y2="45" gradientTransform="matrix(1, 0, 0, 1, 0, 0)" xlink:href="#Dégradé_sans_nom_55"/><linearGradient id="Dégradé_sans_nom_55-23" x1="48.09" y1="47.43" x2="46.14" y2="44.32" gradientTransform="matrix(1, 0, 0, 1, 0, 0)" xlink:href="#Dégradé_sans_nom_55"/><linearGradient id="Dégradé_sans_nom_55-24" x1="56.72" y1="38.95" x2="55.75" y2="37.41" gradientTransform="matrix(1, 0, 0, 1, 0, 0)" xlink:href="#Dégradé_sans_nom_55"/></defs><rect class="cls-1" width="146.95" height="146.95"/><path class="cls-2" d="M92.73,147q-1.65-6.74-3.29-13.49l1.33-.32L94.13,147Z" transform="translate(-0.45)"/><path class="cls-3" d="M64.41,124c-.84-3.67,15.15-10.26,14.22-12.47-.2-.48-1.12-.43-1.39-.53a65.1,65.1,0,0,1-17.33-10.1c14-8.08,26.13-9.56,33.17-9.74,20.57-.54,42.49,9,42.22,16-.09,2.27-2.45,2.09-5.64,6.91-5,7.58-2.18,12.54-6.45,18.48-2.57,3.58-7.22,6.83-12.17,7.25-8.17.71-10.27-7.4-22-11.48C75.76,123.64,65.09,126.92,64.41,124Z" transform="translate(-0.45)"/><path class="cls-4" d="M136.33,125.79a16.06,16.06,0,0,1,4.41,6.32c.68,1.82,1.57,4.21.51,6.12-.53,1-1.1,1-1.51,2.12-.65,1.78.2,3.26-.45,3.7-.24.17-.72.19-1.72-.42l-4-17.29Z" transform="translate(-0.45)"/><path class="cls-5" d="M126.68,124.81a11.39,11.39,0,0,1,3.24,2.65c2,2.37,2.29,4.81,2.91,7a25.72,25.72,0,0,0,4.74,9.14c0-.49,0-1.26,0-2.2a35.85,35.85,0,0,0-.57-4.76c-.42-2.38-.24-3.16-.54-9.36-.09-1.89-.24-4.62-.5-8Z" transform="translate(-0.45)"/><path class="cls-6" d="M113.37,110.37a55.47,55.47,0,0,0,9.95,4.91c7.48,2.68,12.31,2.29,12.59,4.07s-3.85,4.57-7.87,5.29-7.66-.87-10.26.91a3.82,3.82,0,0,1-2.45.87c-1.09-.08-1.41-.77-2.24-.85-1.49-.15-2.63,1.89-3.69,3.06-2.37,2.62-5.92,2.62-8.76,3-7,1-8.09,4.41-17.11,7.5-2.72.93-19.93,6.82-26.74-.12-1.72-1.75-2.58-4.12-5.62-5.17s-4.21.5-7.34-.69c-2.81-1.07-2.64-2.62-5.95-4-2.54-1.09-3.06-.37-5.51-1.25-3.92-1.42-7.74-5.15-7.1-7.5.44-1.64,2.67-1.23,5.3-3.46s2.42-4.15,4.3-8.07C36,106.51,39.61,99,45,98c2.92-.53,4.38,1.26,8.26,2.75,6.6,2.54,11.54.86,18.13.25C88.56,99.38,105.68,106.08,113.37,110.37Z" transform="translate(-0.45)"/><path class="cls-7" d="M95.52,113.5c2.2-.33,3.93-1.87,7.44-1.41a14.86,14.86,0,0,1,4.08,1.38c5.09,2,10.47,0,14-1.31s2.74-1.91,10.58-6.87,11.39-6.1,12.55-10c.48-1.63-.18-1.29.28-5.28.62-5.43,1.91-6.71,1.77-10.24a15.23,15.23,0,0,0-1.86-6.6c-1.85-3.46-5.8-7.7-9.91-7.4-1.3.09-1.18.54-2.92.71a14,14,0,0,1-7.09-1.4c-1.32-.55-8.14-3.28-15.11-2.67-2.81.24-6.15,1.07-9-.94a8.74,8.74,0,0,1-1-.85c-3.59-3.11-17.2,0-24.2,9.65-4.25,5.88-6.82,15.25-3,21.39,1.31,2.1,2.09,1.79,6,5C88.72,105.45,90.26,114.27,95.52,113.5Z" transform="translate(-0.45)"/><path class="cls-8" d="M114,62.45a33.21,33.21,0,0,0-16.52,9.17A34.43,34.43,0,0,0,88.4,91.87c-.72,6.85.53,15.77.48,15.77v0c-.14-.68-2.86-13.51-.11-25.25C91.71,69.74,99.89,63,103,62.62c.35,0,2.28-.23,4.16-.39a27,27,0,0,1,3.84-.14A20,20,0,0,1,114,62.45Z" transform="translate(-0.45)"/><path class="cls-9" d="M96.33,114.89c.13-.48-1.9-.82-5.42-3.57s-3.9-4.39-6.21-5.85c-1.84-1.16-4.91-2.36-10-1.76a17.26,17.26,0,0,0,3.34,5.5C84.58,116.38,96,116,96.33,114.89Z" transform="translate(-0.45)"/><ellipse class="cls-10" cx="93.68" cy="88.45" rx="0.91" ry="0.58" transform="translate(-5.83 170.82) rotate(-83.1)"/><ellipse class="cls-10" cx="91.28" cy="88.04" rx="1.02" ry="0.45" transform="translate(-7.55 168.08) rotate(-83.1)"/><circle class="cls-10" cx="88.42" cy="88.88" r="0.64"/><circle class="cls-10" cx="85.68" cy="88.99" r="0.44"/><ellipse class="cls-10" cx="86.17" cy="91.36" rx="0.68" ry="0.32" transform="translate(-15.34 165.92) rotate(-83.1)"/><ellipse class="cls-10" cx="88.65" cy="93.4" rx="0.65" ry="0.32" transform="translate(-15.19 170.18) rotate(-83.1)"/><circle class="cls-10" cx="91.3" cy="92.54" r="0.49"/><ellipse class="cls-10" cx="93.77" cy="91.11" rx="0.74" ry="0.41" transform="translate(-8.4 173.25) rotate(-83.1)"/><circle class="cls-10" cx="94.18" cy="92.89" r="0.49"/><ellipse class="cls-10" cx="93.35" cy="96.32" rx="0.68" ry="0.21" transform="translate(-13.94 177.42) rotate(-83.1)"/><ellipse class="cls-10" cx="91.37" cy="96.68" rx="0.88" ry="0.38" transform="translate(-16.05 175.77) rotate(-83.1)"/><ellipse class="cls-10" cx="92.21" cy="98.22" rx="0.9" ry="0.29" transform="translate(-16.84 177.96) rotate(-83.1)"/><circle class="cls-10" cx="93.79" cy="96.59" r="0.44"/><ellipse class="cls-10" cx="95.69" cy="94.56" rx="0.95" ry="0.25" transform="translate(-10.14 178.19) rotate(-83.1)"/><ellipse class="cls-10" cx="97.53" cy="94.58" rx="0.75" ry="0.33" transform="translate(-8.54 180.03) rotate(-83.1)"/><ellipse class="cls-10" cx="99.39" cy="92.87" rx="1.08" ry="0.38" transform="translate(-5.21 180.38) rotate(-83.1)"/><ellipse class="cls-10" cx="98.51" cy="93.02" rx="0.83" ry="0.46" transform="translate(-6.12 179.63) rotate(-83.1)"/><circle class="cls-10" cx="101.73" cy="94.87" r="0.48"/><ellipse class="cls-10" cx="99.98" cy="95.94" rx="0.5" ry="0.33" transform="translate(-7.73 183.66) rotate(-83.1)"/><circle class="cls-10" cx="97.62" cy="96.68" r="0.47"/><circle class="cls-10" cx="98.92" cy="99.95" r="0.45"/><circle class="cls-10" cx="97.08" cy="104.64" r="0.43"/><ellipse class="cls-10" cx="97.21" cy="101.85" rx="0.6" ry="0.23" transform="translate(-16.05 186.11) rotate(-83.1)"/><ellipse class="cls-10" cx="80.98" cy="88.96" rx="0.59" ry="0.2" transform="translate(-17.52 158.66) rotate(-83.1)"/><ellipse class="cls-10" cx="80.24" cy="90.06" rx="0.58" ry="0.4" transform="translate(-19.26 158.89) rotate(-83.1)"/><path class="cls-10" d="M78,90.42c0,.34.06.64.22.66s.34-.24.38-.59-.06-.64-.23-.66S78,90.07,78,90.42Z" transform="translate(-0.45)"/><circle class="cls-10" cx="79.67" cy="91.87" r="0.5"/><ellipse class="cls-10" cx="81.07" cy="91.39" rx="0.59" ry="0.38" transform="translate(-19.85 160.88) rotate(-83.1)"/><circle class="cls-10" cx="82.79" cy="95.25" r="0.36"/><ellipse class="cls-10" cx="84.99" cy="93.04" rx="0.58" ry="0.21" transform="translate(-18.04 166.22) rotate(-83.1)"/><circle class="cls-10" cx="83.84" cy="91.56" r="0.26"/><circle class="cls-10" cx="86.56" cy="93.17" r="0.46"/><ellipse class="cls-10" cx="80.19" cy="94.26" rx="0.62" ry="0.35" transform="translate(-23.48 162.54) rotate(-83.1)"/><ellipse class="cls-10" cx="80.44" cy="95.84" rx="0.4" ry="0.09" transform="translate(-24.83 164.18) rotate(-83.1)"/><ellipse class="cls-10" cx="82.11" cy="98.39" rx="0.53" ry="0.2" transform="translate(-25.89 168.07) rotate(-83.1)"/><ellipse class="cls-10" cx="80.68" cy="97.99" rx="0.75" ry="0.41" transform="translate(-26.74 166.31) rotate(-83.1)"/><circle class="cls-10" cx="86.27" cy="99.41" r="0.46"/><ellipse class="cls-10" cx="88.27" cy="97.07" rx="0.43" ry="0.25" transform="translate(-19.15 173.03) rotate(-83.1)"/><path class="cls-10" d="M85.57,97.34c0,.26,0,.49.17.5s.26-.18.29-.44,0-.49-.17-.5S85.6,97.08,85.57,97.34Z" transform="translate(-0.45)"/><ellipse class="cls-10" cx="83.95" cy="97.15" rx="0.48" ry="0.33" transform="translate(-23.04 168.81) rotate(-83.1)"/><ellipse class="cls-10" cx="84.5" cy="99.76" rx="0.55" ry="0.33" transform="translate(-25.15 171.66) rotate(-83.1)"/><circle class="cls-10" cx="90.26" cy="100.54" r="0.19"/><circle class="cls-10" cx="91.03" cy="104.2" r="0.29"/><ellipse class="cls-10" cx="94.57" cy="100.45" rx="0.55" ry="0.15" transform="translate(-16.98 182.26) rotate(-83.1)"/><circle class="cls-10" cx="93.24" cy="100.3" r="0.05"/><ellipse class="cls-10" cx="94.93" cy="101.88" rx="0.3" ry="0.53" transform="translate(-18.08 183.87) rotate(-83.1)"/><circle class="cls-10" cx="93.36" cy="102.14" r="0.39"/><ellipse class="cls-10" cx="95.59" cy="103.72" rx="0.69" ry="0.23" transform="translate(-19.32 186.14) rotate(-83.1)"/><ellipse class="cls-10" cx="94.68" cy="103.52" rx="0.6" ry="0.33" transform="translate(-19.92 185.07) rotate(-83.1)"/><ellipse class="cls-10" cx="92.17" cy="102.68" rx="0.62" ry="0.21" transform="translate(-21.3 181.83) rotate(-83.1)"/><ellipse class="cls-10" cx="90.53" cy="103.61" rx="0.76" ry="0.38" transform="translate(-23.66 181.03) rotate(-83.1)"/><ellipse class="cls-10" cx="92.79" cy="107.81" rx="0.49" ry="0.34" transform="translate(-25.85 186.97) rotate(-83.1)"/><ellipse class="cls-10" cx="91.92" cy="106.44" rx="0.51" ry="0.21" transform="translate(-25.26 184.9) rotate(-83.1)"/><ellipse class="cls-10" cx="93.99" cy="105.68" rx="0.49" ry="0.6" transform="translate(-22.67 186.29) rotate(-83.1)"/><path class="cls-10" d="M91,105.91l0,.42,0-.42.05-.42Z" transform="translate(-0.45)"/><path class="cls-11" d="M93.58,88.8q-1.32,2.82-2.71,5.67-2.53,5.22-5.11,10.22" transform="translate(-0.45)"/><path class="cls-11" d="M91.24,88.55c-.25.92-.51,1.86-.79,2.8a102.43,102.43,0,0,1-4.92,13.12" transform="translate(-0.45)"/><path class="cls-11" d="M88.93,89.21a22.74,22.74,0,0,0-.53,2.66,23.68,23.68,0,0,0,.17,7.55" transform="translate(-0.45)"/><path class="cls-11" d="M88.59,93.7a34.22,34.22,0,0,1-1.86,11.91" transform="translate(-0.45)"/><path class="cls-11" d="M84.48,99.93A5,5,0,0,1,84.6,101a5.4,5.4,0,0,1-.43,2.11" transform="translate(-0.45)"/><path class="cls-11" d="M83.83,97.22a9.18,9.18,0,0,0-.55,1.17,8.66,8.66,0,0,0-.54,3.34" transform="translate(-0.45)"/><path class="cls-11" d="M80.75,98.37a1.58,1.58,0,0,0-.19.78,1,1,0,0,0,0,.32" transform="translate(-0.45)"/><path class="cls-11" d="M80,94.61c-.05.36-.1.72-.13,1.09a26.93,26.93,0,0,0-.15,2.75" transform="translate(-0.45)"/><path class="cls-11" d="M83.2,95.44c-.21.44-.4.91-.58,1.41a20.27,20.27,0,0,0-1,3.83" transform="translate(-0.45)"/><path class="cls-11" d="M80,92.13a7.19,7.19,0,0,0-.73,1.31,7.51,7.51,0,0,0-.48,3.85" transform="translate(-0.45)"/><path class="cls-11" d="M80.22,90.41a6.28,6.28,0,0,0-.55.91,9.18,9.18,0,0,0-.38,6.6" transform="translate(-0.45)"/><path class="cls-11" d="M94.42,100.82a9,9,0,0,1-.34,1.81,10.53,10.53,0,0,1-4.46,5.71" transform="translate(-0.45)"/><path class="cls-11" d="M95,102.18a13.22,13.22,0,0,1-.64,1.73A13.71,13.71,0,0,1,90.3,109" transform="translate(-0.45)"/><path class="cls-11" d="M92.9,108a2.18,2.18,0,0,0-1.48.62,2.09,2.09,0,0,0-.52.92" transform="translate(-0.45)"/><path class="cls-11" d="M95.65,103.87a6,6,0,0,0-3.47,1.32A6.16,6.16,0,0,0,90,108.73" transform="translate(-0.45)"/><path class="cls-11" d="M97.38,104.63c-.84.51-1.69,1.05-2.55,1.6-1.5,1-2.94,2-4.31,3" transform="translate(-0.45)"/><path class="cls-11" d="M94,105.89a6.57,6.57,0,0,0-4.41,1.72c-.13.12-.24.25-.35.37" transform="translate(-0.45)"/><path class="cls-11" d="M97.22,102.09a10.59,10.59,0,0,1-1.44,2.49,11.54,11.54,0,0,1-6,3.94" transform="translate(-0.45)"/><path class="cls-11" d="M93.69,102.3c-.3.41-.62.84-1,1.26a31.87,31.87,0,0,1-3.86,4.08" transform="translate(-0.45)"/><path class="cls-11" d="M91.41,104.32a6.43,6.43,0,0,0-.73.44,6.35,6.35,0,0,0-2.08,2.62" transform="translate(-0.45)"/><path class="cls-11" d="M92.09,102.88a5.68,5.68,0,0,0-3.34,1.41,5.39,5.39,0,0,0-1.37,1.94" transform="translate(-0.45)"/><path class="cls-11" d="M90.63,103.79a4.5,4.5,0,0,0-1.48.79,4.44,4.44,0,0,0-1.39,2" transform="translate(-0.45)"/><path class="cls-11" d="M99.37,100a10.09,10.09,0,0,0-2.63.37c-4.89,1.33-7.31,5.88-8,7.23" transform="translate(-0.45)"/><path class="cls-11" d="M98,96.91a16.74,16.74,0,0,0-4.69,2.73c-3.59,3-5.3,7.19-5.13,7.29a14.35,14.35,0,0,0,3.12-5,16.54,16.54,0,0,0,.94-3.1" transform="translate(-0.45)"/><path class="cls-11" d="M94.24,96.59a29.38,29.38,0,0,1-5.13,5.11,30.25,30.25,0,0,1-3.83,2.53,8.86,8.86,0,0,1,.17-1.87,9,9,0,0,1,1.11-2.8" transform="translate(-0.45)"/><path class="cls-11" d="M93.48,96.68a16.2,16.2,0,0,0-3.38,3.23,16.63,16.63,0,0,0-3,6.06,17.69,17.69,0,0,1,3.05-4.47,18.68,18.68,0,0,1,9.77-5.37" transform="translate(-0.45)"/><path class="cls-11" d="M90.66,100.62c-.33.76-.69,1.54-1.06,2.33-.59,1.22-1.18,2.37-1.78,3.46" transform="translate(-0.45)"/><path class="cls-11" d="M99.39,92.87A24,24,0,0,1,92.65,101a23.7,23.7,0,0,1-6.89,3.68" transform="translate(-0.45)"/><path class="cls-11" d="M98.51,93c-6.45,1.44-11.23,5-11.94,9.45a7.52,7.52,0,0,0,.16,3.14c.66-1.53,3.35-7.21,9.59-9.65a16.2,16.2,0,0,1,5.86-1.09" transform="translate(-0.45)"/><path class="cls-11" d="M95.69,94.56a76.64,76.64,0,0,1-6.8,5.94c-1.46,1.13-2.9,2.15-4.29,3.07" transform="translate(-0.45)"/><path class="cls-11" d="M97.53,94.58c-.43-.06-7.9-.93-11.61,4.17a9.76,9.76,0,0,0-1.75,4.4" transform="translate(-0.45)"/><path class="cls-11" d="M91.37,96.68a18,18,0,0,0-5.23,5,16.63,16.63,0,0,0-1.24,2.13" transform="translate(-0.45)"/><path class="cls-11" d="M94.36,92.87a34,34,0,0,1-5.46,6.84,33.16,33.16,0,0,1-4.51,3.65" transform="translate(-0.45)"/><path class="cls-11" d="M93.41,91.56A23.77,23.77,0,0,0,87,95.92c-.73.71-1.3,1.37-1.43,1.53a23,23,0,0,0-2.87,4.28" transform="translate(-0.45)"/><path class="cls-11" d="M85.81,97.64a11.64,11.64,0,0,1-.66,1.41,12.13,12.13,0,0,1-2.21,2.88" transform="translate(-0.45)"/><path class="cls-11" d="M88,97.28l-.79.81a54,54,0,0,0-3.78,4.37" transform="translate(-0.45)"/><path class="cls-11" d="M91.92,93c-.44,1.77-2.06,7.37-6.74,9.26a8.34,8.34,0,0,1-1.46.44" transform="translate(-0.45)"/><path class="cls-11" d="M87,93.17a25,25,0,0,0-4.71,8.11" transform="translate(-0.45)"/><path class="cls-11" d="M86.17,91.36a7.6,7.6,0,0,0-2.66,2c-2.55,3-1.65,7-1.51,7.61" transform="translate(-0.45)"/><path class="cls-11" d="M85,93.29a19.23,19.23,0,0,1-1.08,2.85,19,19,0,0,1-2.64,4.07" transform="translate(-0.45)"/><path class="cls-11" d="M80.51,96a6.81,6.81,0,0,0-.32,1.28,6.88,6.88,0,0,0-.06,1.66" transform="translate(-0.45)"/><path class="cls-11" d="M84.32,91.3a6,6,0,0,0-3.19,2.46c-1.76,2.82-.22,6-.13,6.15" transform="translate(-0.45)"/><path class="cls-11" d="M86.08,89.19a4.56,4.56,0,0,0-1.93,1c-1.62,1.48-1.09,3.47-2.6,5.65a7.29,7.29,0,0,1-2.26,2.08" transform="translate(-0.45)"/><path class="cls-11" d="M81.18,91.61a29.89,29.89,0,0,0,.31,3.58,31.24,31.24,0,0,0,2,7.27" transform="translate(-0.45)"/><path class="cls-11" d="M81,89a6,6,0,0,1,1,4.9A5.91,5.91,0,0,1,79,97.53" transform="translate(-0.45)"/><path class="cls-11" d="M78.35,90.7a10,10,0,0,0,.07,4.65,9.85,9.85,0,0,0,1.71,3.57" transform="translate(-0.45)"/><path class="cls-12" d="M96.33,114.89c.19-.25-2-2.18-7.18-7-8.53-8-10.81-10.54-12.6-14.4-1.1-2.36-.67-2.31-1.63-4-3.07-5.39-8.47-7.69-12.38-9.31-6.28-2.58-6.43-.94-13.27-3.71-5.29-2.15-7.75-4.17-9.34-3-1.41,1-1.09,3.72-.68,7.3.31,2.65.65,5.56,2.56,8.54.36.57,1.07,1.59,6.62,6.29,2.81,2.37,3.18,3.45,4.8,4,2.21.69,3.26-.25,5.93-.13,2.91.13,3.4,1.33,7.26,2.78,5.39,2,6.87.62,14.2,3a20.85,20.85,0,0,1,4.53,1.91c2.3,1.34,2.85,2.32,5.49,4.35S96.12,115.15,96.33,114.89Z" transform="translate(-0.45)"/><path class="cls-13" d="M115.33,126.42a2.27,2.27,0,0,1-.84-.16,2.48,2.48,0,0,1-.72-.47c-2.74-2.55-4.11-3.83-4.35-4.15-1.13-1.45-4.35-3.59-13.09-6.75l-1.14-1.35c.21,0,.53-.08.92-.16a10.51,10.51,0,0,0,2-.66c1.31-.49,3.2,1,4.3,1.81,5.9,4.51,4.68,3.24,6.19,4.63A60.93,60.93,0,0,1,115.33,126.42Z" transform="translate(-0.45)"/><path class="cls-14" d="M84.17,113.53a28.89,28.89,0,0,1-8-1.1,30.41,30.41,0,0,1-8.71-4.18c-8.06-5.2-16.68-8.45-16.61-8.57s3.32,2.3,5.72,1.14c.91-.44,1.37-1.23,2.59-1.41a4,4,0,0,1,2.43.5,27.23,27.23,0,0,0,13.12,3.8,17.13,17.13,0,0,0,9.46,9.82Z" transform="translate(-0.45)"/><path class="cls-15" d="M56.79,139.05a76,76,0,0,0,7.42-5.12c8.12-6.3,9.92-10.23,15.6-13.81a32,32,0,0,1,14.12-4.63c-9.11-.51-14.45,1.93-17.62,4.2-4.73,3.39-5.57,7.06-10.74,10.41a25.7,25.7,0,0,1-14.4,3.78,6.58,6.58,0,0,1,2.55,1.49c.66.64.91,1.19,2.11,2.6C56.23,138.45,56.57,138.82,56.79,139.05Z" transform="translate(-0.45)"/><ellipse class="cls-16" cx="49.74" cy="35.49" rx="5.87" ry="3.47" transform="translate(9.46 81.82) rotate(-84.82)"/><path class="cls-17" d="M32.66,46.31a5.79,5.79,0,0,0,.4-2.5,6.16,6.16,0,0,0-1.86-4L29.58,43a9.26,9.26,0,0,0,1.27,2.64,8,8,0,0,0,2.81,2.59c.46.24,1.31.63,1.44.45s-.76-1.1-.86-1.19A7.06,7.06,0,0,0,32.66,46.31Z" transform="translate(-0.45)"/><path class="cls-18" d="M43.14,44c-.15.14-1-.45-1.71-1.15a6.35,6.35,0,0,1-1.55-3,6.84,6.84,0,0,1,0-3.16l1.87,2.14-1.4,1.42a17.17,17.17,0,0,1,1.47,1.67C42.06,42.08,43.35,43.75,43.14,44Z" transform="translate(-0.45)"/><path class="cls-19" d="M34.08,30.65a8.46,8.46,0,0,0-3.52-.89c-3.47-.09-5.93,2.12-7,3.07-5.16,4.64-4.47,12.43-4.36,13.54A19.84,19.84,0,0,0,26,45a20.46,20.46,0,0,0,8.46-6.41Z" transform="translate(-0.45)"/><path class="cls-20" d="M34.44,38.55a42.06,42.06,0,0,1-2-3.76,12.44,12.44,0,0,1-1.18-3.27A10.1,10.1,0,0,1,31,29.78a8.24,8.24,0,0,0-2.61.21,15.9,15.9,0,0,0,1.34,4.92,15.73,15.73,0,0,0,3.55,5Z" transform="translate(-0.45)"/><path class="cls-21" d="M32.23,41a16.52,16.52,0,0,1-5.4-10.41,14.44,14.44,0,0,0-2.16,1.33A13.44,13.44,0,0,0,23,33.42a17.42,17.42,0,0,0,2.35,5.15A15.82,15.82,0,0,0,27,40.65a15.26,15.26,0,0,0,2.8,2.29c.32-.22.65-.45,1-.71C31.3,41.81,31.79,41.38,32.23,41Z" transform="translate(-0.45)"/><path class="cls-22" d="M21.66,35a20.26,20.26,0,0,0,2.25,4.84,20.83,20.83,0,0,0,3.69,4.35c-.49.24-1,.49-1.62.73a17,17,0,0,1-1.81.62,9.5,9.5,0,0,1-2.57-2.15,9.76,9.76,0,0,1-1.94-3.73,14.56,14.56,0,0,1,2-4.66Z" transform="translate(-0.45)"/><path class="cls-23" d="M22.45,46a14.17,14.17,0,0,1-1.78-1.91,14,14,0,0,1-1.4-2.25c-.08.67-.14,1.4-.16,2.2a21.11,21.11,0,0,0,.09,2.33c.47,0,1,0,1.51-.1S21.92,46.11,22.45,46Z" transform="translate(-0.45)"/><ellipse class="cls-24" cx="36.99" cy="33.87" rx="4.79" ry="4.23" transform="translate(-5.98 60.48) rotate(-74.53)"/><ellipse class="cls-25" cx="46" cy="35.74" rx="6.13" ry="7.45" transform="translate(-6.68 9.93) rotate(-11.55)"/><ellipse class="cls-26" cx="45.55" cy="34.7" rx="4.19" ry="7.09" transform="translate(-3.84 4.96) rotate(-6.01)"/><path class="cls-27" d="M35.34,40.91a10.55,10.55,0,0,0,.38-3.27c-.07-1.8-.62-4-1.13-4s-1,2.38-1,4.29a11.53,11.53,0,0,0,.31,2.66A15,15,0,0,0,34.6,44a10.09,10.09,0,0,0,3.53,5.31c.14.1,1.18.8,1.35.61s-.33-.87-.9-1.39-1-.59-1.22-1.07a2.05,2.05,0,0,1,0-1.13,5.79,5.79,0,0,0-.54-2.68A9.89,9.89,0,0,0,35.34,40.91Z" transform="translate(-0.45)"/><path class="cls-28" d="M28.78,46.72a7.27,7.27,0,0,1,1.38,1.05c.11.1,1.09,1,.94,1.26s-1-.2-1.71-.72a4.48,4.48,0,0,1-1.19-1.37,5.92,5.92,0,0,1-1.83-1.65,6.5,6.5,0,0,1-1-4.89c.33-1.42.69-2.81,1.08-4.28a5.41,5.41,0,0,1,1.35-2.43,1.49,1.49,0,0,1,.69-.43c1-.29,2.11.73,3.18,1.74a14.72,14.72,0,0,1,1.95,2.25l0,.7a19.18,19.18,0,0,1-2.27-1.5,18.34,18.34,0,0,1-2.05-1.79,15.56,15.56,0,0,1-1.89,5.64,7.25,7.25,0,0,1,1.69,5.12A6.06,6.06,0,0,1,28.78,46.72Z" transform="translate(-0.45)"/><path class="cls-29" d="M38.78,41.14a13,13,0,0,0,.43-1.56,8.45,8.45,0,0,0-.1-4.49c-.17-.48-.35-1-.61-1-.45,0-.92,1.6-1,2.92a8.06,8.06,0,0,0,1.36,5c1.11,1.64,2.75,2.72,2.9,2.57s-.65-1.15-1-1.53A10.09,10.09,0,0,0,38.78,41.14Z" transform="translate(-0.45)"/><path class="cls-30" d="M37.8,29.16,36,26.62l-1.89-2.45-3.75-4.94a38.15,38.15,0,0,0-4-4.69A10.18,10.18,0,0,0,24,12.7a2.39,2.39,0,0,0-2.65.44,3.1,3.1,0,0,0-1.11,2.57,7.68,7.68,0,0,0,.74,2.9,21.59,21.59,0,0,0,3.34,5.12A22.58,22.58,0,0,0,34.79,30a21.73,21.73,0,0,1-10.72-6,20.19,20.19,0,0,1-3.46-5.19,8.14,8.14,0,0,1-.79-3,3.54,3.54,0,0,1,1.24-2.92,3.16,3.16,0,0,1,1.48-.72,2.65,2.65,0,0,1,1.64.24,10.07,10.07,0,0,1,2.49,1.93,34.92,34.92,0,0,1,4,4.78l3.65,5,1.81,2.52Z" transform="translate(-0.45)"/><path class="cls-31" d="M40.55,31,35.22,20.45c-.91-1.75-1.8-3.51-2.75-5.22a12.88,12.88,0,0,0-1.56-2.42,3.19,3.19,0,0,0-2.34-1.18,2.26,2.26,0,0,0-1.24.26,2.37,2.37,0,0,0-.82,1A6.31,6.31,0,0,0,26,15.61a12,12,0,0,0,1.49,5.51,26.52,26.52,0,0,0,3.84,4.4A42.1,42.1,0,0,0,35.8,29.4a40.91,40.91,0,0,1-4.66-3.65,25.57,25.57,0,0,1-4.06-4.37,11.91,11.91,0,0,1-1.66-5.76,6.81,6.81,0,0,1,.52-3A2.6,2.6,0,0,1,28.6,11a3.7,3.7,0,0,1,1.56.42,4.78,4.78,0,0,1,1.23,1A14.5,14.5,0,0,1,33,14.93c.94,1.75,1.84,3.51,2.68,5.29s1.69,3.57,2.51,5.36Z" transform="translate(-0.45)"/><path class="cls-32" d="M40.24,25.38a18.58,18.58,0,0,1-3.72-11.31,23.68,23.68,0,0,0,3.72,11.31Z" transform="translate(-0.45)"/><path class="cls-33" d="M42.18,24.36a20.87,20.87,0,0,1-1-3.11A13.13,13.13,0,0,1,40.94,18a31.37,31.37,0,0,0,.45,3.21,13.88,13.88,0,0,0,.4,1.57C41.93,23.3,42.06,23.83,42.18,24.36Z" transform="translate(-0.45)"/><path class="cls-34" d="M45.6,23.65a10.73,10.73,0,0,1-2.3-5.93A19.59,19.59,0,0,0,45.6,23.65Z" transform="translate(-0.45)"/><path class="cls-35" d="M29.61,29.79a19.23,19.23,0,0,1-10.24-9.66,23.21,23.21,0,0,0,4.36,5.64A22.8,22.8,0,0,0,29.61,29.79Z" transform="translate(-0.45)"/><path class="cls-36" d="M21.34,27.63a10.25,10.25,0,0,1-1.58-1.71,7.33,7.33,0,0,1-1-2.12,19.59,19.59,0,0,0,1.17,2,6.9,6.9,0,0,0,.69.92C20.88,27,21.11,27.31,21.34,27.63Z" transform="translate(-0.45)"/><path class="cls-37" d="M21.35,33.24a20.54,20.54,0,0,0-3.54,12.41A17.07,17.07,0,0,1,21.35,33.24Z" transform="translate(-0.45)"/><path class="cls-38" d="M16.18,41.05a11.27,11.27,0,0,0-.3,4.8A6.21,6.21,0,0,1,16.18,41.05Z" transform="translate(-0.45)"/><path class="cls-39" d="M14.73,48.16a10.85,10.85,0,0,1-.23-1.78,13.55,13.55,0,0,1,.07-1.8,12,12,0,0,1,.15,1.79C14.72,47,14.78,47.55,14.73,48.16Z" transform="translate(-0.45)"/><path class="cls-40" d="M51.55,43.05a10.09,10.09,0,0,1-3.12,2,10.6,10.6,0,0,1-3.65.78l0-.21a11.64,11.64,0,0,1,2,.73,1.73,1.73,0,0,1,.87.72.54.54,0,0,1-.15.58,2,2,0,0,1-.46.32,9.16,9.16,0,0,1-2.07.69c-.7.16-1.41.28-2.13.39.71-.14,1.41-.31,2.11-.5a9.22,9.22,0,0,0,2-.71c.29-.16.65-.42.53-.71a1.69,1.69,0,0,0-.79-.61,13.85,13.85,0,0,0-2-.69l-.67-.2h.7A10.82,10.82,0,0,0,51.55,43.05Z" transform="translate(-0.45)"/><path class="cls-41" d="M57.05,36.68q-.06.43-.15.87a3.17,3.17,0,0,1-.32.82,3.81,3.81,0,0,1-1.18,1.28,8.14,8.14,0,0,0,1-1.39,3.36,3.36,0,0,0,.36-.77C56.83,37.22,56.93,37,57.05,36.68Z" transform="translate(-0.45)"/><ellipse class="cls-42" cx="45.55" cy="32.64" rx="1.57" ry="3.75" transform="translate(-7.18 12.47) rotate(-14.53)"/><path class="cls-10" d="M56.42,22.79a9.56,9.56,0,0,0-.07,2.14,2.75,2.75,0,0,0,.4,1.52c.18.28.63.81.94.71S58,25.7,58,24.93c-.09-1.5-.21-3.49-1-3.67-.48-.12-1.06.52-2.54,2.77a66.47,66.47,0,0,0-3.45,5.84l.22.12.19.14a40.6,40.6,0,0,1,2.4-4A38.63,38.63,0,0,1,56.42,22.79Z" transform="translate(-0.45)"/><path class="cls-10" d="M52.24,20.74a14.57,14.57,0,0,0,.17,1.6c.22,1.31.46,1.64.71,1.83s.42.31.64.21.18-1,0-2.22a9.32,9.32,0,0,0-.55-2.05c-.37-.9-.57-1-.66-1-.27-.05-.63.22-1.13,1.1A12.2,12.2,0,0,0,50,25.14c-.19,1.64-.33,3.17-.44,4.56l.29-.05c.19-1.4.4-2.57.57-3.45a20.59,20.59,0,0,1,1-3.64A14.72,14.72,0,0,1,52.24,20.74Z" transform="translate(-0.45)"/><circle class="cls-10" cx="96.13" cy="82.69" r="0.65"/><circle class="cls-10" cx="92.99" cy="77.6" r="0.3"/><circle class="cls-10" cx="93.72" cy="79.21" r="0.44"/><circle class="cls-10" cx="90.98" cy="79.88" r="0.23"/><circle class="cls-10" cx="95.63" cy="73.4" r="0.5"/><circle class="cls-10" cx="94.28" cy="84.54" r="0.31"/><circle class="cls-10" cx="97.63" cy="86.72" r="0.48"/><circle class="cls-10" cx="88.1" cy="84.98" r="0.38"/><circle class="cls-10" cx="91.36" cy="84.13" r="0.4"/><circle class="cls-10" cx="92.79" cy="86.31" r="0.57"/><circle class="cls-10" cx="97.08" cy="88.78" r="0.43"/></svg>