<svg id="Calque_1" data-name="Calque 1" xmlns="http://www.w3.org/2000/svg" xmlns:xlink="http://www.w3.org/1999/xlink" viewBox="0 0 147.73 147.73"><defs><style>.cls-1{fill:#f9ecd8;}.cls-2{fill:url(#Dégradé_sans_nom_41);}.cls-3{fill:url(#Dégradé_sans_nom_21);}.cls-4{fill:url(#Dégradé_sans_nom_21-2);}.cls-5{fill:url(#Dégradé_sans_nom_21-3);}.cls-6{fill:url(#Dégradé_sans_nom_21-4);}.cls-7{fill:url(#Dégradé_sans_nom_21-5);}.cls-8{fill:url(#Dégradé_sans_nom_21-6);}.cls-9{fill:url(#Dégradé_sans_nom_21-7);}.cls-10{fill:#1d1d1b;}.cls-11{fill:none;stroke:#1d1d1b;stroke-miterlimit:10;stroke-width:0.16px;}.cls-12{fill:url(#Dégradé_sans_nom_21-8);}.cls-13{fill:url(#Dégradé_sans_nom_21-9);}.cls-14{fill:url(#Dégradé_sans_nom_21-10);}.cls-15{fill:url(#Dégradé_sans_nom_21-11);}.cls-16{fill:url(#Dégradé_sans_nom_55);}.cls-17{fill:url(#Dégradé_sans_nom_55-2);}.cls-18{fill:url(#Dégradé_sans_nom_55-3);}.cls-19{fill:url(#Dégradé_sans_nom_29);}.cls-20{fill:url(#Dégradé_sans_nom_55-4);}.cls-21{fill:url(#Dégradé_sans_nom_55-5);}.cls-22{fill:url(#Dégradé_sans_nom_55-6);}.cls-23{fill:url(#Dégradé_sans_nom_55-7);}.cls-24{fill:url(#Dégradé_sans_nom_55-8);}.cls-25{fill:url(#Dégradé_sans_nom_80);}.cls-26{fill:url(#Dégradé_sans_nom_55-9);}.cls-27{fill:url(#Dégradé_sans_nom_55-10);}.cls-28{fill:url(#Dégradé_sans_nom_55-11);}.cls-29{fill:url(#Dégradé_sans_nom_55-12);}.cls-30{fill:url(#Dégradé_sans_nom_55-13);}.cls-31{fill:url(#Dégradé_sans_nom_55-14);}.cls-32{fill:url(#Dégradé_sans_nom_55-15);}.cls-33{fill:url(#Dégradé_sans_nom_55-16);}.cls-34{fill:url(#Dégradé_sans_nom_55-17);}.cls-35{fill:url(#Dégradé_sans_nom_55-18);}.cls-36{fill:url(#Dégradé_sans_nom_55-19);}.cls-37{fill:url(#Dégradé_sans_nom_55-20);}.cls-38{fill:url(#Dégradé_sans_nom_55-21);}.cls-39{fill:url(#Dégradé_sans_nom_55-22);}.cls-40{fill:url(#Dégradé_sans_nom_55-23);}.cls-41{fill:url(#Dégradé_sans_nom_55-24);}.cls-42{fill:#fff;}</style><linearGradient id="Dégradé_sans_nom_41" x1="61.18" y1="-124.17" x2="39.06" y2="-85.86" gradientTransform="matrix(-0.68, -0.08, -0.04, 0.32, 110.32, 177.09)" gradientUnits="userSpaceOnUse"><stop offset="0" stop-color="#5d4229"/><stop offset="1" stop-color="#7b5a2f"/></linearGradient><linearGradient id="Dégradé_sans_nom_21" x1="58.88" y1="142.12" x2="26.42" y2="85.89" gradientTransform="matrix(-0.99, -0.12, -0.12, 0.99, 140.36, -0.35)" gradientUnits="userSpaceOnUse"><stop offset="0.14" stop-color="#72c6ce"/><stop offset="0.5" stop-color="#2773ba"/><stop offset="1" stop-color="#2b2b6a"/></linearGradient><linearGradient id="Dégradé_sans_nom_21-2" x1="-2.03" y1="140.85" x2="-9.52" y2="127.87" xlink:href="#Dégradé_sans_nom_21"/><linearGradient id="Dégradé_sans_nom_21-3" x1="1.87" y1="138.6" x2="-8.34" y2="120.92" xlink:href="#Dégradé_sans_nom_21"/><linearGradient id="Dégradé_sans_nom_21-4" x1="58.11" y1="104.55" x2="58.11" y2="152.37" xlink:href="#Dégradé_sans_nom_21"/><linearGradient id="Dégradé_sans_nom_21-5" x1="6.28" y1="106.98" x2="56.91" y2="56.36" xlink:href="#Dégradé_sans_nom_21"/><linearGradient id="Dégradé_sans_nom_21-6" x1="41.72" y1="111.03" x2="41.72" y2="57.9" xlink:href="#Dégradé_sans_nom_21"/><linearGradient id="Dégradé_sans_nom_21-7" x1="56.7" y1="117.82" x2="52.65" y2="110.81" xlink:href="#Dégradé_sans_nom_21"/><linearGradient id="Dégradé_sans_nom_21-8" x1="67.82" y1="91.53" x2="89.15" y2="112.87" xlink:href="#Dégradé_sans_nom_21"/><linearGradient id="Dégradé_sans_nom_21-9" x1="30.96" y1="115.19" x2="30.96" y2="128.19" xlink:href="#Dégradé_sans_nom_21"/><linearGradient id="Dégradé_sans_nom_21-10" x1="74.28" y1="118.39" x2="74.28" y2="105.81" xlink:href="#Dégradé_sans_nom_21"/><linearGradient id="Dégradé_sans_nom_21-11" x1="66.32" y1="149.87" x2="66.32" y2="118.99" xlink:href="#Dégradé_sans_nom_21"/><linearGradient id="Dégradé_sans_nom_55" x1="-180.54" y1="87.19" x2="-173.61" y2="87.19" gradientTransform="matrix(0, -1.11, -0.81, 0, 185.3, -133.43)" gradientUnits="userSpaceOnUse"><stop offset="0" stop-color="#7f5e19"/><stop offset="0.23"/><stop offset="1"/></linearGradient><linearGradient id="Dégradé_sans_nom_55-2" x1="-193.73" y1="39.99" x2="-186.15" y2="39.99" gradientTransform="matrix(-0.96, -0.27, -0.27, 0.96, -76.36, -16.01)" xlink:href="#Dégradé_sans_nom_55"/><linearGradient id="Dégradé_sans_nom_55-3" x1="-200.92" y1="33.22" x2="-195.31" y2="33.22" gradientTransform="matrix(-0.96, -0.27, -0.27, 0.96, -76.36, -16.01)" xlink:href="#Dégradé_sans_nom_55"/><linearGradient id="Dégradé_sans_nom_29" x1="-186.19" y1="39.83" x2="-174.78" y2="29.4" gradientTransform="matrix(-0.96, -0.27, -0.27, 0.96, -76.36, -16.01)" gradientUnits="userSpaceOnUse"><stop offset="0" stop-color="#f7dcb4"/><stop offset="0.36" stop-color="#fab743"/><stop offset="0.7" stop-color="#7f5e19"/></linearGradient><linearGradient id="Dégradé_sans_nom_55-4" x1="-190.31" y1="34.01" x2="-181.33" y2="25.81" gradientTransform="matrix(-0.96, -0.27, -0.27, 0.96, -76.36, -16.01)" xlink:href="#Dégradé_sans_nom_55"/><linearGradient id="Dégradé_sans_nom_55-5" x1="-187.32" y1="38.45" x2="-177.4" y2="29.39" gradientTransform="matrix(-0.96, -0.27, -0.27, 0.96, -76.36, -16.01)" xlink:href="#Dégradé_sans_nom_55"/><linearGradient id="Dégradé_sans_nom_55-6" x1="-182.62" y1="43.48" x2="-173.67" y2="35.3" gradientTransform="matrix(-0.96, -0.27, -0.27, 0.96, -76.36, -16.01)" xlink:href="#Dégradé_sans_nom_55"/><linearGradient id="Dégradé_sans_nom_55-7" x1="-178.32" y1="46.16" x2="-174.06" y2="42.27" gradientTransform="matrix(-0.96, -0.27, -0.27, 0.96, -76.36, -16.01)" xlink:href="#Dégradé_sans_nom_55"/><linearGradient id="Dégradé_sans_nom_55-8" x1="-195.04" y1="31.06" x2="-187.69" y2="24.34" gradientTransform="matrix(0, -1, -1, 0, 128.38, -129.63)" xlink:href="#Dégradé_sans_nom_55"/><radialGradient id="Dégradé_sans_nom_80" cx="-201.55" cy="27.03" r="7.56" gradientTransform="matrix(-0.89, -0.45, -0.45, 0.89, -56.6, -51.83)" gradientUnits="userSpaceOnUse"><stop offset="0" stop-color="#f4bc5d"/><stop offset="0.42" stop-color="#e5a93d"/><stop offset="0.99" stop-color="#7f5e19"/></radialGradient><linearGradient id="Dégradé_sans_nom_55-9" x1="-137.47" y1="74.11" x2="-130.55" y2="74.11" gradientTransform="matrix(-1.34, 0, 0, 0.98, -69.67, -9.81)" xlink:href="#Dégradé_sans_nom_55"/><linearGradient id="Dégradé_sans_nom_55-10" x1="-198.77" y1="36.15" x2="-188.4" y2="36.15" gradientTransform="matrix(-0.96, -0.27, -0.27, 0.96, -76.36, -16.01)" xlink:href="#Dégradé_sans_nom_55"/><linearGradient id="Dégradé_sans_nom_55-11" x1="-189.56" y1="37.54" x2="-180.8" y2="37.54" gradientTransform="matrix(-0.96, -0.27, -0.27, 0.96, -76.36, -16.01)" xlink:href="#Dégradé_sans_nom_55"/><linearGradient id="Dégradé_sans_nom_55-12" x1="-199.62" y1="32.6" x2="-192.64" y2="32.6" gradientTransform="matrix(-0.96, -0.27, -0.27, 0.96, -76.36, -16.01)" xlink:href="#Dégradé_sans_nom_55"/><linearGradient id="Dégradé_sans_nom_55-13" x1="97.26" y1="59.22" x2="83.84" y2="37.83" gradientTransform="matrix(1, 0, 0, 1, 0, 0)" xlink:href="#Dégradé_sans_nom_55"/><linearGradient id="Dégradé_sans_nom_55-14" x1="102.74" y1="59.8" x2="88.66" y2="37.35" gradientTransform="matrix(1, 0, 0, 1, 0, 0)" xlink:href="#Dégradé_sans_nom_55"/><linearGradient id="Dégradé_sans_nom_55-15" x1="105.59" y1="51.51" x2="98.75" y2="40.6" gradientTransform="matrix(1, 0, 0, 1, 0, 0)" xlink:href="#Dégradé_sans_nom_55"/><linearGradient id="Dégradé_sans_nom_55-16" x1="107.54" y1="50.54" x2="103.93" y2="44.78" gradientTransform="matrix(1, 0, 0, 1, 0, 0)" xlink:href="#Dégradé_sans_nom_55"/><linearGradient id="Dégradé_sans_nom_55-17" x1="110.76" y1="50.08" x2="107.05" y2="44.16" gradientTransform="matrix(1, 0, 0, 1, 0, 0)" xlink:href="#Dégradé_sans_nom_55"/><linearGradient id="Dégradé_sans_nom_55-18" x1="90.81" y1="58.36" x2="82.75" y2="45.5" gradientTransform="matrix(1, 0, 0, 1, 0, 0)" xlink:href="#Dégradé_sans_nom_55"/><linearGradient id="Dégradé_sans_nom_55-19" x1="83.15" y1="54.97" x2="80.41" y2="50.6" gradientTransform="matrix(1, 0, 0, 1, 0, 0)" xlink:href="#Dégradé_sans_nom_55"/><linearGradient id="Dégradé_sans_nom_55-20" x1="83.96" y1="72.02" x2="78.78" y2="63.77" gradientTransform="matrix(1, 0, 0, 1, 0, 0)" xlink:href="#Dégradé_sans_nom_55"/><linearGradient id="Dégradé_sans_nom_55-21" x1="78.63" y1="74.22" x2="76.25" y2="70.43" gradientTransform="matrix(1, 0, 0, 1, 0, 0)" xlink:href="#Dégradé_sans_nom_55"/><linearGradient id="Dégradé_sans_nom_55-22" x1="76.87" y1="77.1" x2="74.97" y2="74.08" gradientTransform="matrix(1, 0, 0, 1, 0, 0)" xlink:href="#Dégradé_sans_nom_55"/><linearGradient id="Dégradé_sans_nom_55-23" x1="112.99" y1="76.77" x2="110.83" y2="73.32" gradientTransform="matrix(1, 0, 0, 1, 0, 0)" xlink:href="#Dégradé_sans_nom_55"/><linearGradient id="Dégradé_sans_nom_55-24" x1="122.54" y1="67.37" x2="121.47" y2="65.66" gradientTransform="matrix(1, 0, 0, 1, 0, 0)" xlink:href="#Dégradé_sans_nom_55"/></defs><rect class="cls-1" width="147.73" height="147.73"/><path class="cls-2" d="M81,147.38q-1.81-7.47-3.64-14.95l1.47-.36q1.88,7.65,3.73,15.31Z" transform="translate(0.33)"/><path class="cls-3" d="M49.64,121.87c-.94-4.06,16.79-11.37,15.76-13.81-.22-.54-1.24-.48-1.54-.59a72,72,0,0,1-19.21-11.2c15.5-9,29-10.59,36.76-10.79,22.79-.6,47.1,10,46.79,17.72-.1,2.52-2.71,2.32-6.25,7.66-5.57,8.4-2.42,13.9-7.15,20.48-2.85,4-8,7.56-13.48,8-9.06.79-11.38-8.21-24.38-12.73C62.21,121.52,50.39,125.16,49.64,121.87Z" transform="translate(0.33)"/><path class="cls-4" d="M129.35,123.91a17.7,17.7,0,0,1,4.88,7c.75,2,1.74,4.67.57,6.78-.59,1.05-1.22,1.09-1.68,2.34-.72,2,.22,3.62-.49,4.11-.28.18-.8.21-1.92-.46l-4.39-19.17Z" transform="translate(0.33)"/><path class="cls-5" d="M118.65,122.81a12.91,12.91,0,0,1,3.59,2.94c2.19,2.63,2.54,5.34,3.22,7.8a28.62,28.62,0,0,0,5.25,10.13c0-.55,0-1.4-.05-2.44A41.86,41.86,0,0,0,130,136c-.47-2.62-.27-3.5-.6-10.37-.1-2.09-.26-5.11-.55-8.82Z" transform="translate(0.33)"/><path class="cls-6" d="M103.9,106.81a62.08,62.08,0,0,0,11,5.45c8.29,3,13.63,2.54,13.95,4.5s-4.27,5.07-8.72,5.87-8.5-1-11.37,1a4.19,4.19,0,0,1-2.72,1c-1.21-.09-1.56-.86-2.48-.95-1.66-.16-2.92,2.11-4.09,3.4-2.62,2.91-6.56,2.91-9.71,3.37-7.79,1.15-9,4.89-19,8.31-3,1-22.08,7.56-29.63-.13-1.9-1.94-2.86-4.57-6.23-5.73s-4.66.56-8.13-.77c-3.11-1.19-2.93-2.9-6.6-4.48-2.81-1.21-3.39-.4-6.1-1.38-4.34-1.58-8.58-5.71-7.87-8.31.49-1.81,3-1.37,5.87-3.84s2.69-4.6,4.77-8.94c1.25-2.61,5.25-11,11.19-12.06,3.24-.59,4.86,1.4,9.15,3,7.32,2.82,12.79,1,20.1.27C76.4,94.63,95.38,102.06,103.9,106.81Z" transform="translate(0.33)"/><path class="cls-7" d="M84.12,110.28c2.43-.36,4.35-2.08,8.24-1.56a16.82,16.82,0,0,1,4.52,1.53c5.64,2.17,11.61,0,15.5-1.46,4-1.49,3-2.11,11.72-7.61S136.72,94.42,138,90.1c.54-1.81-.19-1.42.32-5.85.69-6,2.12-7.44,2-11.35a16.87,16.87,0,0,0-2.06-7.32c-2-3.83-6.43-8.52-11-8.2-1.45.1-1.31.6-3.24.79a15.56,15.56,0,0,1-7.86-1.55c-1.46-.61-9-3.64-16.74-3-3.11.27-6.81,1.18-10-1a9.27,9.27,0,0,1-1.12-.94c-4-3.45-19.06-.06-26.82,10.69-4.71,6.52-7.56,16.91-3.33,23.71,1.44,2.33,2.32,2,6.65,5.56C76.58,101.36,78.29,111.14,84.12,110.28Z" transform="translate(0.33)"/><path class="cls-8" d="M104.58,53.71A36.77,36.77,0,0,0,86.27,63.87c-8.47,8.81-9.74,19.51-10,22.44-.79,7.6.59,17.48.54,17.48v0c-.16-.75-3.18-15-.13-28C79.9,61.79,89,54.35,92.45,53.89c.39,0,2.53-.26,4.6-.43a32.45,32.45,0,0,1,4.27-.16A21.92,21.92,0,0,1,104.58,53.71Z" transform="translate(0.33)"/><path class="cls-9" d="M85,111.82c.15-.53-2.1-.9-6-4s-4.33-4.86-6.89-6.48c-2-1.29-5.43-2.61-11.06-1.95a18.65,18.65,0,0,0,3.7,6.1C72,113.47,84.67,113,85,111.82Z" transform="translate(0.33)"/><ellipse class="cls-10" cx="82.08" cy="82.52" rx="1.01" ry="0.64" transform="translate(-9.37 154.08) rotate(-83.1)"/><ellipse class="cls-10" cx="79.42" cy="82.07" rx="1.13" ry="0.5" transform="translate(-11.27 151.04) rotate(-83.1)"/><circle class="cls-10" cx="77.08" cy="83" r="0.71"/><circle class="cls-10" cx="74.04" cy="83.12" r="0.49"/><ellipse class="cls-10" cx="73.75" cy="85.75" rx="0.75" ry="0.36" transform="translate(-19.91 148.66) rotate(-83.1)"/><ellipse class="cls-10" cx="76.5" cy="88.01" rx="0.72" ry="0.35" transform="translate(-19.74 153.37) rotate(-83.1)"/><circle class="cls-10" cx="80.27" cy="87.05" r="0.55"/><ellipse class="cls-10" cx="82.18" cy="85.47" rx="0.82" ry="0.46" transform="translate(-12.21 156.78) rotate(-83.1)"/><circle class="cls-10" cx="83.47" cy="87.44" r="0.55"/><ellipse class="cls-10" cx="81.71" cy="91.24" rx="0.75" ry="0.23" transform="translate(-18.36 161.39) rotate(-83.1)"/><ellipse class="cls-10" cx="79.52" cy="91.65" rx="0.97" ry="0.42" transform="translate(-20.69 159.57) rotate(-83.1)"/><ellipse class="cls-10" cx="80.45" cy="93.35" rx="1" ry="0.32" transform="translate(-21.57 161.99) rotate(-83.1)"/><circle class="cls-10" cx="83.03" cy="91.54" r="0.49"/><ellipse class="cls-10" cx="84.3" cy="89.29" rx="1.05" ry="0.28" transform="translate(-14.14 162.25) rotate(-83.1)"/><ellipse class="cls-10" cx="86.34" cy="89.31" rx="0.83" ry="0.36" transform="translate(-12.37 164.29) rotate(-83.1)"/><ellipse class="cls-10" cx="88.4" cy="87.42" rx="1.19" ry="0.43" transform="translate(-8.68 164.68) rotate(-83.1)"/><ellipse class="cls-10" cx="87.43" cy="87.58" rx="0.92" ry="0.51" transform="translate(-9.69 163.85) rotate(-83.1)"/><circle class="cls-10" cx="91.83" cy="89.63" r="0.53"/><ellipse class="cls-10" cx="89.06" cy="90.82" rx="0.55" ry="0.36" transform="translate(-11.47 168.32) rotate(-83.1)"/><circle class="cls-10" cx="87.27" cy="91.64" r="0.52"/><circle class="cls-10" cx="88.72" cy="95.26" r="0.5"/><circle class="cls-10" cx="86.68" cy="100.47" r="0.47"/><ellipse class="cls-10" cx="85.98" cy="97.38" rx="0.67" ry="0.26" transform="translate(-20.69 171.03) rotate(-83.1)"/><ellipse class="cls-10" cx="68" cy="83.09" rx="0.66" ry="0.22" transform="translate(-22.33 140.61) rotate(-83.1)"/><ellipse class="cls-10" cx="67.19" cy="84.3" rx="0.65" ry="0.44" transform="translate(-24.25 140.87) rotate(-83.1)"/><path class="cls-10" d="M64.68,84.7c-.05.38.06.71.24.73s.37-.27.42-.65-.07-.71-.25-.73S64.72,84.32,64.68,84.7Z" transform="translate(0.33)"/><circle class="cls-10" cx="67.39" cy="86.31" r="0.55"/><ellipse class="cls-10" cx="68.1" cy="85.77" rx="0.65" ry="0.42" transform="translate(-24.91 143.07) rotate(-83.1)"/><circle class="cls-10" cx="70.84" cy="90.05" r="0.4"/><ellipse class="cls-10" cx="72.44" cy="87.6" rx="0.64" ry="0.23" transform="translate(-22.9 148.99) rotate(-83.1)"/><circle class="cls-10" cx="72" cy="85.96" r="0.29"/><circle class="cls-10" cx="75.02" cy="87.75" r="0.51"/><ellipse class="cls-10" cx="67.12" cy="88.96" rx="0.69" ry="0.39" transform="translate(-28.93 144.91) rotate(-83.1)"/><ellipse class="cls-10" cx="67.4" cy="90.71" rx="0.44" ry="0.1" transform="translate(-30.42 146.72) rotate(-83.1)"/><ellipse class="cls-10" cx="69.25" cy="93.53" rx="0.58" ry="0.22" transform="translate(-31.59 151.04) rotate(-83.1)"/><ellipse class="cls-10" cx="67.67" cy="93.09" rx="0.83" ry="0.46" transform="translate(-32.55 149.08) rotate(-83.1)"/><circle class="cls-10" cx="74.69" cy="94.66" r="0.51"/><ellipse class="cls-10" cx="76.08" cy="92.07" rx="0.47" ry="0.28" transform="translate(-24.13 156.53) rotate(-83.1)"/><path class="cls-10" d="M73.08,92.38c0,.28.06.53.2.55s.29-.2.32-.49,0-.54-.19-.56S73.12,92.09,73.08,92.38Z" transform="translate(0.33)"/><ellipse class="cls-10" cx="71.29" cy="92.16" rx="0.53" ry="0.37" transform="translate(-28.44 151.85) rotate(-83.1)"/><ellipse class="cls-10" cx="71.9" cy="95.06" rx="0.61" ry="0.36" transform="translate(-30.77 155.01) rotate(-83.1)"/><circle class="cls-10" cx="79.12" cy="95.92" r="0.21"/><circle class="cls-10" cx="79.97" cy="99.98" r="0.32"/><ellipse class="cls-10" cx="83.06" cy="95.82" rx="0.61" ry="0.17" transform="translate(-21.72 166.76) rotate(-83.1)"/><circle class="cls-10" cx="82.42" cy="95.65" r="0.05"/><ellipse class="cls-10" cx="83.46" cy="97.4" rx="0.33" ry="0.58" transform="translate(-22.94 168.55) rotate(-83.1)"/><circle class="cls-10" cx="82.56" cy="97.7" r="0.44"/><ellipse class="cls-10" cx="84.19" cy="99.44" rx="0.76" ry="0.25" transform="translate(-24.32 171.07) rotate(-83.1)"/><ellipse class="cls-10" cx="83.18" cy="99.22" rx="0.66" ry="0.36" transform="translate(-24.99 169.87) rotate(-83.1)"/><ellipse class="cls-10" cx="80.4" cy="98.29" rx="0.69" ry="0.23" transform="translate(-26.51 166.29) rotate(-83.1)"/><ellipse class="cls-10" cx="78.59" cy="99.32" rx="0.84" ry="0.42" transform="translate(-29.13 165.4) rotate(-83.1)"/><ellipse class="cls-10" cx="81.09" cy="103.98" rx="0.55" ry="0.38" transform="translate(-31.56 171.98) rotate(-83.1)"/><ellipse class="cls-10" cx="80.12" cy="102.46" rx="0.57" ry="0.23" transform="translate(-30.9 169.69) rotate(-83.1)"/><ellipse class="cls-10" cx="82.42" cy="101.61" rx="0.55" ry="0.66" transform="translate(-28.03 171.22) rotate(-83.1)"/><path class="cls-10" d="M79.09,101.87l0,.46,0-.46.06-.47Z" transform="translate(0.33)"/><path class="cls-11" d="M82,82.9c-1,2.09-2,4.18-3,6.29Q76.15,95,73.3,100.52" transform="translate(0.33)"/><path class="cls-11" d="M79.37,82.63c-.27,1-.56,2.06-.87,3.1A113.52,113.52,0,0,1,73,100.27" transform="translate(0.33)"/><path class="cls-11" d="M76.81,83.36a27.46,27.46,0,0,0-.59,3,26.39,26.39,0,0,0,.19,8.37" transform="translate(0.33)"/><path class="cls-11" d="M76.44,88.34a37.47,37.47,0,0,1-.51,7.09,38,38,0,0,1-1.56,6.11" transform="translate(0.33)"/><path class="cls-11" d="M71.88,95.24A6.19,6.19,0,0,1,72,96.47a6,6,0,0,1-.48,2.34" transform="translate(0.33)"/><path class="cls-11" d="M71.16,92.24a8.79,8.79,0,0,0-.61,1.3,9.66,9.66,0,0,0-.6,3.7" transform="translate(0.33)"/><path class="cls-11" d="M67.74,93.51a1.79,1.79,0,0,0-.2.87,1.25,1.25,0,0,0,0,.36" transform="translate(0.33)"/><path class="cls-11" d="M66.92,89.35c0,.39-.1.79-.14,1.2-.11,1.08-.16,2.1-.17,3.06" transform="translate(0.33)"/><path class="cls-11" d="M70.46,90.27c-.23.48-.44,1-.65,1.56a22.87,22.87,0,0,0-1.09,4.24" transform="translate(0.33)"/><path class="cls-11" d="M66.93,86.6a7.49,7.49,0,0,0-.81,1.45,8.22,8.22,0,0,0-.53,4.26" transform="translate(0.33)"/><path class="cls-11" d="M67.16,84.69a7.12,7.12,0,0,0-.61,1A10.14,10.14,0,0,0,66.13,93" transform="translate(0.33)"/><path class="cls-11" d="M82.89,96.23a9.76,9.76,0,0,1-.37,2,11.7,11.7,0,0,1-4.94,6.32" transform="translate(0.33)"/><path class="cls-11" d="M83.59,97.74a13.82,13.82,0,0,1-.72,1.91,15.06,15.06,0,0,1-4.54,5.61" transform="translate(0.33)"/><path class="cls-11" d="M81.22,104.17a2.35,2.35,0,0,0-1.64.69,2.41,2.41,0,0,0-.59,1" transform="translate(0.33)"/><path class="cls-11" d="M84.26,99.6A6.69,6.69,0,0,0,78,105" transform="translate(0.33)"/><path class="cls-11" d="M86.17,100.45c-.93.57-1.87,1.16-2.81,1.78q-2.52,1.63-4.78,3.26" transform="translate(0.33)"/><path class="cls-11" d="M82.44,101.85a7.32,7.32,0,0,0-4.9,1.9c-.14.14-.26.28-.38.42" transform="translate(0.33)"/><path class="cls-11" d="M86,97.64a11.83,11.83,0,0,1-1.59,2.76,12.83,12.83,0,0,1-6.61,4.36" transform="translate(0.33)"/><path class="cls-11" d="M82.09,97.86c-.33.47-.69.94-1.06,1.41a36.83,36.83,0,0,1-4.27,4.52" transform="translate(0.33)"/><path class="cls-11" d="M79.56,100.11a6,6,0,0,0-.81.49,7,7,0,0,0-2.3,2.9" transform="translate(0.33)"/><path class="cls-11" d="M80.32,98.51a6.28,6.28,0,0,0-3.7,1.56,6.12,6.12,0,0,0-1.53,2.15" transform="translate(0.33)"/><path class="cls-11" d="M78.69,99.52a4.87,4.87,0,0,0-3.18,3.1" transform="translate(0.33)"/><path class="cls-11" d="M88.38,95.26a11.65,11.65,0,0,0-2.92.41c-5.41,1.48-8.09,6.53-8.82,8" transform="translate(0.33)"/><path class="cls-11" d="M86.81,91.9a18.19,18.19,0,0,0-5.2,3c-4,3.34-5.87,8-5.69,8.09s2.17-2.35,3.47-5.51a19,19,0,0,0,1-3.43" transform="translate(0.33)"/><path class="cls-11" d="M82.7,91.54A32.85,32.85,0,0,1,72.77,100a9.5,9.5,0,0,1,1.42-5.18" transform="translate(0.33)"/><path class="cls-11" d="M81.86,91.64a18.12,18.12,0,0,0-7.07,10.29A19.55,19.55,0,0,1,78.16,97,20.76,20.76,0,0,1,89,91" transform="translate(0.33)"/><path class="cls-11" d="M78.73,96c-.37.85-.76,1.71-1.18,2.59-.65,1.35-1.31,2.63-2,3.84" transform="translate(0.33)"/><path class="cls-11" d="M88.4,87.42a26.41,26.41,0,0,1-15.1,13.1" transform="translate(0.33)"/><path class="cls-11" d="M87.43,87.58C80.29,89.18,75,93.17,74.19,98.06a8.51,8.51,0,0,0,.18,3.48c.74-1.7,3.71-8,10.64-10.7a17.73,17.73,0,0,1,6.49-1.21" transform="translate(0.33)"/><path class="cls-11" d="M84.3,89.29a83.36,83.36,0,0,1-7.53,6.58c-1.62,1.25-3.21,2.39-4.75,3.41" transform="translate(0.33)"/><path class="cls-11" d="M86.34,89.31c-.48-.06-8.75-1-12.86,4.62a11,11,0,0,0-2,4.88" transform="translate(0.33)"/><path class="cls-11" d="M79.52,91.65a19.72,19.72,0,0,0-5.8,5.58,18.08,18.08,0,0,0-1.37,2.37" transform="translate(0.33)"/><path class="cls-11" d="M82.83,87.42a37.36,37.36,0,0,1-11,11.63" transform="translate(0.33)"/><path class="cls-11" d="M81.78,86a26.59,26.59,0,0,0-7.07,4.83c-.8.79-1.43,1.52-1.58,1.7A24.81,24.81,0,0,0,70,97.24" transform="translate(0.33)"/><path class="cls-11" d="M73.35,92.7a13.13,13.13,0,0,1-3.18,4.76" transform="translate(0.33)"/><path class="cls-11" d="M75.83,92.31c-.3.29-.59.59-.88.89a57.68,57.68,0,0,0-4.18,4.85" transform="translate(0.33)"/><path class="cls-11" d="M80.13,87.56c-.49,2-2.29,8.17-7.48,10.27a11.06,11.06,0,0,1-1.62.49" transform="translate(0.33)"/><path class="cls-11" d="M74.69,87.75A26.69,26.69,0,0,0,72.28,91a27.14,27.14,0,0,0-2.81,5.77" transform="translate(0.33)"/><path class="cls-11" d="M73.75,85.75A8.18,8.18,0,0,0,70.81,88C68,91.31,69,95.76,69.13,96.39" transform="translate(0.33)"/><path class="cls-11" d="M72.45,87.88A20.42,20.42,0,0,1,71.26,91a20.83,20.83,0,0,1-2.93,4.51" transform="translate(0.33)"/><path class="cls-11" d="M67.48,90.86a7.56,7.56,0,0,0-.35,1.42,8.72,8.72,0,0,0-.08,1.85" transform="translate(0.33)"/><path class="cls-11" d="M71.7,85.68a6.67,6.67,0,0,0-3.53,2.73c-2,3.12-.25,6.6-.14,6.81" transform="translate(0.33)"/><path class="cls-11" d="M73.66,83.34a4.87,4.87,0,0,0-2.14,1.11c-1.8,1.64-1.21,3.84-2.88,6.26A8.35,8.35,0,0,1,66.13,93" transform="translate(0.33)"/><path class="cls-11" d="M68.22,86a34.85,34.85,0,0,0,.35,4,34,34,0,0,0,2.2,8.06" transform="translate(0.33)"/><path class="cls-11" d="M68,83.09a6.64,6.64,0,0,1,1.06,5.43,6.57,6.57,0,0,1-3.27,4.06" transform="translate(0.33)"/><path class="cls-11" d="M65.08,85a11.28,11.28,0,0,0,.08,5.16,11.46,11.46,0,0,0,1.89,4" transform="translate(0.33)"/><path class="cls-12" d="M85,111.82c.22-.27-2.26-2.42-8-7.75-9.45-8.84-12-11.68-14-16-1.22-2.61-.74-2.55-1.81-4.42-3.39-6-9.38-8.53-13.72-10.32-7-2.87-7.12-1-14.7-4.12C27,66.87,24.27,64.63,22.5,65.89,20.94,67,21.29,70,21.76,74c.34,2.94.72,6.16,2.83,9.46.4.63,1.19,1.76,7.34,7,3.11,2.63,3.52,3.83,5.32,4.39,2.44.76,3.61-.27,6.56-.14,3.24.14,3.78,1.47,8,3.08,6,2.25,7.61.68,15.74,3.31a23.49,23.49,0,0,1,5,2.11c2.55,1.49,3.16,2.58,6.08,4.83S84.78,112.12,85,111.82Z" transform="translate(0.33)"/><path class="cls-13" d="M106.07,124.6a2.6,2.6,0,0,1-.93-.18,2.41,2.41,0,0,1-.79-.52c-3-2.83-4.56-4.24-4.83-4.59-1.25-1.61-4.82-4-14.51-7.49l-1.26-1.5c.23,0,.59-.08,1-.17a12.47,12.47,0,0,0,2.2-.73c1.44-.54,3.55,1.08,4.76,2,6.54,5,5.18,3.6,6.86,5.13A68.39,68.39,0,0,1,106.07,124.6Z" transform="translate(0.33)"/><path class="cls-14" d="M71.54,110.31a31.62,31.62,0,0,1-8.87-1.21A34.09,34.09,0,0,1,53,104.47C44.09,98.71,34.54,95.1,34.61,95s3.68,2.55,6.34,1.26c1-.48,1.51-1.35,2.86-1.55a4.45,4.45,0,0,1,2.7.55,31.27,31.27,0,0,0,3.93,2,30.75,30.75,0,0,0,10.62,2.25,18.86,18.86,0,0,0,10.48,10.88Z" transform="translate(0.33)"/><path class="cls-15" d="M41.19,138.6a88.18,88.18,0,0,0,8.23-5.67c9-7,11-11.35,17.29-15.31a35.35,35.35,0,0,1,15.65-5.13c-10.1-.57-16,2.14-19.54,4.66-5.24,3.75-6.17,7.82-11.9,11.53a28.61,28.61,0,0,1-16,4.19,7.21,7.21,0,0,1,2.83,1.65c.73.71,1,1.32,2.34,2.89C40.57,137.93,41,138.34,41.19,138.6Z" transform="translate(0.33)"/><ellipse class="cls-16" cx="114.82" cy="63.53" rx="6.5" ry="3.85" transform="translate(41.51 172.14) rotate(-84.82)"/><path class="cls-17" d="M95.88,75.53a6.46,6.46,0,0,0,.45-2.78,6.85,6.85,0,0,0-2.06-4.37l-1.8,3.46a10.45,10.45,0,0,0,1.4,2.92A9,9,0,0,0,97,77.63c.51.27,1.46.7,1.6.5s-.85-1.22-1-1.32A7.75,7.75,0,0,0,95.88,75.53Z" transform="translate(0.33)"/><path class="cls-18" d="M107.49,72.91c-.16.16-1.15-.5-1.88-1.27a7.06,7.06,0,0,1-1.73-3.37,7.76,7.76,0,0,1,.06-3.51L106,67.14l-1.55,1.57a18.78,18.78,0,0,1,1.63,1.85C106.3,70.84,107.73,72.68,107.49,72.91Z" transform="translate(0.33)"/><path class="cls-19" d="M97.46,58.17a9.37,9.37,0,0,0-3.9-1c-3.85-.1-6.58,2.35-7.76,3.41-5.71,5.14-5,13.77-4.83,15A22.12,22.12,0,0,0,88.49,74a22.53,22.53,0,0,0,9.36-7.1Z" transform="translate(0.33)"/><path class="cls-20" d="M97.85,66.93c-1-1.64-1.73-3.07-2.26-4.17a13.72,13.72,0,0,1-1.32-3.62,12.83,12.83,0,0,1-.19-1.93,8.27,8.27,0,0,0-1.57,0,8.63,8.63,0,0,0-1.32.22,17.61,17.61,0,0,0,5.41,11Z" transform="translate(0.33)"/><path class="cls-21" d="M95.41,69.61a18.38,18.38,0,0,1-2.76-3.09,18.8,18.8,0,0,1-3.23-8.45A14.91,14.91,0,0,0,87,59.55a15.86,15.86,0,0,0-1.9,1.68A19.47,19.47,0,0,0,87.74,67a18,18,0,0,0,1.84,2.3,16.69,16.69,0,0,0,3.1,2.54c.36-.24.72-.5,1.08-.79C94.37,70.53,94.92,70.06,95.41,69.61Z" transform="translate(0.33)"/><path class="cls-22" d="M83.69,63a22.67,22.67,0,0,0,2.5,5.37,23.07,23.07,0,0,0,4.08,4.82c-.53.27-1.13.55-1.78.81s-1.39.51-2,.69a10.65,10.65,0,0,1-5-6.52A15.51,15.51,0,0,1,82.16,66,16.48,16.48,0,0,1,83.69,63Z" transform="translate(0.33)"/><path class="cls-23" d="M84.57,75.18a14.91,14.91,0,0,1-2-2.12A16.27,16.27,0,0,1,81,70.58c-.09.73-.15,1.54-.17,2.43a20.83,20.83,0,0,0,.1,2.58c.52,0,1.08,0,1.67-.11S84,75.3,84.57,75.18Z" transform="translate(0.33)"/><ellipse class="cls-24" cx="100.68" cy="61.74" rx="5.31" ry="4.69" transform="translate(14.65 142.3) rotate(-74.53)"/><ellipse class="cls-25" cx="110.67" cy="63.81" rx="6.79" ry="8.26" transform="translate(-10.2 23.44) rotate(-11.55)"/><ellipse class="cls-26" cx="110.17" cy="62.65" rx="4.65" ry="7.86" transform="translate(-5.62 11.88) rotate(-6.01)"/><path class="cls-27" d="M98.86,69.54a12,12,0,0,0,.42-3.63c-.08-2-.69-4.42-1.26-4.41s-1.11,2.64-1.11,4.76a13.73,13.73,0,0,0,.35,2.95A16.61,16.61,0,0,0,98,72.9c.44,1.32,1.43,4.2,3.91,5.89.17.11,1.31.89,1.51.68s-.37-1-1-1.54-1.12-.65-1.36-1.19a2.29,2.29,0,0,1,0-1.25,6.47,6.47,0,0,0-.6-3A11,11,0,0,0,98.86,69.54Z" transform="translate(0.33)"/><path class="cls-28" d="M91.59,76a8.16,8.16,0,0,1,1.52,1.16c.12.11,1.21,1.17,1,1.39s-1.15-.22-1.89-.78a4.9,4.9,0,0,1-1.32-1.53,6.43,6.43,0,0,1-2-1.83A7.21,7.21,0,0,1,87.82,69c.37-1.56.77-3.11,1.21-4.73a6,6,0,0,1,1.49-2.71,1.7,1.7,0,0,1,.76-.47c1.14-.32,2.34.81,3.53,1.93A15.75,15.75,0,0,1,97,65.49l-.06.77a23.49,23.49,0,0,1-2.52-1.66,22.6,22.6,0,0,1-2.26-2,17.53,17.53,0,0,1-.69,3A16.88,16.88,0,0,1,90,68.86a8,8,0,0,1,1.88,5.68A7.28,7.28,0,0,1,91.59,76Z" transform="translate(0.33)"/><path class="cls-29" d="M102.67,69.8a13.44,13.44,0,0,0,.47-1.73,9.28,9.28,0,0,0-.11-5c-.19-.54-.39-1.11-.67-1.11-.5,0-1,1.77-1.13,3.23a9.08,9.08,0,0,0,1.51,5.5c1.24,1.82,3.05,3,3.22,2.85s-.73-1.28-1.07-1.7A11,11,0,0,0,102.67,69.8Z" transform="translate(0.33)"/><path class="cls-30" d="M101.59,56.51l-2-2.8L97.51,51l-4.15-5.46a42.51,42.51,0,0,0-4.43-5.2,10.92,10.92,0,0,0-2.65-2,2.62,2.62,0,0,0-2.93.48,3.46,3.46,0,0,0-1.23,2.85,8.56,8.56,0,0,0,.82,3.22,24.07,24.07,0,0,0,3.7,5.67,24.94,24.94,0,0,0,11.61,6.9,24.07,24.07,0,0,1-11.89-6.64A23,23,0,0,1,82.53,45a9,9,0,0,1-.88-3.39A3.93,3.93,0,0,1,83,38.38a3.49,3.49,0,0,1,1.64-.79,2.89,2.89,0,0,1,1.81.26A11.25,11.25,0,0,1,89.24,40a37.8,37.8,0,0,1,4.42,5.29l4,5.55,2,2.8Z" transform="translate(0.33)"/><path class="cls-31" d="M104.63,58.56c-2-3.9-3.91-7.82-5.9-11.7-1-1.93-2-3.88-3.06-5.79A14.62,14.62,0,0,0,94,38.39a3.61,3.61,0,0,0-2.59-1.3,2.53,2.53,0,0,0-1.38.29,2.55,2.55,0,0,0-.91,1.08,7,7,0,0,0-.53,3,13.13,13.13,0,0,0,1.65,6.1,28.78,28.78,0,0,0,4.25,4.88,49.13,49.13,0,0,0,4.93,4.3,42.89,42.89,0,0,1-5.18-4A29.13,29.13,0,0,1,89.7,47.9a13.3,13.3,0,0,1-1.84-6.39,7.72,7.72,0,0,1,.57-3.36,2.9,2.9,0,0,1,3-1.8,4,4,0,0,1,1.72.46,5.09,5.09,0,0,1,1.36,1.11,15.6,15.6,0,0,1,1.79,2.83c1,1.94,2,3.88,3,5.86C101.13,50.55,102.94,54.53,104.63,58.56Z" transform="translate(0.33)"/><path class="cls-32" d="M104.28,52.33a20.63,20.63,0,0,1-4.12-12.53,26.52,26.52,0,0,0,4.12,12.53Z" transform="translate(0.33)"/><path class="cls-33" d="M106.44,51.2a24.24,24.24,0,0,1-1.12-3.44,15.12,15.12,0,0,1-.27-3.61c.13,1.2.27,2.39.51,3.56a17.72,17.72,0,0,0,.44,1.74C106.16,50,106.3,50.61,106.44,51.2Z" transform="translate(0.33)"/><path class="cls-34" d="M110.23,50.41a11.9,11.9,0,0,1-2.56-6.58,23.32,23.32,0,0,0,1,3.4A21.71,21.71,0,0,0,110.23,50.41Z" transform="translate(0.33)"/><path class="cls-35" d="M92.51,57.22a21.81,21.81,0,0,1-6.7-4.28,22.09,22.09,0,0,1-2.62-3,20,20,0,0,1-2-3.42A25.21,25.21,0,0,0,92.51,57.22Z" transform="translate(0.33)"/><path class="cls-36" d="M83.34,54.82a11,11,0,0,1-1.76-1.9,8.06,8.06,0,0,1-1.09-2.34,20.85,20.85,0,0,0,1.3,2.2,7,7,0,0,0,.77,1Q83,54.3,83.34,54.82Z" transform="translate(0.33)"/><path class="cls-37" d="M83.35,61a22.72,22.72,0,0,0-3.07,6.56,23,23,0,0,0-.86,7.2A19,19,0,0,1,83.35,61Z" transform="translate(0.33)"/><path class="cls-38" d="M77.61,69.69a13.33,13.33,0,0,0-.44,2.65A12.64,12.64,0,0,0,77.29,75,6.92,6.92,0,0,1,77.61,69.69Z" transform="translate(0.33)"/><path class="cls-39" d="M76,77.57a11.93,11.93,0,0,1-.25-2,14.72,14.72,0,0,1,.08-2,13.21,13.21,0,0,1,.16,2c0,.33,0,.66,0,1S76,77.24,76,77.57Z" transform="translate(0.33)"/><path class="cls-40" d="M116.82,71.91a11,11,0,0,1-3.46,2.24,11.94,11.94,0,0,1-4,.87l0-.23a11.79,11.79,0,0,1,2.27.8,1.87,1.87,0,0,1,1,.8.6.6,0,0,1-.16.64,2.16,2.16,0,0,1-.51.36,11,11,0,0,1-2.29.77c-.78.17-1.57.31-2.36.43.78-.17,1.56-.35,2.33-.56a10,10,0,0,0,2.23-.79c.32-.17.72-.46.58-.78a1.78,1.78,0,0,0-.87-.68,16.55,16.55,0,0,0-2.25-.77l-.74-.22h.77A12,12,0,0,0,116.82,71.91Z" transform="translate(0.33)"/><path class="cls-41" d="M122.91,64.86a4.15,4.15,0,0,1-1.83,3.29,9.7,9.7,0,0,0,1.1-1.55A8.64,8.64,0,0,0,122.91,64.86Z" transform="translate(0.33)"/><ellipse class="cls-42" cx="110.17" cy="60.37" rx="1.74" ry="4.16" transform="translate(-11.29 29.56) rotate(-14.53)"/><path class="cls-10" d="M122.21,49.46a11.14,11.14,0,0,0-.08,2.37,3.17,3.17,0,0,0,.45,1.68c.21.32.71.9,1,.79s.4-1.62.34-2.47c-.09-1.66-.23-3.86-1.06-4.07-.53-.13-1.17.58-2.81,3.07-1,1.58-2.39,3.75-3.83,6.47l.25.14.21.15a45.07,45.07,0,0,1,2.66-4.43A42.35,42.35,0,0,1,122.21,49.46Z" transform="translate(0.33)"/><path class="cls-10" d="M117.58,47.18a14.39,14.39,0,0,0,.2,1.78c.24,1.45.51,1.81.78,2,.11.08.46.36.7.24s.21-1.08,0-2.46a9.5,9.5,0,0,0-.6-2.27c-.41-1-.64-1.08-.73-1.09-.3,0-.7.25-1.26,1.22a13.31,13.31,0,0,0-1.54,5.44c-.21,1.82-.37,3.51-.49,5l.32,0c.2-1.55.43-2.85.62-3.82a23.07,23.07,0,0,1,1.06-4A15.58,15.58,0,0,1,117.58,47.18Z" transform="translate(0.33)"/><circle class="cls-10" cx="85.62" cy="76.13" r="0.72"/><circle class="cls-10" cx="82.14" cy="70.5" r="0.33"/><circle class="cls-10" cx="82.96" cy="72.27" r="0.49"/><circle class="cls-10" cx="79.91" cy="73.02" r="0.26"/><circle class="cls-10" cx="85.07" cy="65.84" r="0.55"/><circle class="cls-10" cx="83.57" cy="78.19" r="0.35"/><circle class="cls-10" cx="87.28" cy="80.6" r="0.53"/><circle class="cls-10" cx="76.72" cy="78.68" r="0.42"/><circle class="cls-10" cx="80.34" cy="77.74" r="0.44"/><circle class="cls-10" cx="81.92" cy="80.14" r="0.63"/><circle class="cls-10" cx="86.68" cy="82.89" r="0.47"/></svg>