<svg id="Calque_1" data-name="Calque 1" xmlns="http://www.w3.org/2000/svg" xmlns:xlink="http://www.w3.org/1999/xlink" viewBox="0 0 146.95 146.97"><defs><style>.cls-1{fill:#f9ecd8;}.cls-2{fill:url(#Dégradé_sans_nom_41);}.cls-3{fill:url(#Dégradé_sans_nom_21);}.cls-4{fill:url(#Dégradé_sans_nom_21-2);}.cls-5{fill:url(#Dégradé_sans_nom_21-3);}.cls-6{fill:url(#Dégradé_sans_nom_21-4);}.cls-7{fill:url(#Dégradé_sans_nom_21-5);}.cls-8{fill:url(#Dégradé_sans_nom_21-6);}.cls-9{fill:url(#Dégradé_sans_nom_21-7);}.cls-10{fill:#1d1d1b;}.cls-11{fill:none;stroke:#1d1d1b;stroke-miterlimit:10;stroke-width:0.15px;}.cls-12{fill:url(#Dégradé_sans_nom_21-8);}.cls-13{fill:url(#Dégradé_sans_nom_21-9);}.cls-14{fill:url(#Dégradé_sans_nom_21-10);}.cls-15{fill:url(#Dégradé_sans_nom_21-11);}.cls-16{fill:url(#Dégradé_sans_nom_55);}.cls-17{fill:url(#Dégradé_sans_nom_55-2);}.cls-18{fill:url(#Dégradé_sans_nom_55-3);}.cls-19{fill:url(#Dégradé_sans_nom_29);}.cls-20{fill:url(#Dégradé_sans_nom_55-4);}.cls-21{fill:url(#Dégradé_sans_nom_55-5);}.cls-22{fill:url(#Dégradé_sans_nom_55-6);}.cls-23{fill:url(#Dégradé_sans_nom_55-7);}.cls-24{fill:url(#Dégradé_sans_nom_55-8);}.cls-25{fill:url(#Dégradé_sans_nom_80);}.cls-26{fill:url(#Dégradé_sans_nom_55-9);}.cls-27{fill:url(#Dégradé_sans_nom_55-10);}.cls-28{fill:url(#Dégradé_sans_nom_55-11);}.cls-29{fill:url(#Dégradé_sans_nom_55-12);}.cls-30{fill:url(#Dégradé_sans_nom_55-13);}.cls-31{fill:url(#Dégradé_sans_nom_55-14);}.cls-32{fill:url(#Dégradé_sans_nom_55-15);}.cls-33{fill:url(#Dégradé_sans_nom_55-16);}.cls-34{fill:url(#Dégradé_sans_nom_55-17);}.cls-35{fill:url(#Dégradé_sans_nom_55-18);}.cls-36{fill:url(#Dégradé_sans_nom_55-19);}.cls-37{fill:url(#Dégradé_sans_nom_55-20);}.cls-38{fill:url(#Dégradé_sans_nom_55-21);}.cls-39{fill:url(#Dégradé_sans_nom_55-22);}.cls-40{fill:url(#Dégradé_sans_nom_55-23);}.cls-41{fill:url(#Dégradé_sans_nom_55-24);}.cls-42{fill:#fff;}</style><linearGradient id="Dégradé_sans_nom_41" x1="73.66" y1="-117.68" x2="53.7" y2="-83.11" gradientTransform="matrix(0.68, -0.08, 0.04, 0.32, 18.57, 177.09)" gradientUnits="userSpaceOnUse"><stop offset="0" stop-color="#5d4229"/><stop offset="1" stop-color="#7b5a2f"/></linearGradient><linearGradient id="Dégradé_sans_nom_21" x1="66.68" y1="144" x2="37.39" y2="93.27" gradientTransform="translate(-11.47 -0.35) rotate(-6.9)" gradientUnits="userSpaceOnUse"><stop offset="0.14" stop-color="#72c6ce"/><stop offset="0.5" stop-color="#2773ba"/><stop offset="1" stop-color="#2b2b6a"/></linearGradient><linearGradient id="Dégradé_sans_nom_21-2" x1="11.72" y1="142.86" x2="4.96" y2="131.15" xlink:href="#Dégradé_sans_nom_21"/><linearGradient id="Dégradé_sans_nom_21-3" x1="15.24" y1="140.83" x2="6.02" y2="124.87" xlink:href="#Dégradé_sans_nom_21"/><linearGradient id="Dégradé_sans_nom_21-4" x1="65.98" y1="110.1" x2="65.98" y2="153.26" xlink:href="#Dégradé_sans_nom_21"/><linearGradient id="Dégradé_sans_nom_21-5" x1="19.22" y1="112.3" x2="64.9" y2="66.62" xlink:href="#Dégradé_sans_nom_21"/><linearGradient id="Dégradé_sans_nom_21-6" x1="51.2" y1="115.96" x2="51.2" y2="68.01" xlink:href="#Dégradé_sans_nom_21"/><linearGradient id="Dégradé_sans_nom_21-7" x1="64.72" y1="122.08" x2="61.06" y2="115.76" xlink:href="#Dégradé_sans_nom_21"/><linearGradient id="Dégradé_sans_nom_21-8" x1="74.74" y1="98.36" x2="93.99" y2="117.61" xlink:href="#Dégradé_sans_nom_21"/><linearGradient id="Dégradé_sans_nom_21-9" x1="41.49" y1="119.71" x2="41.49" y2="131.43" xlink:href="#Dégradé_sans_nom_21"/><linearGradient id="Dégradé_sans_nom_21-10" x1="80.57" y1="122.59" x2="80.57" y2="111.24" xlink:href="#Dégradé_sans_nom_21"/><linearGradient id="Dégradé_sans_nom_21-11" x1="73.39" y1="151" x2="73.39" y2="123.14" xlink:href="#Dégradé_sans_nom_21"/><linearGradient id="Dégradé_sans_nom_55" x1="-185.48" y1="52.19" x2="-179.23" y2="52.19" gradientTransform="matrix(0, -1.11, -0.81, 0, 165.42, -166.95)" gradientUnits="userSpaceOnUse"><stop offset="0" stop-color="#7f5e19"/><stop offset="0.23"/><stop offset="1"/></linearGradient><linearGradient id="Dégradé_sans_nom_55-2" x1="-195.6" y1="9.7" x2="-188.76" y2="9.7" gradientTransform="matrix(-0.96, -0.27, -0.27, 0.96, -76.36, -16.01)" xlink:href="#Dégradé_sans_nom_55"/><linearGradient id="Dégradé_sans_nom_55-3" x1="-202.09" y1="3.6" x2="-197.03" y2="3.6" gradientTransform="matrix(-0.96, -0.27, -0.27, 0.96, -76.36, -16.01)" xlink:href="#Dégradé_sans_nom_55"/><linearGradient id="Dégradé_sans_nom_29" x1="-188.79" y1="9.56" x2="-178.5" y2="0.15" gradientTransform="matrix(-0.96, -0.27, -0.27, 0.96, -76.36, -16.01)" gradientUnits="userSpaceOnUse"><stop offset="0" stop-color="#f7dcb4"/><stop offset="0.36" stop-color="#fab743"/><stop offset="0.7" stop-color="#7f5e19"/></linearGradient><linearGradient id="Dégradé_sans_nom_55-4" x1="-192.52" y1="4.31" x2="-184.42" y2="-3.1" gradientTransform="matrix(-0.96, -0.27, -0.27, 0.96, -76.36, -16.01)" xlink:href="#Dégradé_sans_nom_55"/><linearGradient id="Dégradé_sans_nom_55-5" x1="-189.82" y1="8.31" x2="-180.87" y2="0.14" gradientTransform="matrix(-0.96, -0.27, -0.27, 0.96, -76.36, -16.01)" xlink:href="#Dégradé_sans_nom_55"/><linearGradient id="Dégradé_sans_nom_55-6" x1="-185.58" y1="12.85" x2="-177.5" y2="5.47" gradientTransform="matrix(-0.96, -0.27, -0.27, 0.96, -76.36, -16.01)" xlink:href="#Dégradé_sans_nom_55"/><linearGradient id="Dégradé_sans_nom_55-7" x1="-181.7" y1="15.27" x2="-177.85" y2="11.75" gradientTransform="matrix(-0.96, -0.27, -0.27, 0.96, -76.36, -16.01)" xlink:href="#Dégradé_sans_nom_55"/><linearGradient id="Dégradé_sans_nom_55-8" x1="-196.79" y1="1.65" x2="-190.15" y2="-4.42" gradientTransform="matrix(0, -1, -1, 0, 109.08, -159.2)" xlink:href="#Dégradé_sans_nom_55"/><radialGradient id="Dégradé_sans_nom_80" cx="-202.66" cy="-1.99" r="6.82" gradientTransform="matrix(-0.89, -0.45, -0.45, 0.89, -61.96, -54.16)" gradientUnits="userSpaceOnUse"><stop offset="0" stop-color="#f4bc5d"/><stop offset="0.42" stop-color="#e5a93d"/><stop offset="0.99" stop-color="#7f5e19"/></radialGradient><linearGradient id="Dégradé_sans_nom_55-9" x1="-145.85" y1="47.02" x2="-139.6" y2="47.02" gradientTransform="matrix(-1.34, 0, 0, 0.98, -72.51, -10.89)" xlink:href="#Dégradé_sans_nom_55"/><linearGradient id="Dégradé_sans_nom_55-10" x1="-200.15" y1="6.24" x2="-190.8" y2="6.24" gradientTransform="matrix(-0.96, -0.27, -0.27, 0.96, -76.36, -16.01)" xlink:href="#Dégradé_sans_nom_55"/><linearGradient id="Dégradé_sans_nom_55-11" x1="-191.84" y1="7.49" x2="-183.94" y2="7.49" gradientTransform="matrix(-0.96, -0.27, -0.27, 0.96, -76.36, -16.01)" xlink:href="#Dégradé_sans_nom_55"/><linearGradient id="Dégradé_sans_nom_55-12" x1="-200.91" y1="3.03" x2="-194.62" y2="3.03" gradientTransform="matrix(-0.96, -0.27, -0.27, 0.96, -76.36, -16.01)" xlink:href="#Dégradé_sans_nom_55"/><linearGradient id="Dégradé_sans_nom_55-13" x1="107.38" y1="32" x2="95.27" y2="12.69" gradientTransform="matrix(1, 0, 0, 1, 0, 0)" xlink:href="#Dégradé_sans_nom_55"/><linearGradient id="Dégradé_sans_nom_55-14" x1="112.33" y1="32.52" x2="99.62" y2="12.26" gradientTransform="matrix(1, 0, 0, 1, 0, 0)" xlink:href="#Dégradé_sans_nom_55"/><linearGradient id="Dégradé_sans_nom_55-15" x1="114.9" y1="25.04" x2="108.73" y2="15.19" gradientTransform="matrix(1, 0, 0, 1, 0, 0)" xlink:href="#Dégradé_sans_nom_55"/><linearGradient id="Dégradé_sans_nom_55-16" x1="116.66" y1="24.16" x2="113.4" y2="18.96" gradientTransform="matrix(1, 0, 0, 1, 0, 0)" xlink:href="#Dégradé_sans_nom_55"/><linearGradient id="Dégradé_sans_nom_55-17" x1="119.56" y1="23.74" x2="116.21" y2="18.41" gradientTransform="matrix(1, 0, 0, 1, 0, 0)" xlink:href="#Dégradé_sans_nom_55"/><linearGradient id="Dégradé_sans_nom_55-18" x1="101.56" y1="31.22" x2="94.28" y2="19.61" gradientTransform="matrix(1, 0, 0, 1, 0, 0)" xlink:href="#Dégradé_sans_nom_55"/><linearGradient id="Dégradé_sans_nom_55-19" x1="94.65" y1="28.16" x2="92.18" y2="24.22" gradientTransform="matrix(1, 0, 0, 1, 0, 0)" xlink:href="#Dégradé_sans_nom_55"/><linearGradient id="Dégradé_sans_nom_55-20" x1="95.38" y1="43.54" x2="90.71" y2="36.1" gradientTransform="matrix(1, 0, 0, 1, 0, 0)" xlink:href="#Dégradé_sans_nom_55"/><linearGradient id="Dégradé_sans_nom_55-21" x1="90.57" y1="45.53" x2="88.42" y2="42.11" gradientTransform="matrix(1, 0, 0, 1, 0, 0)" xlink:href="#Dégradé_sans_nom_55"/><linearGradient id="Dégradé_sans_nom_55-22" x1="88.98" y1="48.13" x2="87.27" y2="45.4" gradientTransform="matrix(1, 0, 0, 1, 0, 0)" xlink:href="#Dégradé_sans_nom_55"/><linearGradient id="Dégradé_sans_nom_55-23" x1="121.57" y1="47.83" x2="119.62" y2="44.72" gradientTransform="matrix(1, 0, 0, 1, 0, 0)" xlink:href="#Dégradé_sans_nom_55"/><linearGradient id="Dégradé_sans_nom_55-24" x1="130.19" y1="39.35" x2="129.23" y2="37.81" gradientTransform="matrix(1, 0, 0, 1, 0, 0)" xlink:href="#Dégradé_sans_nom_55"/></defs><rect class="cls-1" width="146.95" height="146.95"/><path class="cls-2" d="M57.43,147q1.64-6.74,3.28-13.49l-1.33-.32L56,147Z" transform="translate(-0.45)"/><path class="cls-3" d="M85.74,124c.85-3.67-15.15-10.26-14.22-12.47.2-.48,1.12-.43,1.39-.53a65.29,65.29,0,0,0,17.34-10.1c-14-8.08-26.14-9.56-33.18-9.74-20.56-.54-42.49,9-42.22,16,.09,2.27,2.45,2.09,5.64,6.91,5,7.58,2.18,12.54,6.45,18.48,2.57,3.58,7.23,6.83,12.17,7.25,8.17.71,10.27-7.4,22-11.48C74.39,123.64,85.06,126.92,85.74,124Z" transform="translate(-0.45)"/><path class="cls-4" d="M13.82,125.79a16,16,0,0,0-4.4,6.32c-.68,1.82-1.58,4.21-.52,6.12.53,1,1.1,1,1.51,2.12.65,1.78-.2,3.26.45,3.7.25.17.72.19,1.73-.42l4-17.29Z" transform="translate(-0.45)"/><path class="cls-5" d="M23.47,124.81a11.37,11.37,0,0,0-3.23,2.65c-2,2.37-2.3,4.81-2.91,7a26.06,26.06,0,0,1-4.74,9.14c0-.49,0-1.26,0-2.2a37.73,37.73,0,0,1,.57-4.76c.43-2.38.24-3.16.54-9.36.09-1.89.24-4.62.5-8Z" transform="translate(-0.45)"/><path class="cls-6" d="M36.78,110.37a55.47,55.47,0,0,1-10,4.91c-7.48,2.68-12.3,2.29-12.59,4.07s3.85,4.57,7.87,5.29,7.66-.87,10.26.91a3.84,3.84,0,0,0,2.45.87c1.09-.08,1.41-.77,2.24-.85,1.5-.15,2.63,1.89,3.69,3.06,2.37,2.62,5.92,2.62,8.76,3,7,1,8.1,4.41,17.12,7.5,2.71.93,19.93,6.82,26.73-.12,1.72-1.75,2.58-4.12,5.62-5.17s4.21.5,7.34-.69c2.81-1.07,2.65-2.62,6-4,2.54-1.09,3.07-.37,5.51-1.25,3.92-1.42,7.74-5.15,7.1-7.5-.44-1.64-2.66-1.23-5.3-3.46s-2.42-4.15-4.29-8.07c-1.13-2.36-4.75-9.92-10.11-10.88-2.92-.53-4.38,1.26-8.26,2.75-6.6,2.54-11.53.86-18.12.25C61.6,99.38,44.47,106.08,36.78,110.37Z" transform="translate(-0.45)"/><path class="cls-7" d="M54.63,113.5c-2.19-.33-3.92-1.87-7.43-1.41a15.05,15.05,0,0,0-4.09,1.38c-5.08,2-10.47,0-14-1.31s-2.73-1.91-10.57-6.87S7.17,99.19,6,95.29C5.52,93.66,6.18,94,5.72,90,5.1,84.58,3.81,83.3,4,79.77a15.23,15.23,0,0,1,1.86-6.6c1.85-3.46,5.81-7.7,9.91-7.4,1.31.09,1.18.54,2.92.71a14.09,14.09,0,0,0,7.1-1.4c1.32-.55,8.14-3.28,15.1-2.67,2.81.24,6.15,1.07,9-.94a9.72,9.72,0,0,0,1-.85c3.58-3.11,17.19,0,24.2,9.65,4.24,5.88,6.81,15.25,3,21.39-1.3,2.1-2.09,1.79-6,5C61.43,105.45,59.89,114.27,54.63,113.5Z" transform="translate(-0.45)"/><path class="cls-8" d="M36.17,62.45a33.21,33.21,0,0,1,16.52,9.17,34.43,34.43,0,0,1,9.06,20.25c.72,6.85-.52,15.77-.48,15.77v0c.15-.68,2.86-13.51.11-25.25C58.44,69.74,50.27,63,47.11,62.62c-.35,0-2.28-.23-4.15-.39a27.16,27.16,0,0,0-3.85-.14A20,20,0,0,0,36.17,62.45Z" transform="translate(-0.45)"/><path class="cls-9" d="M53.82,114.89c-.13-.48,1.9-.82,5.42-3.57s3.9-4.39,6.21-5.85c1.84-1.16,4.91-2.36,10-1.76a17.07,17.07,0,0,1-3.34,5.5C65.57,116.38,54.13,116,53.82,114.89Z" transform="translate(-0.45)"/><ellipse class="cls-10" cx="56.47" cy="88.45" rx="0.58" ry="0.91" transform="translate(-10.67 7.43) rotate(-6.9)"/><ellipse class="cls-10" cx="58.87" cy="88.04" rx="0.45" ry="1.02" transform="translate(-10.61 7.72) rotate(-6.9)"/><circle class="cls-10" cx="60.83" cy="88.88" r="0.64"/><circle class="cls-10" cx="63.57" cy="88.99" r="0.44"/><ellipse class="cls-10" cx="63.98" cy="91.36" rx="0.32" ry="0.68" transform="translate(-10.97 8.35) rotate(-6.9)"/><ellipse class="cls-10" cx="61.51" cy="93.4" rx="0.32" ry="0.65" transform="translate(-11.23 8.07) rotate(-6.9)"/><circle class="cls-10" cx="57.95" cy="92.54" r="0.49"/><ellipse class="cls-10" cx="56.38" cy="91.11" rx="0.41" ry="0.74" transform="translate(-11 7.44) rotate(-6.9)"/><circle class="cls-10" cx="55.07" cy="92.89" r="0.49"/><ellipse class="cls-10" cx="56.8" cy="96.32" rx="0.21" ry="0.68" transform="translate(-11.62 7.53) rotate(-6.9)"/><ellipse class="cls-10" cx="58.78" cy="96.68" rx="0.38" ry="0.88" transform="translate(-11.65 7.77) rotate(-6.9)"/><ellipse class="cls-10" cx="57.94" cy="98.22" rx="0.29" ry="0.9" transform="translate(-11.84 7.68) rotate(-6.9)"/><circle class="cls-10" cx="55.46" cy="96.59" r="0.44"/><ellipse class="cls-10" cx="54.47" cy="94.56" rx="0.25" ry="0.95" transform="translate(-11.42 7.23) rotate(-6.9)"/><ellipse class="cls-10" cx="52.63" cy="94.58" rx="0.33" ry="0.75" transform="translate(-11.44 7.01) rotate(-6.9)"/><ellipse class="cls-10" cx="50.76" cy="92.87" rx="0.38" ry="1.08" transform="translate(-11.25 6.78) rotate(-6.9)"/><ellipse class="cls-10" cx="51.64" cy="93.02" rx="0.46" ry="0.83" transform="translate(-11.26 6.88) rotate(-6.9)"/><circle class="cls-10" cx="47.52" cy="94.87" r="0.48"/><ellipse class="cls-10" cx="50.17" cy="95.94" rx="0.33" ry="0.5" transform="translate(-11.62 6.73) rotate(-6.9)"/><circle class="cls-10" cx="51.63" cy="96.68" r="0.47"/><circle class="cls-10" cx="50.33" cy="99.95" r="0.45"/><circle class="cls-10" cx="52.17" cy="104.64" r="0.43"/><ellipse class="cls-10" cx="52.95" cy="101.85" rx="0.23" ry="0.6" transform="translate(-12.31 7.1) rotate(-6.9)"/><ellipse class="cls-10" cx="69.17" cy="88.96" rx="0.2" ry="0.59" transform="translate(-10.64 8.96) rotate(-6.9)"/><ellipse class="cls-10" cx="69.91" cy="90.06" rx="0.4" ry="0.58" transform="translate(-10.77 9.06) rotate(-6.9)"/><path class="cls-10" d="M72.17,90.42c0,.34-.06.64-.22.66s-.33-.24-.37-.59,0-.64.22-.66S72.13,90.07,72.17,90.42Z" transform="translate(-0.45)"/><circle class="cls-10" cx="69.58" cy="91.87" r="0.5"/><ellipse class="cls-10" cx="69.09" cy="91.39" rx="0.38" ry="0.59" transform="translate(-10.94 8.97) rotate(-6.9)"/><circle class="cls-10" cx="66.46" cy="95.25" r="0.36"/><ellipse class="cls-10" cx="65.17" cy="93.04" rx="0.21" ry="0.58" transform="translate(-11.16 8.51) rotate(-6.9)"/><circle class="cls-10" cx="65.41" cy="91.56" r="0.26"/><circle class="cls-10" cx="62.69" cy="93.17" r="0.46"/><ellipse class="cls-10" cx="69.96" cy="94.26" rx="0.35" ry="0.62" transform="translate(-11.28 9.09) rotate(-6.9)"/><ellipse class="cls-10" cx="69.71" cy="95.84" rx="0.09" ry="0.4" transform="translate(-11.47 9.08) rotate(-6.9)"/><ellipse class="cls-10" cx="68.04" cy="98.39" rx="0.2" ry="0.53" transform="translate(-11.79 8.89) rotate(-6.9)"/><ellipse class="cls-10" cx="69.47" cy="97.99" rx="0.41" ry="0.75" transform="translate(-11.73 9.06) rotate(-6.9)"/><circle class="cls-10" cx="62.98" cy="99.41" r="0.46"/><ellipse class="cls-10" cx="61.88" cy="97.07" rx="0.25" ry="0.43" transform="translate(-11.67 8.14) rotate(-6.9)"/><path class="cls-10" d="M64.59,97.34c0,.26,0,.49-.18.5s-.26-.18-.29-.44,0-.49.18-.5S64.56,97.08,64.59,97.34Z" transform="translate(-0.45)"/><ellipse class="cls-10" cx="66.21" cy="97.15" rx="0.33" ry="0.48" transform="translate(-11.65 8.66) rotate(-6.9)"/><ellipse class="cls-10" cx="65.65" cy="99.76" rx="0.33" ry="0.55" transform="translate(-11.97 8.62) rotate(-6.9)"/><circle class="cls-10" cx="58.99" cy="100.54" r="0.19"/><circle class="cls-10" cx="58.22" cy="104.2" r="0.29"/><ellipse class="cls-10" cx="55.58" cy="100.45" rx="0.15" ry="0.55" transform="translate(-12.12 7.41) rotate(-6.9)"/><circle class="cls-10" cx="56.01" cy="100.3" r="0.05"/><ellipse class="cls-10" cx="55.23" cy="101.88" rx="0.53" ry="0.3" transform="translate(-12.3 7.38) rotate(-6.9)"/><circle class="cls-10" cx="55.88" cy="102.14" r="0.39"/><ellipse class="cls-10" cx="54.57" cy="103.72" rx="0.23" ry="0.69" transform="translate(-12.52 7.31) rotate(-6.9)"/><ellipse class="cls-10" cx="55.47" cy="103.52" rx="0.33" ry="0.6" transform="translate(-12.49 7.42) rotate(-6.9)"/><ellipse class="cls-10" cx="57.99" cy="102.68" rx="0.21" ry="0.62" transform="translate(-12.37 7.72) rotate(-6.9)"/><ellipse class="cls-10" cx="59.62" cy="103.61" rx="0.38" ry="0.76" transform="translate(-12.47 7.92) rotate(-6.9)"/><ellipse class="cls-10" cx="57.37" cy="107.81" rx="0.34" ry="0.49" transform="translate(-13 7.68) rotate(-6.9)"/><ellipse class="cls-10" cx="58.23" cy="106.44" rx="0.21" ry="0.51" transform="translate(-12.83 7.77) rotate(-6.9)"/><ellipse class="cls-10" cx="56.16" cy="105.68" rx="0.6" ry="0.49" transform="translate(-12.75 7.52) rotate(-6.9)"/><path class="cls-10" d="M59.17,105.91l0,.42,0-.42-.05-.42Z" transform="translate(-0.45)"/><path class="cls-11" d="M56.57,88.8c.88,1.88,1.79,3.77,2.71,5.67q2.53,5.22,5.11,10.22" transform="translate(-0.45)"/><path class="cls-11" d="M58.91,88.55c.25.92.51,1.86.79,2.8a104,104,0,0,0,4.92,13.12" transform="translate(-0.45)"/><path class="cls-11" d="M61.22,89.21a20.85,20.85,0,0,1,.53,2.66,23.71,23.71,0,0,1-.16,7.55" transform="translate(-0.45)"/><path class="cls-11" d="M61.56,93.7a33.87,33.87,0,0,0,.46,6.4,33.26,33.26,0,0,0,1.41,5.51" transform="translate(-0.45)"/><path class="cls-11" d="M65.67,99.93a5.71,5.71,0,0,0-.12,1.11,5.59,5.59,0,0,0,.43,2.11" transform="translate(-0.45)"/><path class="cls-11" d="M66.32,97.22a7.08,7.08,0,0,1,.55,1.17,8.66,8.66,0,0,1,.54,3.34" transform="translate(-0.45)"/><path class="cls-11" d="M69.4,98.37a1.48,1.48,0,0,1,.19.78,1,1,0,0,1,0,.32" transform="translate(-0.45)"/><path class="cls-11" d="M70.15,94.61c0,.36.09.72.13,1.09.1,1,.14,1.89.15,2.75" transform="translate(-0.45)"/><path class="cls-11" d="M67,95.44c.2.44.39.91.58,1.41a19.46,19.46,0,0,1,1,3.83" transform="translate(-0.45)"/><path class="cls-11" d="M70.14,92.13a7.19,7.19,0,0,1,.73,1.31,7.4,7.4,0,0,1,.48,3.85" transform="translate(-0.45)"/><path class="cls-11" d="M69.93,90.41a7.36,7.36,0,0,1,.56.91,9.17,9.17,0,0,1,.37,6.6" transform="translate(-0.45)"/><path class="cls-11" d="M55.74,100.82a8.26,8.26,0,0,0,.33,1.81,10.53,10.53,0,0,0,4.46,5.71" transform="translate(-0.45)"/><path class="cls-11" d="M55.11,102.18a12,12,0,0,0,.65,1.73,13.52,13.52,0,0,0,4.1,5.06" transform="translate(-0.45)"/><path class="cls-11" d="M57.25,108a2.17,2.17,0,0,1,1.48.62,2,2,0,0,1,.52.92" transform="translate(-0.45)"/><path class="cls-11" d="M54.5,103.87A6,6,0,0,1,58,105.19a6.13,6.13,0,0,1,2.13,3.54" transform="translate(-0.45)"/><path class="cls-11" d="M52.78,104.63c.83.51,1.68,1.05,2.54,1.6,1.51,1,2.94,2,4.31,3" transform="translate(-0.45)"/><path class="cls-11" d="M56.15,105.89a6.59,6.59,0,0,1,4.42,1.72c.12.12.23.25.34.37" transform="translate(-0.45)"/><path class="cls-11" d="M52.93,102.09a10.59,10.59,0,0,0,1.44,2.49,11.58,11.58,0,0,0,6,3.94" transform="translate(-0.45)"/><path class="cls-11" d="M56.46,102.3c.3.41.62.84,1,1.26a31.83,31.83,0,0,0,3.85,4.08" transform="translate(-0.45)"/><path class="cls-11" d="M58.74,104.32a6.43,6.43,0,0,1,.73.44,6.35,6.35,0,0,1,2.08,2.62" transform="translate(-0.45)"/><path class="cls-11" d="M58.06,102.88a5.68,5.68,0,0,1,3.34,1.41,5.39,5.39,0,0,1,1.37,1.94" transform="translate(-0.45)"/><path class="cls-11" d="M59.52,103.79a4.4,4.4,0,0,1,1.48.79,4.57,4.57,0,0,1,1.4,2" transform="translate(-0.45)"/><path class="cls-11" d="M50.78,100a10.22,10.22,0,0,1,2.64.37c4.88,1.33,7.3,5.88,7.95,7.23" transform="translate(-0.45)"/><path class="cls-11" d="M52.2,96.91a16.6,16.6,0,0,1,4.69,2.73c3.59,3,5.3,7.19,5.14,7.29a14.29,14.29,0,0,1-3.13-5,16.54,16.54,0,0,1-.94-3.1" transform="translate(-0.45)"/><path class="cls-11" d="M55.91,96.59a29.13,29.13,0,0,0,5.14,5.11,29.5,29.5,0,0,0,3.82,2.53,8.86,8.86,0,0,0-.17-1.87,8.77,8.77,0,0,0-1.11-2.8" transform="translate(-0.45)"/><path class="cls-11" d="M56.67,96.68A16.38,16.38,0,0,1,63.05,106a17.88,17.88,0,0,0-3-4.47,18.71,18.71,0,0,0-9.77-5.37" transform="translate(-0.45)"/><path class="cls-11" d="M59.49,100.62c.33.76.69,1.54,1.07,2.33.58,1.22,1.18,2.37,1.77,3.46" transform="translate(-0.45)"/><path class="cls-11" d="M50.76,92.87A24.07,24.07,0,0,0,57.51,101a23.79,23.79,0,0,0,6.88,3.68" transform="translate(-0.45)"/><path class="cls-11" d="M51.64,93c6.45,1.44,11.23,5,12,9.45a7.87,7.87,0,0,1-.16,3.14c-.67-1.53-3.35-7.21-9.6-9.65A16.17,16.17,0,0,0,48,94.87" transform="translate(-0.45)"/><path class="cls-11" d="M54.47,94.56a76.43,76.43,0,0,0,6.79,5.94q2.2,1.69,4.29,3.07" transform="translate(-0.45)"/><path class="cls-11" d="M52.63,94.58c.43-.06,7.89-.93,11.6,4.17a9.76,9.76,0,0,1,1.75,4.4" transform="translate(-0.45)"/><path class="cls-11" d="M58.78,96.68a18,18,0,0,1,5.24,5,17.76,17.76,0,0,1,1.23,2.13" transform="translate(-0.45)"/><path class="cls-11" d="M55.8,92.87a33.34,33.34,0,0,0,5.46,6.84,33.75,33.75,0,0,0,4.5,3.65" transform="translate(-0.45)"/><path class="cls-11" d="M56.74,91.56a24,24,0,0,1,6.38,4.36c.72.71,1.29,1.37,1.43,1.53a22.38,22.38,0,0,1,2.86,4.28" transform="translate(-0.45)"/><path class="cls-11" d="M64.34,97.64A11.79,11.79,0,0,0,65,99.05a12.12,12.12,0,0,0,2.2,2.88" transform="translate(-0.45)"/><path class="cls-11" d="M62.11,97.28l.8.81a53.77,53.77,0,0,1,3.77,4.37" transform="translate(-0.45)"/><path class="cls-11" d="M58.23,93c.44,1.77,2.07,7.37,6.74,9.26a8.46,8.46,0,0,0,1.47.44" transform="translate(-0.45)"/><path class="cls-11" d="M63.14,93.17a24.57,24.57,0,0,1,2.17,2.9,25.07,25.07,0,0,1,2.54,5.21" transform="translate(-0.45)"/><path class="cls-11" d="M64,91.36a7.6,7.6,0,0,1,2.66,2c2.55,3,1.65,7,1.51,7.61" transform="translate(-0.45)"/><path class="cls-11" d="M65.16,93.29a18.17,18.17,0,0,0,1.08,2.85,18.62,18.62,0,0,0,2.63,4.07" transform="translate(-0.45)"/><path class="cls-11" d="M69.65,96A7.76,7.76,0,0,1,70,97.26,7.51,7.51,0,0,1,70,98.92" transform="translate(-0.45)"/><path class="cls-11" d="M65.83,91.3A6,6,0,0,1,69,93.76a6.67,6.67,0,0,1,.13,6.15" transform="translate(-0.45)"/><path class="cls-11" d="M64.07,89.19a4.46,4.46,0,0,1,1.93,1c1.62,1.48,1.09,3.47,2.6,5.65a7.29,7.29,0,0,0,2.26,2.08" transform="translate(-0.45)"/><path class="cls-11" d="M69,91.61a29.89,29.89,0,0,1-.31,3.58,31.24,31.24,0,0,1-2,7.27" transform="translate(-0.45)"/><path class="cls-11" d="M69.17,89a6,6,0,0,0-1,4.9,5.92,5.92,0,0,0,3,3.67" transform="translate(-0.45)"/><path class="cls-11" d="M71.81,90.7a10.22,10.22,0,0,1-.08,4.65A10,10,0,0,1,70,98.92" transform="translate(-0.45)"/><path class="cls-12" d="M53.82,114.89c-.19-.25,2-2.18,7.18-7,8.53-8,10.81-10.54,12.61-14.4,1.1-2.36.66-2.31,1.62-4,3.07-5.39,8.47-7.69,12.38-9.31,6.28-2.58,6.43-.94,13.27-3.71,5.29-2.15,7.75-4.17,9.34-3,1.41,1,1.1,3.72.68,7.3-.31,2.65-.65,5.56-2.56,8.54-.36.57-1.07,1.59-6.62,6.29-2.8,2.37-3.18,3.45-4.8,4-2.2.69-3.25-.25-5.92-.13-2.92.13-3.41,1.33-7.26,2.78-5.4,2-6.87.62-14.21,3A21.33,21.33,0,0,0,65,107.09c-2.3,1.34-2.85,2.32-5.48,4.35S54,115.15,53.82,114.89Z" transform="translate(-0.45)"/><path class="cls-13" d="M34.82,126.42a2.23,2.23,0,0,0,.84-.16,2.34,2.34,0,0,0,.72-.47c2.74-2.55,4.11-3.83,4.36-4.15,1.13-1.45,4.34-3.59,13.08-6.75L55,113.54c-.21,0-.53-.08-.92-.16a10.51,10.51,0,0,1-2-.66c-1.31-.49-3.2,1-4.29,1.81-5.91,4.51-4.68,3.24-6.2,4.63A60.93,60.93,0,0,0,34.82,126.42Z" transform="translate(-0.45)"/><path class="cls-14" d="M66,113.53a28.89,28.89,0,0,0,8-1.1,30.41,30.41,0,0,0,8.71-4.18c8.06-5.2,16.68-8.45,16.62-8.57S96,102,93.58,100.82c-.91-.44-1.36-1.23-2.58-1.41a4.05,4.05,0,0,0-2.44.5,27.09,27.09,0,0,1-13.12,3.8,16.93,16.93,0,0,1-2.86,4.94A17.29,17.29,0,0,1,66,113.53Z" transform="translate(-0.45)"/><path class="cls-15" d="M93.36,139.05a78.51,78.51,0,0,1-7.42-5.12c-8.11-6.3-9.92-10.23-15.6-13.81a32,32,0,0,0-14.12-4.63c9.11-.51,14.45,1.93,17.62,4.2,4.73,3.39,5.57,7.06,10.75,10.41A25.67,25.67,0,0,0,99,133.88a6.66,6.66,0,0,0-2.55,1.49c-.65.64-.9,1.19-2.11,2.6C93.92,138.45,93.58,138.82,93.36,139.05Z" transform="translate(-0.45)"/><ellipse class="cls-16" cx="123.22" cy="35.88" rx="5.87" ry="3.47" transform="translate(75.91 155.36) rotate(-84.82)"/><path class="cls-17" d="M106.14,46.71a5.84,5.84,0,0,0,.4-2.51,6.1,6.1,0,0,0-1.86-3.94l-1.62,3.12A9.54,9.54,0,0,0,104.33,46a8.2,8.2,0,0,0,2.8,2.59c.47.24,1.32.62,1.45.44s-.76-1.09-.86-1.19A7.29,7.29,0,0,0,106.14,46.71Z" transform="translate(-0.45)"/><path class="cls-18" d="M116.61,44.34c-.15.15-1-.45-1.7-1.14a6.54,6.54,0,0,1-1.56-3,7,7,0,0,1,.06-3.16l1.87,2.14-1.4,1.42a15,15,0,0,1,1.47,1.67C115.54,42.47,116.83,44.14,116.61,44.34Z" transform="translate(-0.45)"/><path class="cls-19" d="M107.56,31a8.46,8.46,0,0,0-3.52-.89c-3.48-.09-5.93,2.12-7,3.08-5.16,4.64-4.48,12.43-4.36,13.54a19.94,19.94,0,0,0,6.78-1.42,20.33,20.33,0,0,0,8.45-6.4Z" transform="translate(-0.45)"/><path class="cls-20" d="M107.91,39c-.89-1.48-1.56-2.77-2-3.76a12.32,12.32,0,0,1-1.18-3.27,10.2,10.2,0,0,1-.18-1.74,7.53,7.53,0,0,0-2.61.21,15.9,15.9,0,0,0,4.89,9.89Z" transform="translate(-0.45)"/><path class="cls-21" d="M105.71,41.37a16.33,16.33,0,0,1-2.48-2.79A16.93,16.93,0,0,1,100.3,31a14.07,14.07,0,0,0-2.15,1.33,14.25,14.25,0,0,0-1.71,1.52A17.5,17.5,0,0,0,98.79,39,15.46,15.46,0,0,0,100.45,41a14.47,14.47,0,0,0,2.8,2.29c.32-.21.65-.45,1-.7C104.78,42.2,105.27,41.78,105.71,41.37Z" transform="translate(-0.45)"/><path class="cls-22" d="M95.14,35.43a20.49,20.49,0,0,0,5.94,9.19,17.73,17.73,0,0,1-1.62.73,17.13,17.13,0,0,1-1.81.63,9.64,9.64,0,0,1-4.51-5.88,14.43,14.43,0,0,1,.62-2A14.61,14.61,0,0,1,95.14,35.43Z" transform="translate(-0.45)"/><path class="cls-23" d="M95.93,46.4a15,15,0,0,1-1.78-1.92,13.92,13.92,0,0,1-1.4-2.24,20.25,20.25,0,0,0-.16,2.19,19,19,0,0,0,.09,2.34c.47,0,1-.05,1.51-.11S95.4,46.5,95.93,46.4Z" transform="translate(-0.45)"/><ellipse class="cls-24" cx="110.47" cy="34.27" rx="4.79" ry="4.23" transform="translate(47.52 131.59) rotate(-74.53)"/><ellipse class="cls-25" cx="119.48" cy="36.14" rx="6.13" ry="7.45" transform="translate(-5.27 24.65) rotate(-11.55)"/><ellipse class="cls-26" cx="119.03" cy="35.09" rx="4.19" ry="7.09" transform="translate(-3.47 12.66) rotate(-6.01)"/><path class="cls-27" d="M108.82,41.31A10.58,10.58,0,0,0,109.2,38c-.07-1.79-.62-4-1.13-4s-1,2.38-1,4.3a11.61,11.61,0,0,0,.31,2.66,14.88,14.88,0,0,0,.7,3.33,10,10,0,0,0,3.53,5.31c.14.1,1.17.8,1.35.62s-.33-.87-.9-1.4-1-.58-1.22-1.07a2,2,0,0,1,0-1.13,5.75,5.75,0,0,0-.54-2.67A9.89,9.89,0,0,0,108.82,41.31Z" transform="translate(-0.45)"/><path class="cls-28" d="M102.26,47.11a7.72,7.72,0,0,1,1.38,1c.11.11,1.09,1.05.93,1.26s-1-.2-1.7-.71a4.39,4.39,0,0,1-1.19-1.38,5.8,5.8,0,0,1-1.83-1.65,6.5,6.5,0,0,1-1-4.89c.33-1.41.69-2.81,1.08-4.27a5.43,5.43,0,0,1,1.35-2.44,1.49,1.49,0,0,1,.69-.43c1-.29,2.11.73,3.18,1.74a14.4,14.4,0,0,1,2,2.26l-.05.7a19.69,19.69,0,0,1-4.32-3.29,15.3,15.3,0,0,1-.62,2.74,15.82,15.82,0,0,1-1.27,2.9,7.25,7.25,0,0,1,1.69,5.12A6,6,0,0,1,102.26,47.11Z" transform="translate(-0.45)"/><path class="cls-29" d="M112.26,41.54a13.56,13.56,0,0,0,.43-1.56,8.44,8.44,0,0,0-.1-4.49c-.17-.49-.35-1-.61-1-.45,0-.92,1.6-1,2.92a8.09,8.09,0,0,0,1.36,5c1.11,1.64,2.74,2.72,2.9,2.57s-.65-1.15-1-1.53A9.52,9.52,0,0,0,112.26,41.54Z" transform="translate(-0.45)"/><path class="cls-30" d="M111.28,29.55,109.5,27l-1.89-2.46-3.75-4.93a39,39,0,0,0-4-4.69,10.18,10.18,0,0,0-2.39-1.84,2.37,2.37,0,0,0-2.65.43,3.1,3.1,0,0,0-1.11,2.57A7.72,7.72,0,0,0,94.46,19a21.59,21.59,0,0,0,3.34,5.12,22.56,22.56,0,0,0,10.47,6.22,21.64,21.64,0,0,1-10.72-6,20.54,20.54,0,0,1-3.46-5.19,8,8,0,0,1-.8-3.06,3.57,3.57,0,0,1,1.25-2.92A3.26,3.26,0,0,1,96,12.47a2.61,2.61,0,0,1,1.63.24,10.4,10.4,0,0,1,2.5,1.94,35.45,35.45,0,0,1,4,4.77l3.65,5L109.59,27Z" transform="translate(-0.45)"/><path class="cls-31" d="M114,31.4,108.7,20.84c-.91-1.74-1.8-3.5-2.75-5.22a14.13,14.13,0,0,0-1.56-2.42A3.24,3.24,0,0,0,102.05,12a2.36,2.36,0,0,0-1.24.27,2.31,2.31,0,0,0-.82,1A6.27,6.27,0,0,0,99.51,16,11.92,11.92,0,0,0,101,21.51a25.68,25.68,0,0,0,3.84,4.4,39.92,39.92,0,0,0,4.44,3.88,42.08,42.08,0,0,1-4.67-3.64,25.92,25.92,0,0,1-4-4.37A11.94,11.94,0,0,1,98.9,16a6.86,6.86,0,0,1,.52-3,2.61,2.61,0,0,1,2.66-1.62,3.6,3.6,0,0,1,1.56.42,4.58,4.58,0,0,1,1.23,1,14.14,14.14,0,0,1,1.61,2.55q1.41,2.61,2.68,5.28T111.67,26Z" transform="translate(-0.45)"/><path class="cls-32" d="M113.72,25.78A18.6,18.6,0,0,1,110,14.47a23.77,23.77,0,0,0,3.72,11.31Z" transform="translate(-0.45)"/><path class="cls-33" d="M115.66,24.76a22.14,22.14,0,0,1-1-3.11,14.25,14.25,0,0,1-.24-3.26c.12,1.08.24,2.16.46,3.22a14.45,14.45,0,0,0,.4,1.57C115.41,23.7,115.54,24.23,115.66,24.76Z" transform="translate(-0.45)"/><path class="cls-34" d="M119.08,24a10.71,10.71,0,0,1-2.3-5.93A19.49,19.49,0,0,0,119.08,24Z" transform="translate(-0.45)"/><path class="cls-35" d="M103.09,30.18a19.19,19.19,0,0,1-10.24-9.66,22.86,22.86,0,0,0,10.24,9.66Z" transform="translate(-0.45)"/><path class="cls-36" d="M94.82,28a9.52,9.52,0,0,1-1.58-1.71,7.27,7.27,0,0,1-1-2.11,20.75,20.75,0,0,0,1.17,2,7.51,7.51,0,0,0,.69.91C94.36,27.4,94.59,27.71,94.82,28Z" transform="translate(-0.45)"/><path class="cls-37" d="M94.83,33.63a20.58,20.58,0,0,0-2.77,5.93,20.24,20.24,0,0,0-.77,6.49A17.08,17.08,0,0,1,94.83,33.63Z" transform="translate(-0.45)"/><path class="cls-38" d="M89.65,41.44a11.45,11.45,0,0,0-.29,4.8A6.25,6.25,0,0,1,89.65,41.44Z" transform="translate(-0.45)"/><path class="cls-39" d="M88.21,48.55A9.64,9.64,0,0,1,88,46.77,13.4,13.4,0,0,1,88.05,45a12,12,0,0,1,.15,1.78C88.2,47.36,88.26,48,88.21,48.55Z" transform="translate(-0.45)"/><path class="cls-40" d="M125,43.45a9.88,9.88,0,0,1-3.12,2,10.66,10.66,0,0,1-3.65.79l0-.21a10.85,10.85,0,0,1,2,.72,1.84,1.84,0,0,1,.87.72.53.53,0,0,1-.15.58,1.78,1.78,0,0,1-.46.33,10.27,10.27,0,0,1-2.07.69c-.7.16-1.41.28-2.13.39.71-.15,1.41-.31,2.11-.5a9.25,9.25,0,0,0,2-.72c.29-.15.65-.42.52-.7a1.61,1.61,0,0,0-.78-.61,15.18,15.18,0,0,0-2-.7l-.67-.2h.7A10.94,10.94,0,0,0,125,43.45Z" transform="translate(-0.45)"/><path class="cls-41" d="M130.53,37.08c0,.28-.09.57-.15.86a2.92,2.92,0,0,1-.32.82,3.85,3.85,0,0,1-1.18,1.29,8.82,8.82,0,0,0,1-1.4,3.39,3.39,0,0,0,.36-.77C130.31,37.62,130.41,37.35,130.53,37.08Z" transform="translate(-0.45)"/><ellipse class="cls-42" cx="119.03" cy="33.04" rx="1.57" ry="3.75" transform="translate(-4.93 30.91) rotate(-14.53)"/><path class="cls-10" d="M129.89,23.19a10.07,10.07,0,0,0-.06,2.14,2.82,2.82,0,0,0,.4,1.52c.18.28.63.81.94.71s.35-1.47.31-2.24c-.09-1.49-.21-3.48-1-3.67-.48-.11-1.06.53-2.54,2.77-.94,1.43-2.16,3.39-3.45,5.84l.22.13.19.14a38.74,38.74,0,0,1,2.4-4A40.76,40.76,0,0,1,129.89,23.19Z" transform="translate(-0.45)"/><path class="cls-10" d="M125.72,21.13a14.8,14.8,0,0,0,.17,1.61c.22,1.31.46,1.63.71,1.82s.42.32.63.21.19-1,0-2.22a9.46,9.46,0,0,0-.55-2.05c-.37-.9-.57-1-.66-1-.27,0-.63.23-1.13,1.11a12.16,12.16,0,0,0-1.4,4.91c-.19,1.64-.33,3.16-.44,4.55l.29-.05c.19-1.39.39-2.56.57-3.44a19.1,19.1,0,0,1,1-3.64A15.76,15.76,0,0,1,125.72,21.13Z" transform="translate(-0.45)"/><circle class="cls-10" cx="74.87" cy="82.69" r="0.65"/><circle class="cls-10" cx="71.73" cy="77.6" r="0.3"/><circle class="cls-10" cx="72.46" cy="79.21" r="0.44"/><circle class="cls-10" cx="69.72" cy="79.88" r="0.23"/><circle class="cls-10" cx="74.37" cy="73.4" r="0.5"/><circle class="cls-10" cx="73.02" cy="84.54" r="0.31"/><circle class="cls-10" cx="76.37" cy="86.72" r="0.48"/><circle class="cls-10" cx="66.84" cy="84.98" r="0.38"/><circle class="cls-10" cx="70.1" cy="84.13" r="0.4"/><circle class="cls-10" cx="71.53" cy="86.31" r="0.57"/><circle class="cls-10" cx="75.82" cy="88.78" r="0.43"/><path d="M86.85,55.94v0Z" transform="translate(-0.45)"/><circle cx="93.44" cy="53.43" r="0.36"/><circle cx="82.44" cy="64.15" r="0.36"/><circle cx="92.24" cy="62.51" r="0.45"/><circle cx="98.19" cy="58.52" r="0.67"/><circle cx="89.99" cy="74.68" r="0.79"/><circle cx="75.56" cy="53.75" r="0.69"/><circle cx="70.76" cy="61.01" r="0.66"/><circle cx="85.82" cy="55.94" r="0.57"/></svg>