<svg id="Calque_1" data-name="Calque 1" xmlns="http://www.w3.org/2000/svg" xmlns:xlink="http://www.w3.org/1999/xlink" viewBox="0 0 147.29 146.95"><defs><style>.cls-1{fill:#f9ecd8;}.cls-2{fill:url(#Dégradé_sans_nom_29);}.cls-3{fill:url(#Dégradé_sans_nom_29-2);}.cls-4{fill:url(#Dégradé_sans_nom_29-3);}.cls-5{fill:url(#Dégradé_sans_nom_29-4);}.cls-6{fill:url(#Dégradé_sans_nom_14);}.cls-7{fill:url(#Dégradé_sans_nom_26);}.cls-8{fill:url(#Dégradé_sans_nom_29-5);}.cls-9{fill:url(#Dégradé_sans_nom_29-6);}.cls-10{fill:url(#Dégradé_sans_nom_29-7);}.cls-11{fill:url(#Dégradé_sans_nom_29-8);}.cls-12{fill:url(#Dégradé_sans_nom_24);}.cls-13{fill:#1d1d1b;}.cls-14{fill:url(#Dégradé_sans_nom_17);}.cls-15{fill:url(#Dégradé_sans_nom_29-9);}.cls-16{fill:url(#Dégradé_sans_nom_29-10);}.cls-17{fill:url(#Dégradé_sans_nom_29-11);}.cls-18{fill:url(#Dégradé_sans_nom_29-12);}.cls-19{fill:url(#Dégradé_sans_nom_29-13);}.cls-20{fill:url(#Dégradé_sans_nom_29-14);}.cls-21{fill:url(#Dégradé_sans_nom_29-15);}.cls-22{fill:url(#Dégradé_sans_nom_29-16);}.cls-23{fill:url(#Dégradé_sans_nom_29-17);}.cls-24{fill:url(#Dégradé_sans_nom_29-18);}.cls-25{fill:url(#Dégradé_sans_nom_29-19);}.cls-26{fill:url(#Dégradé_sans_nom_55);}.cls-27{fill:url(#Dégradé_sans_nom_55-2);}.cls-28{fill:url(#Dégradé_sans_nom_55-3);}.cls-29{fill:url(#Dégradé_sans_nom_29-20);}.cls-30{fill:url(#Dégradé_sans_nom_55-4);}.cls-31{fill:url(#Dégradé_sans_nom_55-5);}.cls-32{fill:url(#Dégradé_sans_nom_55-6);}.cls-33{fill:url(#Dégradé_sans_nom_55-7);}.cls-34{fill:url(#Dégradé_sans_nom_55-8);}.cls-35{fill:url(#Dégradé_sans_nom_80);}.cls-36{fill:url(#Dégradé_sans_nom_55-9);}.cls-37{fill:url(#Dégradé_sans_nom_55-10);}.cls-38{fill:url(#Dégradé_sans_nom_55-11);}.cls-39{fill:url(#Dégradé_sans_nom_55-12);}.cls-40{fill:url(#Dégradé_sans_nom_55-13);}.cls-41{fill:url(#Dégradé_sans_nom_55-14);}.cls-42{fill:url(#Dégradé_sans_nom_55-15);}.cls-43{fill:url(#Dégradé_sans_nom_55-16);}.cls-44{fill:url(#Dégradé_sans_nom_55-17);}.cls-45{fill:url(#Dégradé_sans_nom_55-18);}.cls-46{fill:url(#Dégradé_sans_nom_55-19);}.cls-47{fill:url(#Dégradé_sans_nom_55-20);}.cls-48{fill:url(#Dégradé_sans_nom_55-21);}.cls-49{fill:url(#Dégradé_sans_nom_55-22);}.cls-50{fill:url(#Dégradé_sans_nom_55-23);}.cls-51{fill:url(#Dégradé_sans_nom_55-24);}.cls-52{fill:#fff;}</style><linearGradient id="Dégradé_sans_nom_29" x1="120.66" y1="77.84" x2="126.67" y2="77.84" gradientTransform="translate(-28.96)" gradientUnits="userSpaceOnUse"><stop offset="0" stop-color="#f7dcb4"/><stop offset="0.36" stop-color="#fab743"/><stop offset="0.7" stop-color="#7f5e19"/></linearGradient><linearGradient id="Dégradé_sans_nom_29-2" x1="113.48" y1="75.65" x2="132.18" y2="75.65" xlink:href="#Dégradé_sans_nom_29"/><linearGradient id="Dégradé_sans_nom_29-3" x1="109.75" y1="71.58" x2="135.91" y2="71.58" xlink:href="#Dégradé_sans_nom_29"/><linearGradient id="Dégradé_sans_nom_29-4" x1="107.92" y1="66.04" x2="137.61" y2="66.04" xlink:href="#Dégradé_sans_nom_29"/><linearGradient id="Dégradé_sans_nom_14" x1="107.35" y1="59.02" x2="113.34" y2="59.02" gradientTransform="translate(-28.96)" gradientUnits="userSpaceOnUse"><stop offset="0" stop-color="#f7dcb4"/><stop offset="1" stop-color="#f7dcb4"/></linearGradient><linearGradient id="Dégradé_sans_nom_26" x1="120.52" y1="59.83" x2="137.87" y2="59.83" gradientTransform="translate(-28.96)" gradientUnits="userSpaceOnUse"><stop offset="0" stop-color="#efaf3f"/><stop offset="0.53" stop-color="#7f5e19"/></linearGradient><linearGradient id="Dégradé_sans_nom_29-5" x1="108.69" y1="53.6" x2="136.64" y2="53.6" xlink:href="#Dégradé_sans_nom_29"/><linearGradient id="Dégradé_sans_nom_29-6" x1="110.95" y1="49.48" x2="134.68" y2="49.48" xlink:href="#Dégradé_sans_nom_29"/><linearGradient id="Dégradé_sans_nom_29-7" x1="113.64" y1="45.99" x2="131.63" y2="45.99" xlink:href="#Dégradé_sans_nom_29"/><linearGradient id="Dégradé_sans_nom_29-8" x1="116.88" y1="43.32" x2="128.88" y2="43.32" xlink:href="#Dégradé_sans_nom_29"/><linearGradient id="Dégradé_sans_nom_24" x1="110.59" y1="61.75" x2="122.4" y2="61.75" gradientTransform="translate(-29.41)" gradientUnits="userSpaceOnUse"><stop offset="0" stop-color="#7f5e19"/><stop offset="0.47" stop-color="#fab743"/><stop offset="1" stop-color="#f7dcb4"/></linearGradient><linearGradient id="Dégradé_sans_nom_17" x1="117.67" y1="17.37" x2="117.67" y2="43.53" gradientTransform="translate(-28.96)" gradientUnits="userSpaceOnUse"><stop offset="0" stop-color="#bf8f34"/><stop offset="0.49" stop-color="#7f5e19"/><stop offset="1" stop-color="#251900"/></linearGradient><linearGradient id="Dégradé_sans_nom_29-9" x1="89.52" y1="18.33" x2="97.25" y2="18.33" xlink:href="#Dégradé_sans_nom_29"/><linearGradient id="Dégradé_sans_nom_29-10" x1="80.45" y1="17.66" x2="89.45" y2="17.66" xlink:href="#Dégradé_sans_nom_29"/><linearGradient id="Dégradé_sans_nom_29-11" x1="80.48" y1="23.19" x2="89.89" y2="23.19" xlink:href="#Dégradé_sans_nom_29"/><linearGradient id="Dégradé_sans_nom_29-12" x1="88.89" y1="14.76" x2="91.22" y2="14.76" xlink:href="#Dégradé_sans_nom_29"/><linearGradient id="Dégradé_sans_nom_29-13" x1="71.61" y1="22.01" x2="78.19" y2="22.01" xlink:href="#Dégradé_sans_nom_29"/><linearGradient id="Dégradé_sans_nom_29-14" x1="67.73" y1="29" x2="71.93" y2="29" xlink:href="#Dégradé_sans_nom_29"/><linearGradient id="Dégradé_sans_nom_29-15" x1="134.58" y1="13.47" x2="143.99" y2="13.47" gradientTransform="matrix(0.79, 0.61, -0.61, 0.79, -65.88, -72.95)" xlink:href="#Dégradé_sans_nom_29"/><linearGradient id="Dégradé_sans_nom_29-16" x1="143.44" y1="17.72" x2="145.76" y2="17.72" gradientTransform="translate(-61.94 -79.96) rotate(41.89)" xlink:href="#Dégradé_sans_nom_29"/><linearGradient id="Dégradé_sans_nom_29-17" x1="191.02" y1="-192.72" x2="200.02" y2="-192.72" gradientTransform="translate(225.19 -166.25) rotate(180)" xlink:href="#Dégradé_sans_nom_29"/><linearGradient id="Dégradé_sans_nom_29-18" x1="67.8" y1="23.57" x2="71.86" y2="23.57" xlink:href="#Dégradé_sans_nom_29"/><linearGradient id="Dégradé_sans_nom_29-19" x1="135.55" y1="17.06" x2="141.35" y2="17.06" gradientTransform="matrix(0.79, 0.61, -0.61, 0.79, -65.88, -72.95)" xlink:href="#Dégradé_sans_nom_29"/><linearGradient id="Dégradé_sans_nom_55" x1="83.13" y1="118.38" x2="93.97" y2="118.38" gradientTransform="matrix(-1.11, 0, 0, 0.81, 169.29, 7.54)" gradientUnits="userSpaceOnUse"><stop offset="0" stop-color="#7f5e19"/><stop offset="0.23"/><stop offset="1"/></linearGradient><linearGradient id="Dégradé_sans_nom_55-2" x1="99.1" y1="125.7" x2="110.98" y2="125.7" gradientTransform="matrix(-1, 0, 0, 1, 151.52, 0)" xlink:href="#Dégradé_sans_nom_55"/><linearGradient id="Dégradé_sans_nom_55-3" x1="87.84" y1="115.1" x2="96.62" y2="115.1" gradientTransform="matrix(-1, 0, 0, 1, 151.52, 0)" xlink:href="#Dégradé_sans_nom_55"/><linearGradient id="Dégradé_sans_nom_29-20" x1="110.92" y1="125.44" x2="128.78" y2="109.12" gradientTransform="matrix(-1, 0, 0, 1, 151.52, 0)" xlink:href="#Dégradé_sans_nom_29"/><linearGradient id="Dégradé_sans_nom_55-4" x1="104.46" y1="116.34" x2="118.51" y2="103.49" gradientTransform="matrix(-1, 0, 0, 1, 151.52, 0)" xlink:href="#Dégradé_sans_nom_55"/><linearGradient id="Dégradé_sans_nom_55-5" x1="109.14" y1="123.29" x2="124.67" y2="109.1" gradientTransform="matrix(-1, 0, 0, 1, 151.52, 0)" xlink:href="#Dégradé_sans_nom_55"/><linearGradient id="Dégradé_sans_nom_55-6" x1="116.49" y1="131.16" x2="130.51" y2="118.35" gradientTransform="matrix(-1, 0, 0, 1, 151.52, 0)" xlink:href="#Dégradé_sans_nom_55"/><linearGradient id="Dégradé_sans_nom_55-7" x1="123.23" y1="135.36" x2="129.91" y2="129.26" gradientTransform="matrix(-1, 0, 0, 1, 151.52, 0)" xlink:href="#Dégradé_sans_nom_55"/><linearGradient id="Dégradé_sans_nom_55-8" x1="97.05" y1="111.72" x2="108.57" y2="101.19" gradientTransform="matrix(-1, 0, 0, 1, 151.07, 0)" xlink:href="#Dégradé_sans_nom_55"/><radialGradient id="Dégradé_sans_nom_80" cx="86.86" cy="105.41" r="11.84" gradientTransform="matrix(-0.89, -0.45, -0.45, 0.89, 189.93, 50.97)" gradientUnits="userSpaceOnUse"><stop offset="0" stop-color="#f4bc5d"/><stop offset="0.42" stop-color="#e5a93d"/><stop offset="0.99" stop-color="#7f5e19"/></radialGradient><linearGradient id="Dégradé_sans_nom_55-9" x1="82.09" y1="39.97" x2="92.93" y2="39.97" gradientTransform="matrix(-1.34, 0, 0, 0.98, 180.87, 64.79)" xlink:href="#Dégradé_sans_nom_55"/><linearGradient id="Dégradé_sans_nom_55-10" x1="91.21" y1="119.69" x2="107.44" y2="119.69" gradientTransform="matrix(-1, 0, 0, 1, 151.52, 0)" xlink:href="#Dégradé_sans_nom_55"/><linearGradient id="Dégradé_sans_nom_55-11" x1="105.64" y1="121.85" x2="119.34" y2="121.85" gradientTransform="matrix(-1, 0, 0, 1, 151.52, 0)" xlink:href="#Dégradé_sans_nom_55"/><linearGradient id="Dégradé_sans_nom_55-12" x1="89.89" y1="114.12" x2="100.81" y2="114.12" gradientTransform="matrix(-1, 0, 0, 1, 151.52, 0)" xlink:href="#Dégradé_sans_nom_55"/><linearGradient id="Dégradé_sans_nom_55-13" x1="42.51" y1="104.09" x2="13.32" y2="77.41" gradientTransform="matrix(1, 0, 0, 1, 0, 0)" xlink:href="#Dégradé_sans_nom_55"/><linearGradient id="Dégradé_sans_nom_55-14" x1="51.02" y1="102.67" x2="20.39" y2="74.67" gradientTransform="matrix(1, 0, 0, 1, 0, 0)" xlink:href="#Dégradé_sans_nom_55"/><linearGradient id="Dégradé_sans_nom_55-15" x1="51.86" y1="88.97" x2="36.98" y2="75.37" gradientTransform="matrix(1, 0, 0, 1, 0, 0)" xlink:href="#Dégradé_sans_nom_55"/><linearGradient id="Dégradé_sans_nom_55-16" x1="54.4" y1="86.69" x2="46.54" y2="79.5" gradientTransform="matrix(1, 0, 0, 1, 0, 0)" xlink:href="#Dégradé_sans_nom_55"/><linearGradient id="Dégradé_sans_nom_55-17" x1="59.05" y1="84.65" x2="50.98" y2="77.27" gradientTransform="matrix(1, 0, 0, 1, 0, 0)" xlink:href="#Dégradé_sans_nom_55"/><linearGradient id="Dégradé_sans_nom_55-18" x1="32.42" y1="105.48" x2="14.87" y2="89.44" gradientTransform="matrix(1, 0, 0, 1, 0, 0)" xlink:href="#Dégradé_sans_nom_55"/><linearGradient id="Dégradé_sans_nom_55-19" x1="19.45" y1="103.57" x2="13.48" y2="98.12" gradientTransform="matrix(1, 0, 0, 1, 0, 0)" xlink:href="#Dégradé_sans_nom_55"/><linearGradient id="Dégradé_sans_nom_55-20" x1="27.78" y1="128.95" x2="16.52" y2="118.66" gradientTransform="matrix(1, 0, 0, 1, 0, 0)" xlink:href="#Dégradé_sans_nom_55"/><linearGradient id="Dégradé_sans_nom_55-21" x1="20.65" y1="134.5" x2="15.48" y2="129.78" gradientTransform="matrix(1, 0, 0, 1, 0, 0)" xlink:href="#Dégradé_sans_nom_55"/><linearGradient id="Dégradé_sans_nom_55-22" x1="19.2" y1="139.58" x2="15.08" y2="135.81" gradientTransform="matrix(1, 0, 0, 1, 0, 0)" xlink:href="#Dégradé_sans_nom_55"/><linearGradient id="Dégradé_sans_nom_55-23" x1="73.57" y1="123.99" x2="68.87" y2="119.7" gradientTransform="matrix(1, 0, 0, 1, 0, 0)" xlink:href="#Dégradé_sans_nom_55"/><linearGradient id="Dégradé_sans_nom_55-24" x1="84.06" y1="105.82" x2="81.73" y2="103.69" gradientTransform="matrix(1, 0, 0, 1, 0, 0)" xlink:href="#Dégradé_sans_nom_55"/></defs><rect class="cls-1" width="146.95" height="146.95"/><path class="cls-2" d="M91.7,77.67a5.37,5.37,0,0,0,6-.4,19.63,19.63,0,0,1-2.52.4A19.28,19.28,0,0,1,91.7,77.67Z" transform="translate(-0.45)"/><path class="cls-3" d="M84.52,73.79a12.88,12.88,0,0,0,8.86,4,13.74,13.74,0,0,0,5.22-.91c2.72-.9,3.61-1.91,3.92-2.31a5.42,5.42,0,0,0,.7-1.15,31.63,31.63,0,0,1-18.7.33Z" transform="translate(-0.45)"/><path class="cls-4" d="M80.79,68.27a7,7,0,0,0,1,3.07,7.25,7.25,0,0,0,2.74,2.5,11.65,11.65,0,0,0,4.83,1.26,29.71,29.71,0,0,0,8,.14c2.48-.32,4.12-.55,5.88-1.73a8.71,8.71,0,0,0,2.65-2.77,8.14,8.14,0,0,0,1.06-3,31,31,0,0,1-6.38,2.15,32.73,32.73,0,0,1-11.66.37A38.32,38.32,0,0,1,80.79,68.27Z" transform="translate(-0.45)"/><path class="cls-5" d="M79.09,62.26a6.77,6.77,0,0,0,1.7,6A30.28,30.28,0,0,0,107,67.72a6.59,6.59,0,0,0,1.33-2.21,6.82,6.82,0,0,0,0-4.4,16.35,16.35,0,0,1-4.13,2.61,20.26,20.26,0,0,1-7.21,1.47,34.45,34.45,0,0,1-4.77,0A6.19,6.19,0,0,1,86.25,67a6.37,6.37,0,0,1-4-3.31Z" transform="translate(-0.45)"/><path class="cls-6" d="M79.82,54.32a8.16,8.16,0,0,0-1.25,2.92,8.46,8.46,0,0,0,.52,5,7.91,7.91,0,0,0,1.33.84,7,7,0,0,0,1.79.62,4.57,4.57,0,0,1-.46-1.38,5.41,5.41,0,0,1,1.15-4.08,5.6,5.6,0,0,1,1.48-1.33A7.16,7.16,0,0,1,82,56.16,7,7,0,0,1,79.82,54.32Z" transform="translate(-0.45)"/><path class="cls-7" d="M91.56,57.76a5.69,5.69,0,0,1,.61,7.45,22.11,22.11,0,0,0,7.66-.13,19.45,19.45,0,0,0,5.28-1.82,17.51,17.51,0,0,0,3.17-2.15,6.55,6.55,0,0,0,.6-2.19,7.07,7.07,0,0,0-1.4-4.75,7.68,7.68,0,0,1-.82.94c-.84.81-2.53,2.07-7.84,2.6A40.48,40.48,0,0,1,91.56,57.76Z" transform="translate(-0.45)"/><path class="cls-8" d="M82,49.13a5,5,0,0,0-1.76,2,5.15,5.15,0,0,0-.41,3.2,7.05,7.05,0,0,0,1.71,1.56,7.17,7.17,0,0,0,2.85,1,5.19,5.19,0,0,1,6.73,1,54.22,54.22,0,0,0,6.73,0c5.16-.36,6.8-1.25,7.76-2a9.12,9.12,0,0,0,1.88-1.83,4,4,0,0,0,.11-2.05,4.16,4.16,0,0,0-1.87-2.58,14.67,14.67,0,0,1-4.46,2.29,19.23,19.23,0,0,1-6.73.58,26.39,26.39,0,0,1-5.87-.6A23.43,23.43,0,0,1,82,49.13Z" transform="translate(-0.45)"/><path class="cls-9" d="M84.68,45.91a3.71,3.71,0,0,0-2.05,1.4A3.57,3.57,0,0,0,82,49.13a25.29,25.29,0,0,0,6.33,2.81,20.39,20.39,0,0,0,12.36.24,18,18,0,0,0,5-2.64,4.73,4.73,0,0,0-3-3.46,1.76,1.76,0,0,1-.21.59c-.55,1-1.92,1.31-5.48,1.45A36.13,36.13,0,0,1,90.47,48a11.17,11.17,0,0,1-5-1.56C85.12,46.26,84.86,46.05,84.68,45.91Z" transform="translate(-0.45)"/><path class="cls-10" d="M88,43.66a4.56,4.56,0,0,0-1.84.71,4.6,4.6,0,0,0-1.44,1.54,9.36,9.36,0,0,0,3.11,1.82c1,.35,1.61.35,5.64.5,2.31.08,2.88.1,4,.08,3.31-.08,4.38-.48,4.92-1.26a2.24,2.24,0,0,0,.36-1,3.49,3.49,0,0,0-2.76-2.22,1.42,1.42,0,0,1-.29.41,2.54,2.54,0,0,1-1.87.54c-2.5-.09-3.75-.13-4.24-.18-3.32-.33-5.4,0-5.58-.68A.43.43,0,0,1,88,43.66Z" transform="translate(-0.45)"/><path class="cls-11" d="M90.89,41.85A6.38,6.38,0,0,0,88,43.66a.43.43,0,0,0,0,.29.49.49,0,0,0,.24.29,2.93,2.93,0,0,0,1.29.46c2.66.12,4.63-.12,6.58.14a17,17,0,0,0,2.06,0,2,2,0,0,0,1.47-.39,1.31,1.31,0,0,0,.34-.61,3.43,3.43,0,0,0-.68-.94,4.07,4.07,0,0,0-2.39-1.16Z" transform="translate(-0.45)"/><ellipse class="cls-12" cx="87.08" cy="61.75" rx="5.9" ry="5.66"/><ellipse class="cls-13" cx="87.48" cy="61.37" rx="5.51" ry="5.28"/><path class="cls-14" d="M147.74,36.77V18.83h0c-10.46-.3-12.65-.13-12.65-.13a40.77,40.77,0,0,0-11.86,2.59c-5,2-5.58,3.58-13.27,8.68-6.68,4.43-10,6.64-14.29,7.83a29.8,29.8,0,0,1-17-.17A29,29,0,0,1,68.1,31.5c-2.7-2.38-6.95-6.12-7.49-11.74a12.5,12.5,0,0,1,0-2.39,16,16,0,0,0,1.5,9.26,15.67,15.67,0,0,0,4,5,38.69,38.69,0,0,0-6-3.16C54.18,26,45.62,24.27,39.57,25.84a26.49,26.49,0,0,1-6.18.95,25.16,25.16,0,0,1-3.71-.16,19.56,19.56,0,0,0,9.25.24c.74-.18,1-.3,1.9-.48a22.41,22.41,0,0,1,7.75,0,34.82,34.82,0,0,1,7.36,2.14,50.81,50.81,0,0,1,7.61,3.8c8.69,5.25,13,7.87,14.9,8.67.82.35,10.62,4.4,21.24,1.48,7.34-2,7.34-5.26,17.22-8,4.63-1.3,8.09-2.28,12.47-1.38,3.75.77,5.48,2.37,10.46,3.28A31.37,31.37,0,0,0,147.74,36.77Z" transform="translate(-0.45)"/><path class="cls-15" d="M60.56,19a4.73,4.73,0,0,1,2.38-2.21,5.86,5.86,0,0,1,4.41.47,6.53,6.53,0,0,1,.94.49,3,3,0,0,0-.68.23c-1,.45-1.28,1.14-1.87,1.61a3.57,3.57,0,0,1-2.37.64,3.62,3.62,0,0,1-2.13-.57A3.31,3.31,0,0,1,60.56,19Z" transform="translate(-0.45)"/><path class="cls-16" d="M60.49,18.67a5.34,5.34,0,0,0-1.43-1.81,5.92,5.92,0,0,0-6.31-.58,5.08,5.08,0,0,0-1.26.94,1.88,1.88,0,0,1,1.29-.13c.69.21.81.83,1.35,1.42C55.5,20,58,19.66,58.19,19.64A5.31,5.31,0,0,0,60.49,18.67Z" transform="translate(-0.45)"/><path class="cls-17" d="M60.93,23.41a6.25,6.25,0,0,0-2.77-2,6.44,6.44,0,0,0-5,.36,3.87,3.87,0,0,1-.68.35c-.57.22-1,.18-1,.29s.43.15.87.45a2.34,2.34,0,0,1,.74.9c.55.95,2.3,1.44,3.48,1.49A5.74,5.74,0,0,0,60.93,23.41Z" transform="translate(-0.45)"/><path class="cls-18" d="M60.59,17.61a2.85,2.85,0,0,1-.66-1.82c.06-1.1.93-1.57.79-2.63-.09-.72-.57-1.13-.45-1.24s.85.31,1.32.93a3.25,3.25,0,0,1,.59,2.66,3.36,3.36,0,0,1-1.25,1.88Z" transform="translate(-0.45)"/><path class="cls-19" d="M48.75,25.49a18.76,18.76,0,0,1-2.56-1.42c-1.63-1.09-2.65-1.77-2.72-2.78,0-.58.25-1,0-1.58a2.07,2.07,0,0,0-.82-.95,5.25,5.25,0,0,1,3.85.31,5,5,0,0,1,2.72,4.18A4.59,4.59,0,0,1,48.75,25.49Z" transform="translate(-0.45)"/><path class="cls-20" d="M41.89,25.71a4.25,4.25,0,0,0-2.72,2.09,4.67,4.67,0,0,0,0,3.8c.14.32.37.72.5.69s0-.5.26-.88.93-.33,1.58-.64A3,3,0,0,0,43,28.18,3.38,3.38,0,0,0,41.89,25.71Z" transform="translate(-0.45)"/><path class="cls-21" d="M40,25.63a6.24,6.24,0,0,0-1-3.25,6.48,6.48,0,0,0-4.15-2.74,3.16,3.16,0,0,1-.75-.13c-.59-.18-.9-.46-1-.38s.25.38.41.89a2.31,2.31,0,0,1,0,1.16c-.14,1.09,1,2.54,1.86,3.3A5.72,5.72,0,0,0,40,25.63Z" transform="translate(-0.45)"/><path class="cls-22" d="M31.59,31.57a2.78,2.78,0,0,1,.73-1.79c.77-.79,1.73-.56,2.34-1.44.41-.6.33-1.22.49-1.22s.43.8.36,1.57a3.27,3.27,0,0,1-1.33,2.38,3.38,3.38,0,0,1-2.19.56Z" transform="translate(-0.45)"/><path class="cls-23" d="M25.18,25.47a5.28,5.28,0,0,0,1.42,1.8,5.92,5.92,0,0,0,6.32.59,5.5,5.5,0,0,0,1.26-.94,1.89,1.89,0,0,1-1.29.13c-.69-.21-.82-.83-1.36-1.42-1.37-1.49-3.89-1.15-4.06-1.13A5,5,0,0,0,25.18,25.47Z" transform="translate(-0.45)"/><path class="cls-24" d="M42.6,25.71A10.61,10.61,0,0,1,41,24.84c-1-.67-1.63-1.1-1.67-1.72,0-.35.15-.59,0-1a1.32,1.32,0,0,0-.51-.59,3.27,3.27,0,0,1,2.38.2,3.09,3.09,0,0,1,1.67,2.57A2.93,2.93,0,0,1,42.6,25.71Z" transform="translate(-0.45)"/><path class="cls-25" d="M35.73,26.8a3.91,3.91,0,0,0-.62-2,4,4,0,0,0-2.56-1.69,2,2,0,0,1-.46-.08c-.36-.11-.55-.28-.6-.24s.16.24.26.55a1.47,1.47,0,0,1,0,.72,2.85,2.85,0,0,0,1.15,2A3.5,3.5,0,0,0,35.73,26.8Z" transform="translate(-0.45)"/><ellipse class="cls-26" cx="70.8" cy="103.25" rx="6.03" ry="10.18" transform="translate(-17.76 14.31) rotate(-10.29)"/><path class="cls-27" d="M47.23,129.27a10.16,10.16,0,0,0-.47-4.38,10.79,10.79,0,0,0-4.94-5.74l-1.28,6A16.6,16.6,0,0,0,43.89,129a14,14,0,0,0,5.89,3c.89.19,2.5.44,2.63.08s-1.78-1.48-2-1.6A12.24,12.24,0,0,0,47.23,129.27Z" transform="translate(-0.45)"/><path class="cls-28" d="M63.66,120.46c-.18.31-1.95-.27-3.37-1.12a11,11,0,0,1-4-4.36,12.1,12.1,0,0,1-1.38-5.32L59,112.37l-1.69,3a28.08,28.08,0,0,1,3.24,2.11C61,117.83,63.92,120,63.66,120.46Z" transform="translate(-0.45)"/><path class="cls-29" d="M42.37,102.41a14.7,14.7,0,0,0-6.3.14c-5.86,1.46-8.95,6.29-10.28,8.38-6.48,10.15-1.74,22.86-1,24.67a34.54,34.54,0,0,0,10.69-5.51,35.35,35.35,0,0,0,11.17-14.62Z" transform="translate(-0.45)"/><path class="cls-30" d="M46.62,115.47a72,72,0,0,1-5.16-5.35A21.8,21.8,0,0,1,38,105.2a17.87,17.87,0,0,1-1.09-2.82,14.28,14.28,0,0,0-2.38.66,14,14,0,0,0-1.89.89,27.61,27.61,0,0,0,12.74,14.29Z" transform="translate(-0.45)"/><path class="cls-31" d="M44.05,120.53a28.1,28.1,0,0,1-5.44-3.5,29.48,29.48,0,0,1-8.42-11.41,24.16,24.16,0,0,0-3,3.23,23.76,23.76,0,0,0-2.16,3.34,30.43,30.43,0,0,0,6.31,7.53,27.43,27.43,0,0,0,3.75,2.71A26,26,0,0,0,40.85,125c.43-.51.87-1,1.3-1.63C42.88,122.36,43.5,121.42,44.05,120.53Z" transform="translate(-0.45)"/><path class="cls-32" d="M23.62,115.5a35.58,35.58,0,0,0,14.19,12.62c-.7.64-1.48,1.31-2.36,2A30.73,30.73,0,0,1,32.71,132a16.67,16.67,0,0,1-10.27-7.74,24.15,24.15,0,0,1,.11-3.63A25.9,25.9,0,0,1,23.62,115.5Z" transform="translate(-0.45)"/><path class="cls-33" d="M30,133.47A24.41,24.41,0,0,1,22.78,128a35.47,35.47,0,0,0,2,7.61c.78-.25,1.61-.53,2.47-.88C28.25,134.32,29.18,133.9,30,133.47Z" transform="translate(-0.45)"/><ellipse class="cls-34" cx="48.27" cy="106.46" rx="7.34" ry="8.32"/><ellipse class="cls-35" cx="64.66" cy="105.41" rx="10.64" ry="12.93" transform="translate(-41.28 40.88) rotate(-27.02)"/><ellipse class="cls-36" cx="63.42" cy="103.87" rx="7.27" ry="12.31" transform="translate(-34.09 30.45) rotate(-21.48)"/><path class="cls-37" d="M49.22,119a18.43,18.43,0,0,0-.87-5.65c-1-3-2.89-6.39-3.74-6.13s-.58,4.44.31,7.64a20.17,20.17,0,0,0,1.76,4.3,26.52,26.52,0,0,0,2.7,5.26c1.21,1.8,3.92,5.73,8.37,7.25.29.1,2.34.8,2.55.4s-1-1.3-2.15-1.91-1.95-.52-2.54-1.23A3.48,3.48,0,0,1,55,127c-.27-1.52-1-2.51-2.15-4.22A17.19,17.19,0,0,0,49.22,119Z" transform="translate(-0.45)"/><path class="cls-38" d="M40.94,131.74a12.6,12.6,0,0,1,2.79,1.11c.23.13,2.31,1.26,2.15,1.68s-1.82.14-3.19-.4a7.78,7.78,0,0,1-2.62-1.75,10.17,10.17,0,0,1-3.83-1.92,11.29,11.29,0,0,1-3.9-7.72c-.1-2.52-.15-5-.16-7.65a9.45,9.45,0,0,1,1.11-4.7,2.66,2.66,0,0,1,1-1c1.58-1,3.87.24,6.13,1.43a24.79,24.79,0,0,1,4.3,2.87l.24,1.19a34.37,34.37,0,0,1-4.49-1.45,36.14,36.14,0,0,1-4.25-2.05,27,27,0,0,1,.23,4.88,26,26,0,0,1-.78,5.42c1.26.92,4.49,3.53,5.2,7.78A10.88,10.88,0,0,1,40.94,131.74Z" transform="translate(-0.45)"/><path class="cls-39" d="M55.08,117.79a21.53,21.53,0,0,0,0-2.81,14.58,14.58,0,0,0-2.25-7.46c-.51-.74-1-1.52-1.48-1.41-.75.2-.8,3.1-.35,5.35a14.16,14.16,0,0,0,4.57,7.67c2.63,2.23,5.86,3.27,6,3S60,120.46,59.3,120A17.2,17.2,0,0,0,55.08,117.79Z" transform="translate(-0.45)"/><path class="cls-40" d="M47.9,98.19l-4.16-3.4-4.3-3.24L30.89,85C29.46,84,28,82.88,26.58,81.85A45.09,45.09,0,0,0,22,79a17.43,17.43,0,0,0-4.85-2A4.13,4.13,0,0,0,13,79a5.43,5.43,0,0,0-.66,4.81,13.18,13.18,0,0,0,2.59,4.51,31.7,31.7,0,0,0,3.72,3.79,37.53,37.53,0,0,0,4.23,3.23,33.68,33.68,0,0,0,4.72,2.48,37.55,37.55,0,0,0,5.06,1.69,43.58,43.58,0,0,0,10.62,1.39,44.37,44.37,0,0,1-10.71-1,37.58,37.58,0,0,1-5.16-1.61,34.7,34.7,0,0,1-4.84-2.42,34.62,34.62,0,0,1-4.36-3.23,34,34,0,0,1-3.83-3.85A14.06,14.06,0,0,1,11.6,84a6.14,6.14,0,0,1,.73-5.45,5.5,5.5,0,0,1,2.14-1.89,4.51,4.51,0,0,1,2.84-.36,18,18,0,0,1,5.07,2.08,61.21,61.21,0,0,1,8.87,6.15l8.43,6.69,4.18,3.38Z" transform="translate(-0.45)"/><path class="cls-41" d="M53.36,100l-6.9-7.6c-2.29-2.55-4.58-5.08-6.91-7.59s-4.63-5-7-7.46A23.5,23.5,0,0,0,28.81,74a6.69,6.69,0,0,0-2.17-.93,5.36,5.36,0,0,0-2.29,0,4,4,0,0,0-2,1,4.08,4.08,0,0,0-.93,2A11,11,0,0,0,21.94,81a20.73,20.73,0,0,0,5,8.53,22.77,22.77,0,0,0,4,3c1.45.88,2.94,1.74,4.42,2.58a77.47,77.47,0,0,0,9.23,4.43,66,66,0,0,1-9.5-3.93c-1.52-.8-3-1.6-4.52-2.45a24,24,0,0,1-4.28-3,18.43,18.43,0,0,1-3.28-4.09,21,21,0,0,1-2.16-4.78A12,12,0,0,1,20.38,76a5,5,0,0,1,1.2-2.59A4.94,4.94,0,0,1,24.09,72a6.26,6.26,0,0,1,2.79,0,7.61,7.61,0,0,1,2.52,1.1,24.39,24.39,0,0,1,3.89,3.52c2.37,2.49,4.68,5,6.92,7.6s4.48,5.18,6.68,7.8S51.24,97.31,53.36,100Z" transform="translate(-0.45)"/><path class="cls-42" d="M50.23,90.76a31.69,31.69,0,0,1-3.88-3.53,34.29,34.29,0,0,1-3.27-4.13,34.84,34.84,0,0,1-2.55-4.59,30.27,30.27,0,0,1-1.76-4.94,44.11,44.11,0,0,0,2,4.81,37.47,37.47,0,0,0,2.61,4.51A38.36,38.36,0,0,0,46.57,87,42.93,42.93,0,0,0,50.23,90.76Z" transform="translate(-0.45)"/><path class="cls-43" d="M53,88.15a23.58,23.58,0,0,1-5-10.07c.7,1.76,1.4,3.5,2.26,5.17S52,86.54,53,88.15Z" transform="translate(-0.45)"/><path class="cls-44" d="M58.39,85.37a18.22,18.22,0,0,1-4-3.92,18.44,18.44,0,0,1-2.63-4.93,35.87,35.87,0,0,0,2.94,4.69A33.53,33.53,0,0,0,58.39,85.37Z" transform="translate(-0.45)"/><path class="cls-45" d="M34.49,103a32.2,32.2,0,0,1-6.11-1.26,34.56,34.56,0,0,1-5.77-2.39A34.9,34.9,0,0,1,17.38,96a33.44,33.44,0,0,1-4.49-4.33,42.07,42.07,0,0,0,4.67,4.09,36.15,36.15,0,0,0,5.23,3.33,37.68,37.68,0,0,0,5.69,2.45A41.38,41.38,0,0,0,34.49,103Z" transform="translate(-0.45)"/><path class="cls-46" d="M19.67,103.26a13.07,13.07,0,0,1-3.45-2.13,12.91,12.91,0,0,1-2.63-3.08,39.82,39.82,0,0,0,2.88,2.79A36.75,36.75,0,0,0,19.67,103.26Z" transform="translate(-0.45)"/><path class="cls-47" d="M22.27,112.64a36.86,36.86,0,0,0-1.39,5.52,32.71,32.71,0,0,0-.5,5.66A35.71,35.71,0,0,0,22.1,135a28.41,28.41,0,0,1-1.6-5.5,29.7,29.7,0,0,1,.09-11.43A28.14,28.14,0,0,1,22.27,112.64Z" transform="translate(-0.45)"/><path class="cls-48" d="M17.23,128.09a20.73,20.73,0,0,0,.43,4.18,20.38,20.38,0,0,0,1.31,4,10.63,10.63,0,0,1-1.69-3.9A10.91,10.91,0,0,1,17.23,128.09Z" transform="translate(-0.45)"/><path class="cls-49" d="M18.1,140.65a18.51,18.51,0,0,1-1.2-2.87,22.58,22.58,0,0,1-.71-3,24.3,24.3,0,0,1,1.08,2.91C17.54,138.66,17.92,139.62,18.1,140.65Z" transform="translate(-0.45)"/><path class="cls-50" d="M77.32,115.07a17.78,17.78,0,0,1-10,7.82l-.06-.37a20.89,20.89,0,0,1,3.78.25,3,3,0,0,1,1.79.81,1,1,0,0,1,0,1.06,3.11,3.11,0,0,1-.63.76,17.2,17.2,0,0,1-3.14,2.1c-1.11.59-2.25,1.12-3.39,1.63,1.11-.57,2.22-1.17,3.29-1.81a16.63,16.63,0,0,0,3-2.14c.41-.41.88-1,.55-1.4a2.88,2.88,0,0,0-1.59-.66,22.77,22.77,0,0,0-3.7-.22l-1.25,0,1.19-.35A19.07,19.07,0,0,0,77.32,115.07Z" transform="translate(-0.45)"/><path class="cls-51" d="M83.57,101.87a6.21,6.21,0,0,1,0,3,6.43,6.43,0,0,1-1.38,2.7,14.59,14.59,0,0,0,1-2.79A13.6,13.6,0,0,0,83.57,101.87Z" transform="translate(-0.45)"/><ellipse class="cls-52" cx="62.46" cy="100.43" rx="2.73" ry="6.52" transform="translate(-42.3 44.69) rotate(-30)"/><path class="cls-13" d="M76.08,78.93A16.75,16.75,0,0,0,77,82.55a5.14,5.14,0,0,0,1.36,2.35c.45.38,1.45,1.06,1.91.75.66-.44-.08-2.61-.52-3.88-.84-2.46-2-5.73-3.3-5.69-.85,0-1.52,1.37-3,5.81-.91,2.81-2,6.66-3.07,11.36.13,0,.28.06.43.11a2.77,2.77,0,0,1,.38.14,68.57,68.57,0,0,1,4.89-14.57Z" transform="translate(-0.45)"/><path class="cls-13" d="M68.14,77.43c.37,1.09.75,2,1,2.61,1,2.08,1.52,2.52,2,2.72.19.07.84.34,1.15,0s-.13-1.71-1-3.7a16,16,0,0,0-1.86-3.18c-1-1.33-1.41-1.35-1.55-1.33-.48.05-1,.67-1.39,2.37a20.94,20.94,0,0,0-.06,8.85c.44,2.84.91,5.45,1.37,7.83l.47-.22c-.34-2.42-.54-4.47-.66-6a35.39,35.39,0,0,1-.09-6.53A26.61,26.61,0,0,1,68.14,77.43Z" transform="translate(-0.45)"/></svg>